<?xml version="1.0" standalone="no"?>
<!DOCTYPE svg PUBLIC "-//W3C//DTD SVG 1.1//EN" "http://www.w3.org/Graphics/SVG/1.1/DTD/svg11.dtd" >
<svg>
<metadata>
Created by FontForge 20090914 at Thu Sep  2 21:01:28 2021
 By www-data
Copyright &#194;&#169; 1996, 1997 Br&#195;&#184;derbund Software.
</metadata>
<defs>
<font id="Vogue" horiz-adv-x="500" >
  <font-face 
    font-family="Vogue"
    font-weight="400"
    font-stretch="normal"
    units-per-em="1000"
    panose-1="0 0 4 0 0 0 0 0 0 0"
    ascent="800"
    descent="-200"
    x-height="359.998"
    cap-height="702.001"
    bbox="-33 -226 1189 953"
    underline-thickness="20"
    underline-position="-190"
    unicode-range="U+0020-U+F002"
  />
<missing-glyph 
d="M63 0v812h375v-812h-375zM125 63h250v687h-250v-687z" />
    <glyph glyph-name=".notdef" 
d="M63 0v812h375v-812h-375zM125 63h250v687h-250v-687z" />
    <glyph glyph-name="space" unicode=" " horiz-adv-x="421" 
 />
    <glyph glyph-name="exclam" unicode="!" horiz-adv-x="285" 
d="M63 86c0.666992 22.667 9.50098 41.502 26.501 56.502s36.833 22.167 59.5 21.5s41.5 -9.5 56.5 -26.5s22.167 -36.833 21.5 -59.5c-0.666992 -23.333 -9.33398 -42.5 -26.001 -57.5s-36.667 -21.833 -60 -20.5s-42.333 10.166 -57 26.499s-21.667 36.166 -21 59.499z
M30.001 698.002h229l-98 -487h-30z" />
    <glyph glyph-name="quotedbl" unicode="&#x22;" horiz-adv-x="375" 
d="M23 635c0.666992 20 8.16699 36.168 22.5 48.501s31.5 18.166 51.5 17.499c18 -0.666992 33.833 -7.33398 47.5 -20.001s20.167 -27.667 19.5 -45c-1.33301 -28.667 -24 -73 -68 -133c-15.333 -20.667 -27.333 -30 -36 -28c-2 0.666992 -3 2.33398 -3 5.00098
c0 6 6.16699 22 18.5 48s17.833 40 16.5 42c-46.667 1.33301 -69.667 23 -69 65zM217 635.001c0.666992 20 8.33203 36.168 22.999 48.501s32 18.166 52 17.499c18 -0.666992 33.833 -7.33398 47.5 -20.001s20.167 -27.667 19.5 -45c-1.33301 -28.667 -24 -73 -68 -133
c-15.333 -20.667 -27.333 -30 -36 -28c-2 0.666992 -3 2.33398 -3 5.00098c0 6 6.16699 22 18.5 48s17.833 40 16.5 42c-47.333 1.33301 -70.666 23 -69.999 65z" />
    <glyph glyph-name="numbersign" unicode="#" horiz-adv-x="734" 
d="M325 354l-14 -78h89l14 78h-89zM294 630l81 -1l-35 -193h90l35 194l81 -1l-35 -193h195l-22 -82h-188l-14 -78h191l-22 -82h-184l-36 -192l-81 1l35 191h-89l-36 -192l-81 1l35 191h-190l22 82h183l14 78h-186l22 82h180z" />
    <glyph glyph-name="dollar" unicode="$" 
d="M68 94c28.667 -38.667 76 -58.999 142 -60.999c15.333 -0.666992 28.666 2 39.999 8c14 7.33301 20.667 18 20 32c-1.33301 24.667 -18.666 41.667 -51.999 51c-25.333 2.66699 -49 5.66699 -71 9c-80 11.333 -120.333 45.666 -121 102.999
c-0.666992 63.333 53.666 103 162.999 119v120c0 10 2 15 6 15c6.66699 0 22.667 -10.667 48 -32s38 -35 38 -41v-60c14.667 -0.666992 36.667 -2.33398 66 -5.00098c49.333 -4.66699 71 -7 65 -7c4.66699 0 13 6.5 25 19.5s18.333 19.5 19 19.5c2 0 3 -2 3 -6v-128
c0 -5.33301 -1 -8 -3 -8c-1.33301 0 -7.66602 7.66699 -18.999 23c-13.333 18 -20.333 27.333 -21 28c-24 27.333 -55.333 42 -94 44c-15.333 0.666992 -29.333 -2.83301 -42 -10.5s-19 -18.167 -19 -31.5c0 -22 18.333 -37.667 55 -47c62.667 -16.667 96.667 -26 102 -28
c36.667 -16.667 54.667 -44.667 54 -84c-1.33301 -65.333 -62.666 -110.666 -183.999 -135.999v-101c0 -5.33301 -2.33301 -8 -7 -8c-8.66699 0 -25.167 8.83301 -49.5 26.5s-36.5 30.5 -36.5 38.5v46l-115 25c-5.33301 0 -12.333 -5.33301 -21 -16l-14 -17
c-0.666992 0.666992 -1 2 -1 4v121c0 5.33301 0.666992 8 2 8s8.66602 -11 21.999 -33z" />
    <glyph glyph-name="percent" unicode="%" horiz-adv-x="764" 
d="M352 380c-0.666992 -46 -16.8311 -82.4971 -48.498 -109.497s-70.834 -40.5 -117.501 -40.5c-48.667 0 -88.334 13.667 -119.001 41s-45.667 65 -45 113c0.666992 49.333 16.667 86.666 48 111.999c29.333 24 69 36 119 36c47.333 0 83.666 -10.333 108.999 -31
c3.33301 -2.66699 15.333 -13.667 36 -33c14.667 -4 45 -1.66699 91 7c12 2 33.667 11.667 65 29s49 26 53 26c15.333 0 23 -5.66699 23 -17c0 -4 -3.66699 -11.667 -11 -23l-353 -560c-4 -6.66699 -15.667 -10 -35 -10c-14 0 -21 2.33301 -21 7
c0 1.33301 0.333008 2.66602 1 3.99902l300 471c9.33301 14.667 14 25 14 31s-4.33301 9 -13 9c-5.33301 0 -13 -1.33301 -23 -4l-24 -5c-9.33301 -1.33301 -26.666 -2.33301 -51.999 -3c2 -24.667 3 -41.334 3 -50.001zM584.003 296.003
c105.333 0 158.333 -49.667 159 -149c0.666992 -100 -53 -150 -161 -150c-106.667 0 -160 50.333 -160 151c0 98.667 54 148 162 148zM154.003 388.003c-0.666992 -85.333 10.333 -128 33 -128c16.667 0 27 14.667 31 44c0.666992 4.66699 1 32 1 82
c0 42 -0.666992 67.667 -2 77c-4 27.333 -13.667 41 -29 41c-16.667 0 -27 -13.667 -31 -41c-1.33301 -11.333 -2.33301 -36.333 -3 -75zM553.003 150.003c0 -50 0.333008 -78 1 -84c3.33301 -30 13 -44.667 29 -44c16.667 0.666992 26 16 28 46
c0 10.667 0.333008 38.667 1 84c0.666992 49.333 0.666992 76.333 0 81c-3.33301 24.667 -13 36.667 -29 36s-25.667 -14.667 -29 -42c-0.666992 -5.33301 -1 -31 -1 -77z" />
    <glyph glyph-name="ampersand" unicode="&#x26;" horiz-adv-x="913" 
d="M451 699c52 0.666992 99.3379 -8.33105 142.005 -26.998c54.667 -24 84 -58.333 88 -103c2.66699 -31.333 -8.33301 -58 -33 -80c-14.667 -12.667 -38.334 -25.334 -71.001 -38.001c-26.667 -10 -40.334 -17.667 -41.001 -23
c-1.33301 -8.66699 18.334 -33.667 59.001 -75s66.667 -63 78 -65c5.33301 -1.33301 13 2.5 23 11.5s16.333 13.5 19 13.5c7.33301 0 14.166 -3.33301 20.499 -10s9.16602 -13.667 8.49902 -21c-7.33301 -7.33301 -16 -18.333 -26 -33c50 -40 81.333 -60 94 -60
c4 0 13.833 4.5 29.5 13.5s26.167 13.5 31.5 13.5s8 -3.66699 8 -11c0 -8 -15 -25.333 -45 -52l-57 -50c-10 -9.33301 -34.333 -34.333 -73 -75c-20 -20.667 -34.667 -31.334 -44 -32.001c-13.333 -0.666992 -44.333 14.166 -93 44.499s-77.334 46.833 -86.001 49.5
c-2.66699 0.666992 -17.334 -6.33301 -44.001 -21c-78 -42.667 -148.333 -63.667 -211 -63c-56.667 0.666992 -103.667 16.334 -141 47.001c-40.667 32.667 -60.334 76.667 -59.001 132c2 72.667 44.667 122 128 148l50 15c3.33301 2.66699 5 5.66699 5 9
c0 2.66699 -7.66699 14.667 -23 36c-17.333 23.333 -27 37.333 -29 42c-11.333 25.333 -16.666 53.666 -15.999 84.999c2 64.667 40 112.667 114 144c53.333 22.667 118 34.334 194 35.001zM449.005 653.002c-18.667 -0.666992 -32.333 -12.998 -41 -36.998
c-0.666992 -2.66699 -1 -5.33398 -1 -8.00098c0 -16.667 12.5 -45.334 37.5 -86.001s41.833 -58.667 50.5 -54c25.333 14 38 41.333 38 82c0 22.667 -8.33301 45 -25 67c-18 24.667 -37.667 36.667 -59 36zM277.006 166.004c40.667 -43.333 80.667 -65.001 120 -65.001
c22.667 0 34 6.66699 34 20c0 4.66699 -2.66699 9.66699 -8 15l-163 164c-1.33301 1.33301 -3 2 -5 2c-8 0 -14.333 -5.33301 -19 -16c-4 -8 -6 -16.667 -6 -26c0 -29.333 15.667 -60.666 47 -93.999z" />
    <glyph glyph-name="quotesingle" unicode="'" horiz-adv-x="174" 
d="M19 635c0.666992 20 8.33203 36.168 22.999 48.501s32 18.166 52 17.499c18 -0.666992 33.833 -7.33398 47.5 -20.001s20.167 -27.667 19.5 -45c-1.33301 -28.667 -24 -73 -68 -133c-15.333 -20.667 -27.333 -30 -36 -28c-2 0.666992 -3 2.33398 -3 5.00098
c0 6 6.16699 22 18.5 48s17.833 40 16.5 42c-47.333 1.33301 -70.666 23 -69.999 65z" />
    <glyph glyph-name="parenleft" unicode="(" 
d="M27 359c0.666992 116.667 54.3301 206.666 160.997 269.999c78 46 159 69 243 69c26 0 39.667 -3 41 -9c0 -1.33301 -12.333 -11.333 -37 -30c-76 -56.667 -115.667 -152.667 -119 -288c-4.66699 -176 32.666 -285.667 111.999 -329c26 -14 38.667 -22.667 38 -26
c-1.33301 -6 -12.666 -9 -33.999 -9c-43.333 0 -93.666 10.667 -150.999 32c-77.333 28.667 -137.666 68.334 -180.999 119.001c-49.333 56.667 -73.666 123.667 -72.999 201z" />
    <glyph glyph-name="parenright" unicode=")" 
d="M41 16c-0.666992 3.33301 11.9941 12.001 37.9941 26.001c80 43.333 117.667 153 113 329c-3.33301 136 -43 232 -119 288c-25.333 18.667 -37.666 28.667 -36.999 30c1.33301 6 15 9 41 9c83.333 0 164 -23 242 -69c106.667 -62.667 160.334 -152.667 161.001 -270
c0.666992 -77.333 -23.666 -144.333 -72.999 -201c-43.333 -50.667 -103.666 -90.334 -180.999 -119.001c-57.333 -21.333 -107.666 -32 -150.999 -32c-21.333 0 -32.666 3 -33.999 9z" />
    <glyph glyph-name="asterisk" unicode="*" horiz-adv-x="234" 
d="M155 597c0 -2 9.5 -8.99805 28.5 -20.998s28.5 -20.333 28.5 -25c0 -5.33301 -3 -8 -9 -8c-4 0 -15 4.66699 -33 14s-28 13 -30 11c-3.33301 -2.66699 -5.33301 -16.334 -6 -41.001c0 -17.333 -3.66699 -26 -11 -26s-12.166 11.5 -14.499 34.5
s-6.16602 34.5 -11.499 34.5s-15.333 -3.83301 -30 -11.5s-24.334 -11.5 -29.001 -11.5c-5.33301 0 -8 3 -8 9s9.5 14.333 28.5 25s28.5 16.667 28.5 18c0 4 -9.33301 11.833 -28 23.5s-28 19.834 -28 24.501c0 6.66699 3.66699 10 11 10
c5.33301 0 16.666 -4.83301 33.999 -14.5s27 -13.834 29 -12.501c4 2.66699 6 10.667 6 24v13c0 19.333 5 29.333 15 30c8.66699 0 13 -8 13 -24v-34c0 -5.33301 1 -8.66602 3 -9.99902c2.66699 -2 12.667 1.33301 30 10s28 13 32 13c6.66699 0 10 -3 10 -9
c0 -4.66699 -9.83301 -12.834 -29.5 -24.501s-29.5 -18.834 -29.5 -21.501z" />
    <glyph glyph-name="plus" unicode="+" horiz-adv-x="458" 
d="M272 450v-154h163l-62 -82h-101v-153h-82v153h-164l62 82h102v153z" />
    <glyph glyph-name="comma" unicode="," horiz-adv-x="200" 
d="M23 75c0.666992 22 8.83301 39.499 24.5 52.499s34.5 19.5 56.5 19.5c19.333 0 36.833 -7 52.5 -21s23.167 -30.667 22.5 -50c-1.33301 -26.667 -16 -60 -44 -100l-38 -54c-12 -17.333 -23.333 -25 -34 -23c-2 0.666992 -3 2.33398 -3 5.00098c0 6.66699 7 24.667 21 54
c13.333 27.333 19 42.333 17 45c-51.333 1.33301 -76.333 25.333 -75 72z" />
    <glyph glyph-name="hyphen" unicode="-" horiz-adv-x="364" 
d="M345 296l-62 -82h-257l62 82h257z" />
    <glyph glyph-name="hyphen" unicode="&#x2010;" horiz-adv-x="364" 
d="M345 296l-62 -82h-257l62 82h257z" />
    <glyph glyph-name="period" unicode="." horiz-adv-x="190" 
d="M22 73c0 20 7 37.167 21 51.5s31 21.5 51 21.5s37.167 -7.16699 51.5 -21.5s21.5 -31.5 21.5 -51.5s-7.33301 -36.833 -22 -50.5s-32 -20.5 -52 -20.5c-19.333 0 -36 7 -50 21s-21 30.667 -21 50z" />
    <glyph glyph-name="slash" unicode="/" horiz-adv-x="410" 
d="M388 516l-75 1l-290 -517l73 1z" />
    <glyph glyph-name="zero" unicode="0" horiz-adv-x="647" 
d="M328 529c78.667 -0.666992 146 -23.666 202 -68.999c60.667 -48 92 -110.333 94 -187c2 -78.667 -28.333 -144.667 -91 -198c-60 -50.667 -130 -75.667 -210 -75c-80.667 0.666992 -149.667 25.667 -207 75c-61.333 52.667 -91 118.667 -89 198
c2 76.667 34 139.667 96 189c58 45.333 126.333 67.666 205 66.999zM250 267.001c1.33301 -152 25.334 -228 72.001 -228c31.333 0 53.666 31.667 66.999 95c8 38 12 82 12 132c0 146 -24.667 220.333 -74 223c-30 1.33301 -51.667 -29.667 -65 -93
c-8.66699 -40 -12.667 -83 -12 -129z" />
    <glyph glyph-name="one" unicode="1" horiz-adv-x="383" 
d="M103 526l209.001 -0.000976562c7.33301 0 11 -5 11 -15v-459c0 -4.66699 5.33301 -13.667 16 -27l16 -21c-0.666992 -2 -6.33398 -3 -17.001 -3h-271c-13.333 0 -20.333 1 -21 3c24 26 36 43 36 51v333c0 23.333 -2 34.333 -6 33c-31.333 -15.333 -47 -22 -47 -20v45
c21.333 18.667 46 45.334 74 80.001z" />
    <glyph glyph-name="two" unicode="2" horiz-adv-x="531" 
d="M264 528c64 0 116.668 -9.00098 158.001 -27.001c56.667 -25.333 85 -65.666 85 -120.999c0 -44 -12 -86 -36 -126c-10 -16.667 -40.667 -56.667 -92 -120l-66 -85c-4.66699 -6.66699 11.666 -10 48.999 -10c48 0 85.333 8.33301 112 25c9.33301 6 15.333 8.66699 18 8
c1.33301 -0.666992 2 -2 2 -4c0 -8 -4.5 -19.5 -13.5 -34.5s-16.833 -24.5 -23.5 -28.5c-4 -2.66699 -15.667 -4 -35 -4h-346c-8 0 -12.667 0.666992 -14 2c-1.33301 2 0.666992 7 6 15l125 196c3.33301 5.33301 5 10 5 14s-2.66699 6.33301 -8 7
c-108 20 -161.333 67 -160 141c1.33301 55.333 28.333 96 81 122c40.667 20 91.667 30 153 30zM158.001 383.999c0 -64 18.333 -96 55 -96c35.333 0 53 32.333 53 97c0 61.333 -18 92 -54 92s-54 -31 -54 -93z" />
    <glyph glyph-name="three" unicode="3" horiz-adv-x="567" 
d="M142 284l88 153.001c3.33301 11.333 3.33301 19 0 23c-6.66699 8.66699 -19.667 10.667 -39 6c-45.333 -10.667 -88.333 -31.334 -129 -62.001c-13.333 -13.333 -22 -20 -26 -20c-1.33301 0 -2 1 -2 3c0 2.66699 1 6.33398 3 11.001l74 162c2 4.66699 4 7 6 7
c0.666992 0 6 -9.66699 16 -29c4 -8 12.333 -12 25 -12h356c9.33301 0 14.333 -1 15 -3c2.66699 -3.33301 0.666992 -9.33301 -6 -18l-127 -175c-0.666992 -1.33301 10.333 -6 33 -14c71.333 -24.667 107 -68.667 107 -132c0 -64.667 -28.333 -113.667 -85 -147
c-46.667 -27.333 -104.667 -41 -174 -41c-60 0 -117.333 12.333 -172 37c-45.333 20.667 -69 36 -71 46c0 5.33301 5 15.833 15 31.5s17.333 24.167 22 25.5c2 1.33301 11 -9.66699 27 -33s24.333 -35.333 25 -36c20.667 -16 47.334 -24 80.001 -24
c67.333 0.666992 101 39.667 101 117c0 66.667 -31 101.667 -93 105c-8 0.666992 -19.333 -0.333008 -34 -3s-25.334 -4 -32.001 -4c-2.66699 0 -4.66699 0.333008 -6 1c-6 3.33301 -5 11.666 3 24.999z" />
    <glyph glyph-name="four" unicode="4" horiz-adv-x="644" 
d="M265 74c0 11.333 -5.33301 16.999 -16 16.999h-196c-10.667 0 -16.667 1 -18 3c-1.33301 2.66699 -0.666016 6 2.00098 10l216 405c4 11.333 11 17 21 17h207c2 0 5.66699 -0.666992 11 -2c0.666992 -2 1 -5.33301 1 -10v-288c0 -9.33301 5 -14 15 -14h84
c13.333 0 20.333 -1 21 -3c0.666992 -0.666992 -10 -20 -32 -58c-4.66699 -11.333 -13.667 -30.666 -27 -57.999c-0.666992 -2 -4.33398 -3 -11.001 -3h-43c-8 0 -12 -4 -12 -12v-34c0 -2.66699 4 -9.66699 12 -21c1.33301 -2 6.5 -5.66699 15.5 -11s13.5 -8.33301 13.5 -9
c-0.666992 -1.33301 -3 -2 -7 -2h-277c-9.33301 0 -14 0.666992 -14 2c4.66699 2.66699 11.5 8.5 20.5 17.5s13.5 15.5 13.5 19.5v34zM259 225.999l0.000976562 96.999c0 12 -2.66699 18.333 -8 19c-4.66699 0.666992 -10.334 -3.66602 -17.001 -12.999l-66 -96
c-6 -8.66699 -9 -15 -9 -19c0 -4.66699 4 -7 12 -7h64c16 0 24 6.33301 24 19z" />
    <glyph glyph-name="five" unicode="5" horiz-adv-x="553" 
d="M529 183c0.666992 -62 -27.001 -109.669 -83.001 -143.002c-46.667 -28 -103 -42 -169 -42c-119.333 0 -201.666 29.333 -246.999 88c-5.33301 5.33301 -1.5 12.833 11.5 22.5s22.167 14.5 27.5 14.5c10 0 19.333 -7.66699 28 -23c5.33301 -10 13.333 -21.667 24 -35
c18.667 -12.667 40.334 -19 65.001 -19c31.333 0.666992 56.666 10.834 75.999 30.501s29 44.834 29 75.501c0 34 -11 61 -33 81s-50.333 30 -85 30c-25.333 0 -52.333 -4.66699 -81 -14v277h436c2 0 3 -1.33301 3 -4c0 -6.66699 -4 -17 -12 -31s-15 -22 -21 -24
c-5.33301 -2 -25.333 0 -60 6c-42 7.33301 -70.667 11 -86 11c-16.667 0 -27.667 -2.66699 -33 -8c-0.666992 -10.667 -1 -18.667 -1 -24v-126c58.667 2 106 -6.33301 142 -25c45.333 -24 68.333 -63.333 69 -118z" />
    <glyph glyph-name="six" unicode="6" horiz-adv-x="622" 
d="M323 -5c-82.667 0 -150.662 23.333 -203.995 70c-56.667 48.667 -85 113.667 -85 195c0 86.667 31.667 153.667 95 201c56.667 43.333 129.667 65 219 65c39.333 0 78.666 -7 117.999 -21c33.333 -12 50.333 -21 51 -27c0.666992 -6.66699 -5 -16 -17 -28
s-20.333 -16.667 -25 -14l-23 28c-18.667 16.667 -47.334 25 -86.001 25s-68.667 -17.667 -90 -53c-15.333 -25.333 -23 -51 -23 -77c0 -6 0.666992 -9 2 -9c-0.666992 -0.666992 -0.333984 -1 0.999023 -1c-16.667 0 -3.83398 2.16699 38.499 6.5s66.5 6.5 72.5 6.5
c60.667 0.666992 112 -13.333 154 -42c48 -32 71.667 -77.333 71 -136c-0.666992 -63.333 -31.334 -112.333 -92.001 -147c-49.333 -28 -108.333 -42 -177 -42zM317.005 35c28 -0.666992 48.666 17.3301 61.999 53.9971c9.33301 25.333 14 55.333 14 90
c0 92.667 -24 139.334 -72 140.001c-27.333 0.666992 -47.666 -16.666 -60.999 -51.999c-9.33301 -25.333 -14 -54.666 -14 -87.999c-0.666992 -95.333 23 -143.333 71 -144z" />
    <glyph glyph-name="seven" unicode="7" horiz-adv-x="544" 
d="M28 418l41.001 139.001c2 6.66699 4.33301 10 7 10c2 0 4.66699 -3.33301 8 -10s5.33301 -10.334 6 -11.001c9.33301 -13.333 18.333 -20 27 -20h374c14 0 23 -1.33301 27 -4c4.66699 -3.33301 4.66699 -11 0 -23l-170 -417c-10 -24.667 -13.333 -41 -10 -49
c2 -4.66699 8.66699 -10.834 20 -18.501l17 -11.5c0 -1.33301 -4 -2 -12 -2h-307c-8 0 -12 0.666992 -12 2c0 2 4.83301 5.33301 14.5 10s14.834 7.33398 15.501 8.00098c10 8 17 18 21 30l135 393c5.33301 15.333 5.66602 25 0.999023 29c-6 5.33301 -16.333 8 -31 8
c-30.667 0 -62.334 -7.66699 -95.001 -23c-13.333 -6 -32 -18.667 -56 -38c-15.333 -12 -23 -15.667 -23 -11c0 1.33301 0.666992 4.33301 2 9z" />
    <glyph glyph-name="eight" unicode="8" horiz-adv-x="535" 
d="M292 528c56 -0.666992 102.996 -9.66699 140.996 -27c51.333 -23.333 77 -59.666 77 -108.999c0 -44 -29.333 -77.333 -88 -100c-19.333 -7.33301 -29.666 -12 -30.999 -14c0 -2 12.667 -9 38 -21c27.333 -14 43 -23 47 -27c20 -20 30 -46 30 -78
c0.666992 -56.667 -26.666 -98.667 -81.999 -126c-41.333 -20.667 -93.666 -31 -156.999 -31c-156 0 -233.667 47 -233 141c0 38.667 25.667 69.667 77 93c18 8 27 13 27 15c-2.66699 2.66699 -12 7.66699 -28 15c-53.333 26 -80.666 62.667 -81.999 110
c-1.33301 57.333 30 100 94 128c48 21.333 104.667 31.666 170 30.999zM319.996 493c-24.667 0 -44.832 -9.00098 -60.499 -27.001s-23.834 -39.333 -24.501 -64c-0.666992 -28.667 7 -52.5 23 -71.5s38 -27.833 66 -26.5c21.333 0.666992 39 12 53 34
c12.667 19.333 18.667 40.333 18 63c-1.33301 60.667 -26.333 91.334 -75 92.001zM219.998 213.999c-45.333 0 -70.6689 -29 -76.002 -87c-2.66699 -26 2.83301 -48 16.5 -66s33.834 -26.667 60.501 -26c49.333 0.666992 75 30.667 77 90
c0.666992 24 -6.16602 44.833 -20.499 62.5s-33.5 26.5 -57.5 26.5z" />
    <glyph glyph-name="nine" unicode="9" horiz-adv-x="603" 
d="M295 529c83.333 0 151.668 -23.333 205.001 -70c56.667 -48.667 85 -114 85 -196c0 -85.333 -32 -152 -96 -200c-57.333 -43.333 -130 -65 -218 -65c-42.667 0 -87.334 9 -134.001 27c-22.667 8.66699 -34.334 15.667 -35.001 21
c-0.666992 6.66699 5.16602 15.834 17.499 27.501s20.5 16.5 24.5 14.5l23 -28c18.667 -16.667 47.334 -25 86.001 -25s68.667 17.667 90 53c15.333 25.333 23 51 23 77v10h-3c14 0 0.833008 -2.33301 -39.5 -7s-64.166 -7 -71.499 -7
c-60.667 -0.666992 -112 13.666 -154 42.999c-48 32.667 -71.667 78 -71 136c0.666992 64 31 113 91 147c48.667 28 107.667 42 177 42zM302.002 489c-28 0.666992 -48.666 -17.3301 -61.999 -53.9971c-9.33301 -25.333 -14 -55.333 -14 -90
c0 -92.667 24 -139.334 72 -140.001c27.333 -0.666992 47.666 16.666 60.999 51.999c9.33301 25.333 14 54.666 14 87.999c0.666992 95.333 -23 143.333 -71 144z" />
    <glyph glyph-name="colon" unicode=":" horiz-adv-x="196" 
d="M22 292c0 20 7 37.167 21 51.5s31 21.5 51 21.5s37.167 -7.16699 51.5 -21.5s21.5 -31.5 21.5 -51.5s-7.33301 -36.833 -22 -50.5s-32 -20.5 -52 -20.5c-19.333 0 -36 7 -50 21s-21 30.667 -21 50zM27 72c0 20 7 37.167 21 51.5s31 21.5 51 21.5s37 -7.16699 51 -21.5
s21 -31.5 21 -51.5s-7.33301 -36.667 -22 -50s-32 -20 -52 -20c-19.333 0 -35.833 6.83301 -49.5 20.5s-20.5 30.167 -20.5 49.5z" />
    <glyph glyph-name="semicolon" unicode=";" horiz-adv-x="206" 
d="M22 300c0 22 7.66602 40.833 22.999 56.5s34 23.5 56 23.5s41 -7.83301 57 -23.5s24 -34.5 24 -56.5s-8.16699 -40.667 -24.5 -56s-35.5 -23 -57.5 -23c-21.333 0 -39.666 7.83301 -54.999 23.5s-23 34.167 -23 55.5zM21.999 69
c0.666992 22 9.00098 39.668 25.001 53.001s35 19.666 57 18.999c19.333 -0.666992 36.666 -7.83398 51.999 -21.501s22.666 -30.167 21.999 -49.5c-1.33301 -26 -16 -59.333 -44 -100l-31 -47c-17.333 -22.667 -30.666 -33 -39.999 -31c-2 0.666992 -3 2.33398 -3 5.00098
c0 6 7 24 21 54c13.333 28 19 43.333 17 46c-52 1.33301 -77.333 25.333 -76 72z" />
    <glyph glyph-name="less" unicode="&#x3c;" horiz-adv-x="486" 
d="M19 295l421 170l31 -77l-337 -135l337 -136l-31 -76l-421 170v84z" />
    <glyph glyph-name="equal" unicode="=" horiz-adv-x="581" 
d="M445 196l-62 -82h-357l62 82h357zM555 396l-62 -82h-357l62 82h357z" />
    <glyph glyph-name="greater" unicode="&#x3e;" horiz-adv-x="486" 
d="M471 295l-421 170l-31 -77l337 -135l-337 -136l31 -76l421 170v84z" />
    <glyph glyph-name="question" unicode="?" horiz-adv-x="453" 
d="M223 698c50 -0.666992 95.3311 -12.333 135.998 -35c48.667 -27.333 73.334 -64 74.001 -110c0.666992 -40.667 -13 -79.334 -41 -116.001c-4 -5.33301 -31 -32.333 -81 -81c-29.333 -28.667 -44 -54.667 -44 -78c0 -12.667 4.33301 -23.834 13 -33.501
s19.334 -14.167 32.001 -13.5c21.333 0.666992 35 11.667 41 33l6 35c4.66699 0 10.834 -5.33301 18.501 -16s11.5 -18.667 11.5 -24c0 -9.33301 -12.333 -21.666 -37 -36.999c-30.667 -19.333 -65.334 -28.666 -104.001 -27.999c-39.333 0.666992 -71.333 10.667 -96 30
c-27.333 21.333 -41 51 -41 89c0 34.667 20.667 74.667 62 120c-25.333 7.33301 -51 14.333 -77 21c-46 19.333 -68.667 52.333 -68 99c0.666992 48.667 22 86 64 112c36 22.667 79.667 33.667 131 33zM141.998 89.001c0 24 8.33301 44.333 25 61s37 25 61 25
c23.333 0 43.333 -8.5 60 -25.5s25 -37.167 25 -60.5s-8.33301 -43.333 -25 -60s-36.667 -25 -60 -25c-24 0 -44.333 8.16699 -61 24.5s-25 36.5 -25 60.5zM164.998 659.001c-37.333 0 -55.999 -33 -55.999 -99c0 -23.333 4.33301 -43.333 13 -60
c10.667 -20.667 26.667 -31 48 -31c35.333 0 53.333 33.667 54 101c0 22.667 -4 42 -12 58c-10.667 20.667 -26.334 31 -47.001 31z" />
    <glyph glyph-name="at" unicode="@" horiz-adv-x="768" 
d="M678 163c-68 -115.333 -165.669 -173.002 -293.002 -173.002c-94 0 -173.333 32.5 -238 97.5s-97 144.5 -97 238.5s32.333 173.333 97 238s144 97 238 97s173.333 -32.333 238 -97s97 -144 97 -238c0 -31.333 -4 -61.666 -12 -90.999h-298
c-1.33301 0 -2.66602 0.5 -3.99902 1.5s-2.33301 1.5 -3 1.5c-2 0 -12 -3 -30 -9c-16 -3.33301 -31.333 -5 -46 -5c-35.333 0 -61.666 9 -78.999 27c-8.66699 8.66699 -13 18.334 -13 29.001c0 18 12 37.667 36 59v71c0 6 1.66699 9 5 9l6 -9c4 -6 7 -8.66699 9 -8
c32.667 10.667 63.667 16 93 16c60.667 0 102 -16.333 124 -49c6.66699 -10 10 -18 10 -24v-94h144c6.66699 25.333 10 50.333 10 75c0 80 -27.833 147.667 -83.5 203s-123.5 83 -203.5 83s-147.833 -27.667 -203.5 -83s-83.5 -123 -83.5 -203s27.833 -147.833 83.5 -203.5
s123.5 -83.5 203.5 -83.5c100 0 178.333 41.333 235 124h58zM371.998 331.998c-14.667 -2 -22 -14.002 -22 -36.002c0 -10 2.33301 -21 7 -33c7.33301 -10 15 -14.667 23 -14c7.33301 0 13.333 2.66699 18 8c3.33301 10.667 5 20.334 5 29.001
c0 14.667 -4.66699 27.334 -14 38.001c-5.33301 6 -11 8.66699 -17 8zM339.998 394.996c-22.667 0 -40.668 -11.002 -54.001 -33.002c-2.66699 -7.33301 -3.66699 -11.666 -3 -12.999c0 -2.66699 1 -4 3 -4c34.667 4.66699 57.667 7 69 7
c8.66699 -1.33301 20.334 -1.66602 35.001 -0.999023c0.666992 0.666992 1 1.66699 1 3c0 9.33301 -6 18.5 -18 27.5s-23 13.5 -33 13.5z" />
    <glyph glyph-name="A" unicode="A" horiz-adv-x="925" 
d="M190 701l437.998 -0.999023c7.33301 0 11 -1 11 -3l-30 -29c-10.667 -10 -11.667 -25.667 -3 -47l217 -541c4 -9.33301 12 -22.333 24 -39c2 -2.66699 9.83301 -9.33398 23.5 -20.001s20.5 -16.334 20.5 -17.001c0 -1.33301 -1.66699 -2 -5 -2h-381
c-4.66699 0 -7 0.666992 -7 2l16.5 15c11 10 16.833 17.667 17.5 23c0 3.33301 -3 12 -9 26l-48 112c-8 19.333 -29.333 29 -64 29h-133c-17.333 0 -29 -1 -35 -3c-9.33301 -3.33301 -16.666 -11.333 -21.999 -24l-42 -106c-6 -14.667 -8.33301 -25.667 -7 -33
c0.666992 -6 8.83398 -13.667 24.501 -23s23.5 -14.333 23.5 -15c0 -2 -4.33301 -3 -13 -3h-162c-5.33301 0 -8 1 -8 3c0 0.666992 10.667 9.33398 32 26.001c5.33301 4 13.666 13.333 24.999 28l213 425c8.66699 17.333 13 27.666 13 30.999c0 6.66699 -3 15.334 -9 26.001
l-46 82c-9.33301 16.667 -21.666 30 -36.999 40c-32.667 21.333 -49 33 -49 35s3.66699 3 11 3zM280.998 248.001h127c15.333 0 24 1.66699 26 5c2 2.66699 0.666992 12 -4 28l-67 149c-5.33301 11.333 -11.333 17 -18 17c-7.33301 0 -13.333 -5.33301 -18 -16l-67 -151
c-7.33301 -16 -9 -26 -5 -30c1.33301 -1.33301 10 -2 26 -2z" />
    <glyph glyph-name="B" unicode="B" horiz-adv-x="798" 
d="M39 702l457 -0.00195312c68 0 126.333 -11.333 175 -34c68.667 -32 103 -82.667 103 -152c0 -68 -34.333 -117.667 -103 -149c-22 -10 -34 -16.333 -36 -19c0 -3.33301 9.66699 -8.66602 29 -15.999c34 -12 60.5 -32.667 79.5 -62s28.5 -62.333 28.5 -99
c0 -58.667 -25.667 -103 -77 -133c-42.667 -25.333 -95 -38 -157 -38l-485 -1c-6.66699 0 -10 1 -10 3c24.667 18.667 37 34.334 37 47.001v577c0 12.667 -9 26 -27 40c-21.333 16.667 -32 26.667 -32 30c0 4 6 6 18 6zM492 521.998
c-0.666992 32 -11.666 62.334 -32.999 91.001c-23.333 31.333 -50.333 47 -81 47c-20.667 0 -31 -10 -31 -30v-229c0 -16.667 7 -25.667 21 -27c27.333 -2.66699 52.333 4.66602 75 21.999c33.333 25.333 49.666 67.333 48.999 126zM492.001 181.999
c-1.33301 34 -12.667 66 -34 96c-24 33.333 -52.333 50 -85 50c-22 0 -33 -11 -33 -33v-226c0 -24 13 -36 39 -36c34.667 0 63 16.667 85 50c20 30 29.333 63 28 99z" />
    <glyph glyph-name="C" unicode="C" horiz-adv-x="688" 
d="M652 711l-0.000976562 -203.997c0 -6.66699 -0.666992 -10.334 -2 -11.001l-19 39c-36 75.333 -80.667 112.666 -134 111.999c-60.667 -0.666992 -106.334 -35.667 -137.001 -105c-22 -49.333 -34 -110 -36 -182c-2.66699 -80.667 8 -149 32 -205
c32 -74.667 83.667 -111.667 155 -111c38.667 0 71 22 97 66c14.667 24 25.334 50.333 32.001 79c5.33301 20.667 9.33301 31 12 31c1.33301 -1.33301 2 -5 2 -11v-223c0 -6.66699 -1 -10 -3 -10c-0.666992 0 -7.16699 6.66699 -19.5 20s-21.166 20 -26.499 20
c-16 0 -42 -3.33301 -78 -10c-33.333 -6.66699 -59.333 -9.33398 -78 -8.00098c-125.333 6.66699 -223.333 36.667 -294 90c-82.667 62 -122.667 153 -120 273c2 116.667 53.333 205 154 265c79.333 47.333 173.666 71 282.999 71c30 0 75 -8 135 -24
c2.66699 0 9.83398 7.66699 21.501 23s18.5 23 20.5 23s3 -2.66699 3 -8z" />
    <glyph glyph-name="D" unicode="D" horiz-adv-x="918" 
d="M38 699h430c120 0 217.667 -26 293 -78c88 -60 131.667 -147.333 131 -262c-0.666992 -126.667 -45 -221.334 -133 -284.001c-70.667 -50 -159 -75 -265 -75h-447c-4.66699 0 -7 1 -7 3c2 1.33301 9.66699 8.33301 23 21c9.33301 8.66699 14 17.667 14 27v586
c0 6.66699 -7 17.334 -21 32.001c-19.333 20 -29 29 -29 27c0 2 3.66699 3 11 3zM584 359c-2 100.667 -26.333 177.333 -73 230c-35.333 39.333 -74.333 59 -117 59c-24.667 0 -37 -6 -37 -18v-568c0 -16.667 15 -25 45 -25c44.667 0 84 22 118 66
c44.667 58 66 143.333 64 256z" />
    <glyph glyph-name="E" unicode="E" horiz-adv-x="704" 
d="M37 700l556.002 0.000976562c20 0 34.333 2 43 6c3.33301 1.33301 9.33301 7.83301 18 19.5s13.667 17.5 15 17.5c1.33301 -0.666992 2 -3.33398 2 -8.00098v-143c0 -10 -1 -15 -3 -15c-0.666992 0 -6.83398 9.33301 -18.501 28s-19.5 29.667 -23.5 33
c-18.667 14.667 -51.334 22 -98.001 22h-99c-22.667 0 -36.667 -2.5 -42 -7.5s-10.333 -18.667 -15 -41s-7 -38.5 -7 -48.5v-189h181c29.333 0 50 3 62 9c5.33301 2.66699 13.666 10 24.999 22c2.66699 2.66699 8 9.66699 16 21c6.66699 9.33301 11.334 14 14.001 14
c1.33301 -0.666992 2 -2.66699 2 -6v-165c0 -4 -1 -6 -3 -6c-2.66699 0 -9 6.33301 -19 19l-23 30c-11.333 14.667 -55 22 -131 22h-124v-271c0 -13.333 6.66699 -20 20 -20h121c70.667 0 111.334 7.33301 122.001 22c4.66699 6.66699 12 19 22 37
c7.33301 13.333 12 20 14 20c1.33301 -0.666992 2 -3 2 -7v-158c0 -6.66699 -1 -10 -3 -10c-2 2 -11 14.333 -27 37c-8.66699 12 -28 18 -58 18h-534c-4.66699 0 -7.33398 0.666992 -8.00098 2c1.33301 2 7 5.66699 17 11l19 10c10 8 15 17 15 27v575
c0 14 -7.33301 27.667 -22 41c-20.667 19.333 -32 29.333 -34 30c0.666992 1.33301 2.66699 2 6 2z" />
    <glyph glyph-name="F" unicode="F" horiz-adv-x="698" 
d="M44 2c-4.66699 0 -7.33105 0.666992 -7.99805 2c1.33301 2 7 5.66699 17 11l19 10c10 8 15 17 15 27v575c0 14 -7.33301 27.667 -22 41c-20.667 19.333 -32 29.333 -34 30c0.666992 1.33301 2.66699 2 6 2h556c20 0 34.333 2 43 6
c3.33301 1.33301 9.33301 7.83301 18 19.5s13.667 17.5 15 17.5c1.33301 -0.666992 2 -3.33398 2 -8.00098v-143c0 -10 -1 -15 -3 -15c-0.666992 0 -6.83398 9.33301 -18.501 28s-19.5 29.667 -23.5 33c-18.667 14.667 -51.334 22 -98.001 22h-99
c-22.667 0 -36.667 -2.5 -42 -7.5s-10.333 -18.667 -15 -41s-7 -38.5 -7 -48.5v-189h181c29.333 0 50 3 62 9c5.33301 2.66699 13.666 10 24.999 22c2.66699 2.66699 8 9.66699 16 21c6.66699 9.33301 11.334 14 14.001 14c1.33301 -0.666992 2 -2.66699 2 -6v-165
c0 -4 -1 -6 -3 -6c-2.66699 0 -9 6.33301 -19 19l-23 30c-11.333 14.667 -55 22 -131 22h-124v-279c0 -13.333 4.66699 -22.666 14 -27.999c18.667 -16 28 -23.333 28 -22c0 -2 -3.33301 -3 -10 -3h-353z" />
    <glyph glyph-name="G" unicode="G" horiz-adv-x="825" 
d="M740 698l-0.000976562 -181.001c0 -5.33301 -1.33301 -8 -4 -8c-3.33301 0 -8 6.33301 -14 19c-41.333 90 -103.333 133.667 -186 131c-72 -2 -127.667 -35.333 -167 -100c-32.667 -54 -49 -119.667 -49 -197c0 -200.667 56.667 -310.667 170 -330
c8 -1.33301 12 6.33398 12 23.001v240c0 9.33301 -9 20 -27 32c-20.667 14 -31 22 -31 24c0.666992 1.33301 2.33398 2 5.00098 2h347c6 0 9 -0.666992 9 -2c0 -0.666992 -5.16699 -4.5 -15.5 -11.5s-16.166 -11.167 -17.499 -12.5c-11.333 -14.667 -17 -27.667 -17 -39
v-279c0 -6 -1 -9 -3 -9l-15.5 13.5c-10.333 9 -18.166 13.5 -23.499 13.5c10.667 0 16 -0.666992 16 -2s-10.333 -3.33301 -31 -6c-102 -14 -181.333 -21 -238 -21c-114 0 -209.333 26.667 -286 80c-94 65.333 -140.333 161.333 -139 288
c1.33301 108 50.666 193 147.999 255c83.333 54 182 81 296 81c31.333 0 77.666 -6.66699 138.999 -20s87 -20 77 -20c6 0 14.667 7.16699 26 21.5l17 21.5c1.33301 -0.666992 2 -3 2 -7z" />
    <glyph glyph-name="H" unicode="H" horiz-adv-x="949" 
d="M585 72l-3.99805 240.998c0 11.333 -35.333 17 -106 17c-67.333 0 -101.333 -6.66699 -102 -20l-7 -244c-0.666992 -13.333 2.33301 -24 9 -32c0.666992 -0.666992 7 -5.66699 19 -15c10 -8 15 -12.667 15 -14c0 -2 -2.66699 -3 -8 -3h-342c-4.66699 0 -7 0.666992 -7 2
c0 0.666992 8.66699 8.66699 26 24c10.667 10 16 20 16 30l-10 571c0 13.333 -6 26 -18 38c-0.666992 0 -12.334 9 -35.001 27c0 2.66699 4.66699 4 14 4h373c4.66699 0 7 -1 7 -3c-10 -10 -19.833 -20.333 -29.5 -31s-14.834 -23.667 -15.501 -39l-6 -247
c0 -8.66699 34.333 -13 103 -13s103 4.33301 103 13l-3 251c0 14.667 -6 27 -18 37c-3.33301 2.66699 -11.333 8.33398 -24 17.001c-8 5.33301 -12 9 -12 11c0 2.66699 5 4 15 4h372c4.66699 0 7 -1 7 -3c-10 -10 -19.667 -20.167 -29 -30.5s-14.333 -23.5 -15 -39.5
l-17 -567c0 -5.33301 4 -13.333 12 -24c1.33301 -2 7.33301 -7.16699 18 -15.5s16 -12.833 16 -13.5c0 -2 -2.66699 -3 -8 -3h-342c-4.66699 0 -7 1 -7 3l27 26c8.66699 8.66699 13 22.334 13 41.001z" />
    <glyph glyph-name="I" unicode="I" horiz-adv-x="459" 
d="M53 702l375 0.000976562c4.66699 0 7 -1 7 -3c0 -1.33301 -6 -7.5 -18 -18.5s-18.667 -17.833 -20 -20.5c-4 -8 -6.33301 -18.667 -7 -32l-17 -570c0 -5.33301 3.66699 -13.333 11 -24c1.33301 -1.33301 7.5 -6.33301 18.5 -15s16.5 -13.334 16.5 -14.001
c0 -2 -2.66699 -3 -8 -3h-344c-4.66699 0 -7 1 -7 3l27 25.5c9.33301 9 14 18.167 14 27.5l-9 574c0 16 -6 28.667 -18 38c-22.667 18 -34.667 27.333 -36 28c0 2.66699 5 4 15 4z" />
    <glyph glyph-name="J" unicode="J" horiz-adv-x="629" 
d="M221 700l376.997 0.000976562c4.66699 0 7 -0.666992 7 -2c0 -0.666992 -6.66699 -6.33398 -20 -17.001s-20.666 -16.667 -21.999 -18c-8.66699 -8.66699 -13 -23 -13 -43v-351c0 -90.667 -37.667 -160.667 -113 -210c-63.333 -41.333 -143 -62.666 -239 -63.999
c-13.333 0 -33.166 2.16699 -59.499 6.5s-45.833 6.5 -58.5 6.5c-8.66699 0 -18 -7 -28 -21c-6.66699 -10 -11.334 -15 -14.001 -15s-4 5.33301 -4 16v183c0 5.33301 1 8 3 8c3.33301 0 7 -4.66699 11 -14c6 -14 18.333 -41 37 -81c20 -32 46.333 -48.333 79 -49
s57.667 14 75 44c14.667 24.667 22 54.334 22 89.001v463c0 17.333 -4 30.666 -12 39.999c-1.33301 2 -7.66602 6.66699 -18.999 14s-17 11.666 -17 12.999c0.666992 1.33301 3.33398 2 8.00098 2z" />
    <glyph glyph-name="K" unicode="K" horiz-adv-x="960" 
d="M31 701h380.998c6 0 9 -0.666992 9 -2c0 -2 -6 -6.66699 -18 -14c-14 -8.66699 -21.667 -13.667 -23 -15c-12 -13.333 -18 -25 -18 -35v-237c0 -17.333 3.33301 -26 10 -26c12 0 25.333 7.33301 40 22l245 241c9.33301 13.333 14.333 23.666 15 30.999
c0 6.66699 -5 14 -15 22l-15 12c0.666992 1.33301 3 2 7 2h240c9.33301 0 14.333 -0.666992 15 -2c0 -3.33301 -13.667 -8.66602 -41 -15.999l-48.5 -14c-16.333 -4.66699 -38.5 -14.334 -66.5 -29.001l-135 -106c-15.333 -12 -23 -21 -23 -27c0 -16 2.66699 -28.333 8 -37
l241 -387c8.66699 -14 21.667 -29.667 39 -47c4 -4 14 -9 30 -15c13.333 -5.33301 20 -11.666 20 -18.999c-0.666992 -1.33301 -3 -2 -7 -2h-401c-7.33301 0 -11 0.666992 -11 2l16 11c10 7.33301 15.333 13.666 16 18.999c0.666992 8 -1.66602 16 -6.99902 24l-133 194
c-16.667 24.667 -28.667 36.334 -36 35.001c-5.33301 -0.666992 -8 -8 -8 -22v-212c0 -13.333 5.33301 -24.333 16 -33l16 -10c8.66699 -5.33301 10.667 -8 6 -8h-346c-2.66699 0 -4 0.333008 -4 1c6.66699 4 14.334 9.33301 23.001 16c10 9.33301 15 19 15 29l-9 588
c0 6.66699 -7.66699 19.667 -23 39c-1.33301 1.33301 -6 5.33301 -14 12s-12 11 -12 13c0.666992 1.33301 2.66699 2 6 2z" />
    <glyph glyph-name="L" unicode="L" horiz-adv-x="707" 
d="M386 670c-9.33301 -11.333 -14.001 -28.001 -14.001 -50.001v-556c0 -13.333 6.66699 -20 20 -20h121c71.333 0 112 7 122 21c4.66699 6.66699 12 19 22 37c7.33301 13.333 12 20 14 20c1.33301 -0.666992 2 -3 2 -7v-157c0 -6.66699 -1 -10 -3 -10
c-2 2 -11 14.333 -27 37c-8.66699 12 -28 18 -58 18h-534c-4.66699 0 -7 0.666992 -7 2c1.33301 2 6.33301 5.33301 15 10l21 11c9.33301 8 14 17 14 27v575c0 14.667 -7.33301 28.334 -22 41.001l-34 30c0.666992 1.33301 2.66699 2 6 2h365c3.33301 0 5 -0.666992 5 -2
c-1.33301 -2 -5.66602 -6.66699 -12.999 -14z" />
    <glyph glyph-name="M" unicode="M" horiz-adv-x="1062" 
d="M34 701l405.999 0.00195312c7.33301 0 11 -1 11 -3l-19 -13c-12.667 -8.66699 -19.334 -15 -20.001 -19c-0.666992 -10.667 0.666016 -20 3.99902 -28l99 -228c2.66699 -6.66699 5.66699 -13.667 9 -21s8.33301 -11.333 15 -12c4 -0.666992 8.5 2.83301 13.5 10.5
s7.83301 13.834 8.5 18.501l85 217c8 20.667 8.66699 35 2 43c-2.66699 3.33301 -11.834 9.5 -27.501 18.5s-23.5 13.833 -23.5 14.5c0.666992 1.33301 2.66699 2 6 2h410c6.66699 0 10.334 -0.666992 11.001 -2c0 -0.666992 -5.5 -4.33398 -16.5 -11.001
s-17.167 -10.667 -18.5 -12c-7.33301 -6.66699 -12 -11.334 -14 -14.001c-3.33301 -5.33301 -5 -12 -5 -20l-14 -573c-0.666992 -16 1 -27.667 5 -35s13 -14 27 -20c11.333 -5.33301 17.333 -8.33301 18 -9c-1.33301 -1.33301 -5.66602 -2 -12.999 -2l-342 -1
c-4 0 -6 0.666992 -6 2c1.33301 2.66699 5.33301 5.66699 12 9l16 8c9.33301 6.66699 14 16.667 14 30v427c0 10 -0.333008 16.333 -1 19c-1.33301 5.33301 -5.66602 8 -12.999 8c-8.66699 0 -17.667 -10 -27 -30l-211 -459c-2.66699 -8.66699 -7.33398 -13 -14.001 -13
c-6 0 -11 4 -15 12l-233 464c-7.33301 14 -14.666 19.667 -21.999 17c-3.33301 -1.33301 -4.66602 -15.333 -3.99902 -42l7 -392c0 -10.667 1.66699 -18.334 5 -23.001c6 0 12.833 -3.66699 20.5 -11s13.167 -12 16.5 -14c8 -4 12.333 -6.66699 13 -8
c-0.666992 -1.33301 -3 -2 -7 -2h-150c-8 0 -12 0.666992 -12 2c0 0.666992 5.16699 4.33398 15.5 11.001s16.166 10.667 17.499 12c8 8.66699 12.333 20 13 34l21 525c0.666992 17.333 -9.66602 39.666 -30.999 66.999c-2.66699 4 -13 12.333 -31 25l-26 18c0 2 5 3 15 3z
" />
    <glyph glyph-name="N" unicode="N" horiz-adv-x="801" 
d="M53 702l421.002 -0.00292969c3.33301 0 5 -0.666992 5 -2c-2.66699 -1.33301 -12.334 -8 -29.001 -20c-13.333 -6 -20 -14.333 -20 -25c0 -3.33301 1 -6.66602 3 -9.99902l198 -336c10 -17.333 18 -25 24 -23c8 2.66699 11.667 11.667 11 27l-10 328
c-0.666992 17.333 -13.667 35.333 -39 54c-3.33301 2 -6.33301 4 -9 6c0.666992 1.33301 3 2 7 2h156c2.66699 0 4.33398 -0.333008 5.00098 -1c0 -1.33301 -6.33301 -6 -19 -14c-14.667 -8.66699 -22.667 -13.667 -24 -15c-10.667 -10 -16.334 -23 -17.001 -39l-18 -574
c0 -9.33301 3.33301 -20.333 10 -33c2 -3.33301 8 -8 18 -14l14 -9c-0.666992 -1.33301 -3.33398 -2 -8.00098 -2h-277c-8 0 -12 0.666992 -12 2l12 10c7.33301 6 11.333 12.333 12 19c0.666992 6 -3.66602 16.667 -12.999 32l-264 435c-12 20 -20.667 28.333 -26 25
c-6 -4 -9 -15 -9 -33l6 -440c0 -11.333 5.66699 -21.333 17 -30c1.33301 -1.33301 7.33301 -4.66602 18 -9.99902s16 -8.33301 16 -9c-0.666992 -0.666992 -3 -1 -7 -1h-142c-6 0 -9 0.666992 -9 2c1.33301 1.33301 5.33301 3.66602 12 6.99902l13 6
c6.66699 4.66699 11 8.33398 13 11.001c3.33301 6 5.33301 15 6 27l22 516c0.666992 22.667 -7.33301 47.334 -24 74.001c-2.66699 4.66699 -14.334 12.667 -35.001 24c-17.333 10 -26 20 -26 30c0 2 6 3 18 3z" />
    <glyph glyph-name="O" unicode="O" horiz-adv-x="875" 
d="M33 356c1.33301 104 45.0029 189.001 131.003 255.001c79.333 60.667 172.333 91 279 91c107.333 0 200.333 -30.333 279 -91c85.333 -66 128.666 -151 129.999 -255c1.33301 -106.667 -41.334 -194.334 -128.001 -263.001c-80.667 -64 -175.667 -95.667 -285 -95
c-108 0.666992 -201.667 33 -281 97c-84.667 68.667 -126.334 155.667 -125.001 261zM440.003 51.001c39.333 0 68.667 37.665 88 112.998c14.667 56.667 22 122.667 22 198c0 58 -6 112 -18 162c-18 76 -47.667 114.333 -89 115c-34 0.666992 -61 -31 -81 -95
c-17.333 -55.333 -26 -116.666 -26 -183.999c0 -79.333 7 -146.666 21 -201.999c18 -71.333 45.667 -107 83 -107z" />
    <glyph glyph-name="P" unicode="P" horiz-adv-x="869" 
d="M41 698h502c86 0 154 -18.667 204 -56c56 -41.333 85.333 -103.666 88 -186.999c2 -60.667 -16.333 -112.667 -55 -156c-52 -58.667 -132 -88 -240 -88h-185v-164c0 -10.667 5 -20 15 -28c0.666992 -0.666992 6 -3.33398 16 -8.00098
c7.33301 -4.66699 11.333 -7.66699 12 -9c-0.666992 -1.33301 -3 -2 -7 -2h-343c-3.33301 0 -5 0.666992 -5 2s4 4.83301 12 10.5s12.333 8.83398 13 9.50098c10 10 15 19.667 15 29v598c0 8 -10.333 18 -31 30c-16 9.33301 -24 14.666 -24 15.999c0 2 4.33301 3 13 3z
M356 663l3.00098 -409c9.33301 -2 19.666 -3 30.999 -3c58.667 0 101 24.333 127 73c22 40 31.667 91 29 153c-4.66699 121.333 -68 183.333 -190 186z" />
    <glyph glyph-name="Q" unicode="Q" horiz-adv-x="939" 
d="M34 374c0 106 46.6689 189.336 140.002 250.003c80 52 176 78 288 78c114 0 212.333 -27.333 295 -82c95.333 -63.333 143 -149.333 143 -258c0 -82 -26 -152 -78 -210c-32.667 -36.667 -80.667 -71.334 -144 -104.001c-51.333 -26.667 -77 -42.667 -77 -48
c0 -10 27.333 -20.333 82 -31c52 -10 86.667 -14 104 -12c26 2.66699 48 14.334 66 35.001c12 14 19.333 27 22 39c0.666992 3.33301 3.66699 5 9 5c4 0 9.66699 -1.33301 17 -4s10 -5.66699 8 -9c-17.333 -29.333 -46 -58 -86 -86c-57.333 -40 -121 -60.667 -191 -62
c-39.333 -0.666992 -100.666 8.66602 -183.999 27.999c-88.667 20 -152.334 30.667 -191.001 32c-36.667 1.33301 -62.667 -13.334 -78 -44.001c-4 -11.333 -12.667 -15.666 -26 -12.999c-4 0.666992 -6 2.66699 -6 6c0 7.33301 9.66699 20.333 29 39
c15.333 15.333 28.666 26.333 39.999 33c27.333 17.333 59 31.666 95 42.999c22.667 7.33301 33.667 13.333 33 18c-0.666992 3.33301 -28.334 15.666 -83.001 36.999c-151.333 58 -227 164.667 -227 320zM460.002 657.003c-54 0.666992 -94.002 -35.668 -120.002 -109.001
c-17.333 -48 -27 -107.333 -29 -178c-6.66699 -208.667 43.333 -314.667 150 -318c58 -2 100 38 126 120c16.667 52.667 25.334 116.667 26.001 192c0.666992 70.667 -11.666 134.667 -36.999 192c-29.333 66.667 -68 100.334 -116 101.001z" />
    <glyph glyph-name="R" unicode="R" horiz-adv-x="949" 
d="M394 295c-5.33301 -2 -7.99805 -11.334 -7.99805 -28.001v-240l39 -25h-355l27 28l-1 601c0 16.667 -10.667 31 -32 43c-10.667 6 -21.334 11.667 -32.001 17c-0.666992 6.66699 3.66602 10 12.999 10h620c63.333 0 115.333 -14 156 -42
c46.667 -32 70.667 -78.333 72 -139c1.33301 -66 -21.667 -113.667 -69 -143c-18 -11.333 -46 -22.333 -84 -33c-30 -8.66699 -45 -15 -45 -19c0 -2.66699 1.33301 -6.33398 4 -11.001l168 -280l49 -32l-380 -1c-4 0 -2.16699 2.33301 5.5 7s12.834 8.33398 15.501 11.001
c5.33301 6.66699 3.66602 17.334 -5.00098 32.001l-137 229c-7.33301 12.667 -14.333 17.667 -21 15zM393.002 658.999l-2 -279c0 -6 18.667 -9 56 -9c94.667 0 142 43 142 129c0 108 -65.333 161 -196 159z" />
    <glyph glyph-name="S" unicode="S" horiz-adv-x="692" 
d="M659 698l0.00585938 -177.999c0 -8 -1.66699 -12 -5 -12c-2.66699 0 -5.33398 2.33301 -8.00098 7c-42 94 -109.667 142.667 -203 146c-32 1.33301 -60.333 -8.33398 -85 -29.001c-26.667 -22 -38.334 -48.667 -35.001 -80c3.33301 -32.667 11.333 -56.334 24 -71.001
c19.333 -22.667 56.333 -40.667 111 -54c140.667 -34 211 -100.667 211 -200c0 -82.667 -39.333 -144 -118 -184c-61.333 -31.333 -137.333 -46.666 -228 -45.999c-31.333 0 -77.5 5 -138.5 15s-87.167 15 -78.5 15c-6.66699 0 -15.834 -8 -27.501 -24l-17.5 -24
c-1.33301 0 -2 3.33301 -2 10v191c0 6 0.333008 9.33301 1 10c1.33301 -4.66699 7.66602 -18 18.999 -40c39.333 -76 99.666 -116.667 180.999 -122c28.667 -2 55.5 5.66699 80.5 23s37.167 40 36.5 68c-2 51.333 -24.667 87.333 -68 108
c-24 6.66699 -66.333 20.334 -127 41.001c-97.333 35.333 -146.333 105.666 -147 210.999c-0.666992 74 41.333 131.667 126 173c68 33.333 143.333 49.333 226 48c64.667 -0.666992 121.667 -7.66699 171 -21c43.333 -11.333 63 -17.333 59 -18
c5.33301 0.666992 13.166 8.66699 23.499 24l15.5 23c2 0 3 -3.33301 3 -10z" />
    <glyph glyph-name="T" unicode="T" horiz-adv-x="784" 
d="M34 730c0 5.33301 0.666992 8.00098 2 8.00098c-12 0 -6.66699 -6.66699 16 -20s38.667 -20 48 -20h579c20.667 0 33 0.333008 37 1c11.333 2 21.333 8 30 18l13 15c1.33301 -0.666992 2 -2.66699 2 -6v-144c0 -7.33301 -0.666992 -11.333 -2 -12
c-11.333 0 -23 8.33301 -35 25c-14.667 20.667 -25.667 32.667 -33 36c-25.333 12.667 -62 19 -110 19c-28 0 -42 -1.33301 -42 -4l-15 -611l50 -35h-375l51 35l-12 610c0 4 -15.667 6 -47 6c-54.667 0 -91.334 -5.33301 -110.001 -16
c-1.33301 -0.666992 -16.666 -20.334 -45.999 -59.001c-0.666992 0.666992 -1 3 -1 7v147z" />
    <glyph glyph-name="U" unicode="U" horiz-adv-x="817" 
d="M610 702l169 0.00195312c3.33301 0 5 -0.333008 5 -1c0 -6 -6 -12.333 -18 -19c-14 -6.66699 -21.667 -12 -23 -16c-6 -10.667 -11 -56.334 -15 -137.001c-3.33301 -64.667 -4.66602 -114 -3.99902 -148c0.666992 -84.667 -3.66602 -148.667 -12.999 -192
c-16 -72 -55 -123 -117 -153c-48 -23.333 -113.333 -35 -196 -35c-128 0 -215.333 37.667 -262 113c-34 54.667 -51.667 142 -53 262c0 32.667 -0.333008 91.334 -1 176.001c-0.666992 66.667 -5 104.667 -13 114c-2.66699 3.33301 -11.667 8.33301 -27 15
c-12 5.33301 -18 11.666 -18 18.999c0.666992 1.33301 3 2 7 2h378c5.33301 0 7.66602 -0.333008 6.99902 -1c-7.33301 -3.33301 -19.666 -13 -36.999 -29c-6.66699 -8.66699 -10.667 -31.334 -12 -68.001l-10 -308c-2 -66 7.33301 -119.333 28 -160
c25.333 -50 69.666 -75.333 132.999 -76c61.333 -0.666992 103.666 26.333 126.999 81c16.667 39.333 25 100 25 182c0 14.667 -0.333008 42 -1 82c-2.66699 160 -8 246 -16 258c-4.66699 6.66699 -13 15 -25 25z" />
    <glyph glyph-name="V" unicode="V" horiz-adv-x="834" 
d="M673 664c-1.33301 3.33301 -8.66797 9.66797 -22.001 19.001s-20 14.333 -20 15c0.666992 1.33301 2.66699 2 6 2h159c8 0 12 -1 12 -3c0 -0.666992 -6.5 -5.16699 -19.5 -13.5s-20.5 -13.833 -22.5 -16.5c-4.66699 -6 -10.667 -15.667 -18 -29l-344 -639l-303 639
c-7.33301 16 -29.666 36.333 -66.999 61c0.666992 1.33301 3 2 7 2h389c4 0 6 -0.666992 6 -2c0 -6.66699 -6 -13.667 -18 -21c-14 -8 -22 -13.333 -24 -16c-9.33301 -13.333 -14 -30 -14 -50c0 -56.667 33.333 -130.334 100 -221.001c32.667 -44.667 50 -65 52 -61
c5.33301 -12 11.666 -18 18.999 -18c26.667 0 59.334 79.667 98.001 239c17.333 72 25.333 109.667 24 113z" />
    <glyph glyph-name="W" unicode="W" horiz-adv-x="1218" 
d="M55 702l749 -1c3.33301 0 5 -0.666992 5 -2l-21 -17.5c-14 -11.667 -20.333 -19.5 -19 -23.5c8 -25.333 32 -84 72 -176c42.667 -98 67 -147 73 -147c62 0 104.667 78 128 234c7.33301 50 10 80 8 90c-1.33301 6 -8.66602 14 -21.999 24l-20 15
c0.666992 1.33301 3.33398 2 8.00098 2h160c8.66699 0 13 -1 13 -3c0 -1.33301 -5.33301 -6 -16 -14s-16.334 -12.333 -17.001 -13c-12.667 -10 -22.667 -22 -30 -36l-332 -630l-161 327c-7.33301 14.667 -14 22 -20 22c-5.33301 0 -12 -7.33301 -20 -22l-173 -328l-325 642
c-4 8 -14 18 -30 30c-0.666992 0.666992 -7.33398 5 -20.001 13c-7.33301 4.66699 -11 8 -11 10c0 2.66699 7 4 21 4zM389 655c88.667 -198.667 137.667 -300.333 147 -305s18.666 4.33301 27.999 27c8.66699 20 13 35.333 13 46c0 4.66699 -0.666992 8.33398 -2 11.001
l-90 183c-23.333 48 -44.666 72.333 -63.999 73c-22.667 0.666992 -34 -8.33301 -34 -27c0 -2.66699 0.666992 -5.33398 2 -8.00098z" />
    <glyph glyph-name="X" unicode="X" horiz-adv-x="864" 
d="M48 701l430.003 -0.000976562c9.33301 0 14 -1.33301 14 -4l-17 -16.5c-11.333 -11 -17.333 -19.167 -18 -24.5c-0.666992 -7.33301 -1 -14.666 -1 -21.999c0 -32 7 -64.667 21 -98c19.333 -45.333 44.666 -65.666 75.999 -60.999c7.33301 1.33301 52.333 62.333 135 183
c-0.666992 5.33301 -8.16699 13.333 -22.5 24l-21.5 16c0 2 4.33301 3 13 3h174c4.66699 0 7 -0.666992 7 -2s-7 -6.33301 -21 -15s-21.667 -13.667 -23 -15c-6.66699 -4.66699 -15.667 -13 -27 -25l-196 -214l193 -340c8 -13.333 18.333 -28.666 31 -45.999
c4 -5.33301 21.333 -19.333 52 -42c-0.666992 -0.666992 -3 -1 -7 -1h-395c-4.66699 0 -7 0.666992 -7 2c0 4 4.83301 8.33301 14.5 13s15.167 8 16.5 10c6 8 9 17.333 9 28c0 35.333 -28.667 82.333 -86 141c-26 26.667 -40.667 40 -44 40
c-5.33301 0 -28.333 -30.5 -69 -91.5s-60 -96.5 -58 -106.5c1.33301 -7.33301 18 -19.333 50 -36c-0.666992 -0.666992 -2.33398 -1 -5.00098 -1l-191 -1c-4.66699 0 -9.33398 0.666992 -14.001 2c2 1.33301 12.333 6.66602 31 15.999
c23.333 11.333 39.833 22.666 49.5 33.999s70.5 88 182.5 230l-219 357c-7.33301 12 -16 22.667 -26 32c-1.33301 1.33301 -8.83301 6 -22.5 14s-20.5 12.667 -20.5 14c0 2 4 3 12 3z" />
    <glyph glyph-name="Y" unicode="Y" horiz-adv-x="942" 
d="M47 702h436.002c6 0 9 -1 9 -3c0 -2.66699 -6.83301 -8.33398 -20.5 -17.001s-20.5 -14.334 -20.5 -17.001c0 -17.333 23 -66.666 69 -147.999s72.333 -122 79 -122c48.667 0 88.667 32 120 96c22.667 46 34 91 34 135c0 12.667 -1 25.334 -3 38.001
c-0.666992 4 -8 10.5 -22 19.5s-21 14.167 -21 15.5c0 2 2.66699 3 8 3h197c2.66699 0 4 -0.333008 4 -1c0 -1.33301 -7.33301 -6 -22 -14l-27 -14c-16.667 -10.667 -33.334 -27.667 -50.001 -51l-205 -287v-304c0 -0.666992 6.33301 -5 19 -13l24 -15
c-0.666992 -1.33301 -2.33398 -2 -5.00098 -2h-368c-4 0 -6 0.333008 -6 1c0 2 4 4.66699 12 8s12.333 5.33301 13 6c14.667 9.33301 22 17 22 23v246c0 26.667 -10.333 55 -31 85l-179 257c-8 11.333 -22.333 25.666 -43 42.999l-21 14c-10 6.66699 -15 11.334 -15 14.001
s4.33301 4 13 4z" />
    <glyph glyph-name="Z" unicode="Z" horiz-adv-x="723" 
d="M81 699l607 0.00195312c11.333 0 17 -1 17 -3c0 -2.66699 -2 -6.66699 -6 -12l-358 -621c-6 -10.667 -4.66699 -19.334 4 -26.001c3.33301 -2.66699 15.333 -4 36 -4c32.667 0 76.667 3 132 9c66 7.33301 107.333 15 124 23c7.33301 3.33301 16.5 18.5 27.5 45.5
s17.167 40.5 18.5 40.5c1.33301 -1.33301 2 -5 2 -11v-180c0 -8 -1 -12 -3 -12l-16 19.5c-10.667 13 -18.667 20.5 -24 22.5c-17.333 7.33301 -108 11 -272 11h-308c-17.333 0 -26.333 0.333008 -27 1s2.33301 7.66699 9 21l297 596c6.66699 18.667 9 29.334 7 32.001
c-2.66699 3.33301 -14.334 4.66602 -35.001 3.99902c-27.333 3.33301 -65 1.66602 -113 -5.00098c-53.333 -6.66699 -88 -16.667 -104 -30c-18 -14.667 -35.667 -42.667 -53 -84c-4 0 -6 6.33301 -6 19v142c0 14.667 2.33301 22.667 7 24l14 -11
c8.66699 -7.33301 16.334 -11 23.001 -11z" />
    <glyph glyph-name="bracketleft" unicode="[" horiz-adv-x="449" 
d="M34 698h379v-41h-111c-13.333 0 -20 -6.66699 -20 -20v-569c0 -13.333 6.66699 -20 20 -20h111v-41h-379v691z" />
    <glyph glyph-name="backslash" unicode="\" horiz-adv-x="410" 
d="M23 516l76 1l289 -517l-72 1z" />
    <glyph glyph-name="bracketright" unicode="]" horiz-adv-x="458" 
d="M413 698h-379v-41h111c13.333 0 20 -6.66699 20 -20v-569c0 -13.333 -6.66699 -20 -20 -20h-111v-41h379v691z" />
    <glyph glyph-name="asciicircum" unicode="^" horiz-adv-x="537" 
d="M560 286h-163l-128 257l-130 -257h-162l217 414h148z" />
    <glyph glyph-name="underscore" unicode="_" horiz-adv-x="435" 
d="M435 -200h-440v60h440v-60z" />
    <glyph glyph-name="grave" unicode="`" horiz-adv-x="387" 
d="M297 560l-66 -43l-162 133l97 64z" />
    <glyph glyph-name="a" unicode="a" horiz-adv-x="619" 
d="M94 209l-0.000976562 143c0 12 3.33301 18 10 18l12 -18.5c8 -12.333 14 -17.833 18 -16.5c64 21.333 126.333 32 187 32c76 0 141.667 -16.667 197 -50c15.333 -9.33301 30.333 -23.333 45 -42c16.667 -20.667 25 -38.667 25 -54v-186c27.333 -18 41 -29 41 -33
c0 -0.666992 -0.666992 -1 -2 -1h-254c-2.66699 0 -5.33398 1 -8.00098 3s-4.66699 3 -6 3c-8 0 -18 -2.33301 -30 -7c-15.333 -6 -25.333 -9.33301 -30 -10c-33.333 -6.66699 -63.666 -10 -90.999 -10c-71.333 0 -124.666 17.667 -159.999 53c-16 16 -24 37 -24 63
c0 35.333 23.333 73 70 113zM296.999 195c-14.667 -2 -26.001 -10.998 -34.001 -26.998c-6.66699 -12.667 -10 -27.334 -10 -44.001c0 -20 4.33301 -42.333 13 -67c14.667 -18.667 30.334 -27.667 47.001 -27c15.333 0.666992 27 6 35 16c4.66699 14.667 7 31 7 49
c0 23.333 -4 44.666 -12 63.999c-10.667 26.667 -26 38.667 -46 36zM232.998 322.002c-44.667 0 -80.667 -21.9971 -108 -65.9971c-4.66699 -10.667 -7 -19.334 -7 -26.001c0 -6 2.33301 -8.66699 7 -8c68.667 9.33301 114.667 13.666 138 12.999
c17.333 -2.66699 40.333 -3.33398 69 -2.00098c2 0.666992 3 2.66699 3 6c0 20 -12 39.333 -36 58c-22.667 16.667 -44.667 25 -66 25z" />
    <glyph glyph-name="b" unicode="b" horiz-adv-x="721" 
d="M31 690h356c3.33301 0 5 -1.33301 5 -4s-2.66699 -6 -8 -10c-30.667 -17.333 -46 -36 -46 -56v-252c0 -16.667 3.66699 -25 11 -25c4.66699 0 10 1.33301 16 4c31.333 13.333 66.333 20 105 20c66 0 119.667 -14.667 161 -44c48 -33.333 72 -81.666 72 -144.999
c0 -59.333 -22 -106.666 -66 -141.999c-41.333 -32.667 -92.666 -49 -153.999 -49c-45.333 0 -94.333 11.333 -147 34c-2.66699 -0.666992 -7.33398 -4.33398 -14.001 -11.001s-11 -10 -13 -10h-257c-8.66699 0 -12 1.66699 -10 5s10 9.66602 24 18.999
c11.333 7.33301 17 17 17 29v568c0 22 -17 42 -51 60c-8.66699 6 -9 9 -1 9zM389 311c-44 -0.666992 -64 -49.333 -60 -146c2 -48.667 6 -81 12 -97c10 -27.333 30 -39.666 60 -36.999c24 2 41.333 22.667 52 62c7.33301 26.667 10 51 8 73
c-8.66699 97.333 -32.667 145.666 -72 144.999z" />
    <glyph glyph-name="c" unicode="c" horiz-adv-x="483" 
d="M427 2c-6 8.66699 -12.3301 12.002 -18.9971 10.002c-42 -14 -91.333 -19 -148 -15c-75.333 5.33301 -137.666 30.666 -186.999 75.999c-31.333 28.667 -47 64.334 -47 107.001c0 57.333 25.333 103 76 137c40.667 27.333 92.334 44 155.001 50
c48 4.66699 99.333 1.66699 154 -9c10.667 1.33301 22 15.666 34 42.999c1.33301 2.66699 3.66602 3.66699 6.99902 3c3.33301 -1.33301 5 -3.33301 5 -6v-146c0 -4.66699 -1.66699 -7.33398 -5 -8.00098c-3.33301 -1.33301 -6 0.333984 -8 5.00098
c-4.66699 10.667 -11.667 25.334 -21 44.001c-16 25.333 -37 38 -63 38c-18.667 0 -33.334 -5 -44.001 -15c-33.333 -30.667 -50 -73.334 -50 -128.001c0 -27.333 4.33301 -58.333 13 -93c3.33301 -14.667 12.666 -28 27.999 -40s30.333 -18 45 -18
c19.333 0 37.666 6 54.999 18s29.666 27.333 36.999 46c1.33301 4 3 5.33301 5 4c2 -0.666992 3 -2.33398 3 -5.00098v-119c0 -3.33301 -1.33301 -5.33301 -4 -6c-5.33301 0 -12.333 9 -21 27z" />
    <glyph glyph-name="d" unicode="d" horiz-adv-x="716" 
d="M698 681c-33.333 -17.333 -49.998 -37.334 -49.998 -60.001v-568c0 -12 5.33301 -21.667 16 -29c14 -9.33301 22 -15.666 24 -18.999s-1.33301 -5 -10 -5h-256c-2.66699 -0 -7.33398 3.33301 -14.001 10s-11.334 10.334 -14.001 11.001
c-53.333 -22.667 -102.333 -34 -147 -34c-65.333 0 -120.333 20 -165 60c-36.667 33.333 -55 77 -55 131c0 63.333 24 111.666 72 144.999c41.333 29.333 95 44 161 44c39.333 0 74.666 -6.66699 105.999 -20c6 -2.66699 11.333 -4 16 -4c6.66699 0 10 8.33301 10 25v252
c0 18.667 -15 37.334 -45 56.001c-5.33301 3.33301 -8.33301 6.66602 -9 9.99902c-0.666992 2.66699 1.33301 4 6 4h355c4.66699 0 6.33398 -1.33301 5.00098 -4c-1.33301 -2 -3.33301 -3.66699 -6 -5zM269.002 165.999c-2 -22 0.666016 -46.334 7.99902 -73.001
c10.667 -39.333 28.334 -60 53.001 -62c30 -2.66699 50 9.66602 60 36.999c5.33301 14.667 9 47 11 97c4 96.667 -16 145.334 -60 146.001c-39.333 0.666992 -63.333 -47.666 -72 -144.999z" />
    <glyph glyph-name="e" unicode="e" horiz-adv-x="587" 
d="M25 184c0 30.667 10.999 60.001 32.999 88.001c48.667 62.667 129.334 94 242.001 94c73.333 0 132.666 -14.667 177.999 -44c54.667 -34.667 83.334 -87 86.001 -157h-299c0 -46.667 23.333 -80.667 70 -102c24.667 -11.333 47.667 -16 69 -14
c55.333 5.33301 95.333 27 120 65c0.666992 0.666992 1.66699 1 3 1c3.33301 0 9 -2.33301 17 -7s11.667 -8.33398 11 -11.001c-4 -14 -23.333 -31 -58 -51c-52 -30 -116.333 -44.667 -193 -44c-64 0.666992 -122.333 14.667 -175 42c-69.333 36 -104 82.667 -104 140z
M297.999 327.001c-27.333 -10 -41 -40.334 -41 -91.001c0 -21.333 5.33301 -32.666 16 -33.999c4 0 10.667 -0.666992 20 -2c37.333 -5.33301 57.333 -2.66602 60 8.00098c2 8 3 15.667 3 23c0 34 -9 62.667 -27 86c-8.66699 11.333 -19 14.666 -31 9.99902z" />
    <glyph glyph-name="f" unicode="f" horiz-adv-x="511" 
d="M345 559l0.000976562 -172.002c0 -14 8 -23 24 -27h32c15.333 -0.666992 24 -4 26 -10c4.66699 -9.33301 2 -17.333 -8 -24c-5.33301 -3.33301 -19.666 -4.66602 -42.999 -3.99902c-20.667 0.666992 -31 -1 -31 -5l-22 -408
c-0.666992 -8.66699 8.66602 -18.167 27.999 -28.5s29 -16.166 29 -17.499c-0.666992 -1.33301 -1.33398 -2.33301 -2.00098 -3c-3.33301 -2.66699 -17.333 -4 -42 -4l-253 1c-6 0 -12 -0.333008 -18 -1c-6.66699 0.666992 -10.334 2.33398 -11.001 5.00098
c-0.666992 2 6.33301 8.66699 21 20s22 21 22 29v403c0 8.66699 -11 14.167 -33 16.5s-33 4.83301 -33 7.5c10.667 6.66699 25.334 19 44.001 37c10 14 16.333 41.667 19 83c3.33301 57.333 5.66602 89 6.99902 95c10.667 55.333 40.667 100.333 90 135
c46.667 33.333 99 50 157 50c40.667 0 77.334 -6.66699 110.001 -20c44.667 -18 67 -44.333 67 -79c0 -58 -28.333 -87.667 -85 -89c-20 -0.666992 -38 5.16602 -54 17.499s-24 28.166 -24 47.499c0 8.66699 2.5 21.334 7.5 38.001s7.5 28 7.5 34
c0 4.66699 -3.33301 7 -10 7c-18.667 0 -31 -16.667 -37 -50c-2 -11.333 -3 -20.333 -3 -27s3 -16.167 9 -28.5s9 -21.833 9 -28.5z" />
    <glyph glyph-name="g" unicode="g" horiz-adv-x="720" 
d="M161 20c-88 32.667 -132.332 85.6641 -132.999 158.997c-0.666992 62.667 25 111.334 77 146.001c44.667 30 99.667 45 165 45c20 0 49.667 -3.5 89 -10.5s55.666 -10.5 48.999 -10.5c2.66699 0 5.83398 2 9.50098 6s6.5 6 8.5 6h269c3.33301 0 5.33301 -0.666992 6 -2
c0 -3.33301 -9.33301 -9.66602 -28 -18.999c-12 -12 -18 -22.667 -18 -32v-207c0 -152 -109 -234.667 -327 -248c-22.667 -1.33301 -51 1.33398 -85 8.00098l-51 10c-4 0 -9.83301 -7.16699 -17.5 -21.5s-11.834 -21.5 -12.501 -21.5c-0.666992 0.666992 -1 2 -1 4v188z
M175.001 11.9971c-1.33301 -2 -1.99902 -4.99902 -1.99902 -8.99902c0 -21.333 12 -46 36 -74c29.333 -34 61.666 -50.333 96.999 -49c32.667 1.33301 60.334 13.666 83.001 36.999s34 51.333 34 84c0 10.667 -2.33301 16 -7 16c20.667 0 5.66699 -2.5 -45 -7.5
s-79.667 -7.5 -87 -7.5c-14.667 -0.666992 -37.334 1 -68.001 5zM270.002 187.998c0 -35.333 4.33203 -66.668 12.999 -94.001c12.667 -40 32.667 -60 60 -60c50.667 0 75.334 50.667 74.001 152c-0.666992 34 -5.66699 64 -15 90c-13.333 37.333 -33.333 56.333 -60 57
c-48 0.666992 -72 -47.666 -72 -144.999z" />
    <glyph glyph-name="h" unicode="h" horiz-adv-x="737" 
d="M705 0l-291.002 -0.00195312c-4 0 -6.33301 0.666992 -7 2c0 -2.66699 6 3 18 17c9.33301 10.667 14 18.667 14 24l-5 157c-0.666992 22 -4.66699 44.667 -12 68c-10 32 -23 48 -39 48c-36 0 -57 -47 -63 -141l-8 -132c-0.666992 -6.66699 4.33301 -15.334 15 -26.001
c14 -11.333 21 -16.333 21 -15c-0.666992 -1.33301 -3 -2 -7 -2h-289c-4 0 -6 0.333008 -6 1c22.667 20.667 34 33.334 34 38.001l-11 603c0 12.667 -8.66699 28.334 -26 47.001s-26 21.667 -26 9c1.33301 1.33301 5 2 11 2h353c4.66699 0 7.33398 -0.666992 8.00098 -2
c0 -8 -6.33301 -15.5 -19 -22.5s-21.5 -12.667 -26.5 -17s-9.5 -111.5 -13.5 -321.5c36.667 18.667 87.334 28 152.001 28c49.333 0 91.333 -7.66699 126 -23c46.667 -20.667 70 -52.667 70 -96v-207c0 -5.33301 1.33301 -9 4 -11l6 -7
c0.666992 -0.666992 4.66699 -3.66699 12 -9s11 -8.66602 11 -9.99902c-0.666992 -1.33301 -2.66699 -2 -6 -2z" />
    <glyph glyph-name="i" unicode="i" horiz-adv-x="366" 
d="M92 524c0 26.667 9.5 49.167 28.5 67.5s41.833 27.5 68.5 27.5c26 0 48.5 -9 67.5 -27s28.5 -40 28.5 -66c0 -26.667 -9.66699 -49.167 -29 -67.5s-42.333 -27.5 -69 -27.5c-26 0 -48.333 9 -67 27s-28 40 -28 66zM44 366h272v-307c0 -20 2.33301 -32 7 -36
c14.667 -12.667 22.667 -20.334 24 -23.001c0 -1.33301 -4 -2 -12 -2h-296c-6 0 -9 0.666992 -9 2c2 1.33301 9.33301 8.33301 22 21c8 8 12 17.333 12 28v267c0 8.66699 -6 17.334 -18 26.001c-15.333 11.333 -23 18.333 -23 21c0 2 7 3 21 3z" />
    <glyph glyph-name="j" unicode="j" horiz-adv-x="419" 
d="M201 528c0 23.333 8 43.499 24 60.499s35.667 25.5 59 25.5s43.333 -8.33301 60 -25s25 -36.667 25 -60s-7.83301 -43.333 -23.5 -60s-35.167 -25 -58.5 -25c-24.667 0 -45.167 7.83301 -61.5 23.5s-24.5 35.834 -24.5 60.501zM399 369.999v-237
c0 -78.667 -17.667 -142.667 -53 -192c-40 -56 -97.667 -84.667 -173 -86c-96.667 -1.33301 -145.334 27.334 -146.001 86.001c0 20 6.16699 36.5 18.5 49.5s28.166 19.5 47.499 19.5c17.333 0 31.833 -5.33301 43.5 -16s17.834 -24.667 18.501 -42
c0.666992 -12.667 -1.66602 -29.334 -6.99902 -50.001c0 -2.66699 2.33301 -4 7 -4c8 0 13.667 12 17 36c1.33301 9.33301 2 25 2 47v350c0 11.333 -5 20.333 -15 27l-16 10c1.33301 1.33301 6 2 14 2h242z" />
    <glyph glyph-name="k" unicode="k" horiz-adv-x="725" 
d="M518 277c-4.66699 -2.66699 -7.00098 -6.99902 -7.00098 -12.999c0 -2.66699 3.66699 -10 11 -22l114 -187c6 -10 15 -19.333 27 -28c2 -1.33301 10.333 -4.66602 25 -9.99902c10 -3.33301 15 -8 15 -14c-0.666992 -1.33301 -3.33398 -2 -8.00098 -2h-287l-66 107
c-6 14 -13.333 19.667 -22 17c-3.33301 -0.666992 -5 -9.33398 -5 -26.001v-55c0 -12.667 5.33301 -22 16 -28l24 -14c-0.666992 -1.33301 -3 -2 -7 -2h-307c-2.66699 0 -4 0.333008 -4 1c0 1.33301 4.33301 4.66602 13 9.99902s13.334 8.33301 14.001 9
c5.33301 4.66699 8 17.334 8 38.001v578c0 11.333 -9.66699 25.333 -29 42c-16 8 -24 14.333 -24 19c0 2 3.33301 3 10 3h340c6.66699 0 10 -1 10 -3c0 -0.666992 -5.5 -4.83398 -16.5 -12.501s-17.167 -12.167 -18.5 -13.5c-15.333 -14.667 -23 -28 -23 -40v-400
c0 -14.667 3 -22.667 9 -24c4.66699 -2 11.334 0.666992 20.001 8l80 69l12 12c6 7.33301 9 13.333 9 18c0 4 -4 10.167 -12 18.5l-12 12.5c0 2 2 3 6 3h251c3.33301 0 5.33301 -0.333008 6 -1c0 -2.66699 -16.667 -10 -50 -22c-45.333 -16.667 -86 -32.667 -122 -48z" />
    <glyph glyph-name="l" unicode="l" horiz-adv-x="406" 
d="M362 701l-21 -656.998c-0.666992 -10.667 4 -19.334 14 -26.001l24 -16c-0.666992 -0.666992 -3 -1 -7 -1h-307c-2.66699 0 -4 0.666992 -4 2c0.666992 2 3.66699 4.83301 9 8.5l17 12c6 4.33301 8.66699 16.166 8 35.499l-11 578c0 16.667 -10.333 31.667 -31 45l-27 18
c0.666992 0.666992 2 1 4 1h332z" />
    <glyph glyph-name="m" unicode="m" horiz-adv-x="1105" 
d="M407 1c-4 0 -5.99902 0.673828 -5.99902 2.00684c0 -1.33301 6 4 18 16c9.33301 12.667 14 21 14 25l-5 160c-0.666992 23.333 -4.66699 46.666 -12 69.999c-10 32.667 -23.667 49 -41 49c-20.667 0 -37 -19.667 -49 -59c-8 -26.667 -13 -54.667 -15 -84l-8 -136
c-0.666992 -6.66699 4.66602 -15.334 15.999 -26.001c0.666992 -0.666992 4.16699 -3.16699 10.5 -7.5s9.5 -6.83301 9.5 -7.5c0 -1.33301 -2 -2 -6 -2h-295c-4 0 -6 0.333008 -6 1c23.333 21.333 35 34.333 35 39v272c0 6 -8 15.667 -24 29l-20 17
c1.33301 1.33301 5 2 11 2h268c2 0 5 -2.5 9 -7.5s7.33301 -7.83301 10 -8.5c66.667 19.333 119 28.666 157 27.999c51.333 -0.666992 95 -8.33398 131 -23.001c6.66699 -2.66699 23.334 -10.334 50.001 -23.001c57.333 30.667 119.666 46 186.999 46
c51.333 0 94.333 -7.66699 129 -23c47.333 -20.667 71 -53.334 71 -98.001v-211c0 -4.66699 4 -11 12 -19l11 -8.5c7.33301 -5.66699 11 -9.16699 11 -10.5c-0.666992 -1.33301 -2.66699 -2 -6 -2h-297c-4 0 -6.33301 0.666992 -7 2c0 -2 6 3.33301 18 16
c9.33301 12.667 14 21 14 25l-5 160c-0.666992 23.333 -4.66699 46.666 -12 69.999c-10 32.667 -23.333 49 -40 49c-21.333 0 -38 -19.333 -50 -58c-8.66699 -26.667 -13.667 -55 -15 -85l-7 -136c0 -6 5 -14.667 15 -26c14 -11.333 21 -16.333 21 -15
c-0.666992 -1.33301 -2.66699 -2 -6 -2h-296z" />
    <glyph glyph-name="n" unicode="n" horiz-adv-x="723" 
d="M698 0l-292 0.000976562c-4 0 -6.33301 0.666992 -7 2c0 -2.66699 6 3 18 17c9.33301 10.667 14 18.667 14 24l-5 157c-0.666992 22 -4.66699 44.667 -12 68c-10 32 -23 48 -39 48c-36 0 -57 -47 -63 -141l-8 -132c-0.666992 -11.333 5.16602 -22 17.499 -32
s18.5 -13 18.5 -9c-0.666992 -1.33301 -2.66699 -2 -6 -2h-290c-4 0 -6 0.333008 -6 1c22.667 20.667 34 33.334 34 38.001v267c0 5.33301 -7.66699 14.666 -23 27.999l-20 17c1.33301 1.33301 5 2 11 2h263c2 0 5 -2.5 9 -7.5s7.33301 -7.83301 10 -8.5
c66 19.333 116.667 28.666 152 27.999c50.667 -1.33301 92.667 -9.33301 126 -24c46.667 -20.667 70 -52.334 70 -95.001v-207c0 -5.33301 1.33301 -9 4 -11l6 -7c0.666992 -0.666992 4.83398 -3.66699 12.501 -9s11.5 -8.66602 11.5 -9.99902
c-0.666992 -1.33301 -2.66699 -2 -6 -2z" />
    <glyph glyph-name="o" unicode="o" horiz-adv-x="644" 
d="M326 369c79.333 0 147.333 -15.001 204 -45.001c66.667 -35.333 99.667 -82.666 99 -141.999c-0.666992 -64 -36 -112.333 -106 -145c-55.333 -26 -118.333 -39 -189 -39c-74.667 0 -139.667 12.667 -195 38c-72.667 33.333 -109 83 -109 149c0 62 35.667 110 107 144
c56 26.667 119 40 189 40zM329 336.999c-27.333 0.666992 -47.332 -18.666 -59.999 -57.999c-8.66699 -26.667 -13 -57.334 -13 -92.001c0 -35.333 4.66699 -67.666 14 -96.999c13.333 -42 33.666 -63 60.999 -63c28 0 48.333 21 61 63
c8.66699 29.333 12.667 61.666 12 96.999c-2 98.667 -27 148.667 -75 150z" />
    <glyph glyph-name="p" unicode="p" horiz-adv-x="674" 
d="M329 348c44.667 12 84 17.999 118 17.999c40.667 0 80.334 -11 119.001 -33c58.667 -33.333 88.667 -84.666 90 -153.999c0.666992 -37.333 -10 -72 -32 -104c-22.667 -34 -51.5 -55.333 -86.5 -64s-66.833 -13 -95.5 -13s-73.334 8.33301 -134.001 25
c-10.667 0 -16 -6.33301 -16 -19v-105c0 -11.333 6.66699 -21.333 20 -30l20 -13c0 -1.33301 -8 -2 -24 -2h-246c-18 0 -27 1.33301 -27 4l21 16c13.333 10 20 24.333 20 43l1 378c0 22 -14.333 42.333 -43 61c-0.666992 5.33301 8 8 26 8h250c2.66699 0 6 -2.83301 10 -8.5
s7 -8.16699 9 -7.5zM376 36.999c26 1.33301 45.001 22.001 57.001 62.001c8.66699 28 13 58.667 13 92c0 26.667 -4.33301 54 -13 82c-11.333 37.333 -28.333 56 -51 56c-22 0 -39.667 -19 -53 -57c-9.33301 -27.333 -14.333 -55 -15 -83
c-0.666992 -31.333 2.66602 -61.333 9.99902 -90c10.667 -42.667 28 -63.334 52 -62.001z" />
    <glyph glyph-name="q" unicode="q" horiz-adv-x="669" 
d="M373 364h251c18 0 26.667 -2.66699 26 -8c-29.333 -19.333 -44 -39.666 -44 -60.999l1 -378c0 -19.333 7 -34 21 -44l21 -15c0 -2.66699 -9 -4 -27 -4h-246c-16 0 -24 0.666992 -24 2l20 13c13.333 8.66699 20 18.667 20 30v105c0 12.667 -5.33301 19 -16 19
c-60 -16.667 -104.667 -25 -134 -25c-78 0 -135.667 22 -173 66c-28.667 34 -42.667 72.333 -42 115c1.33301 69.333 31 120.666 89 153.999c38.667 22 78.667 33 120 33c31.333 0 71 -6 119 -18c1.33301 -0.666992 4 1.83301 8 7.5s7.33301 8.5 10 8.5zM369 189
c0 27.333 -4.66602 54.999 -13.999 82.999c-12.667 38 -30.334 57 -53.001 57s-39.667 -18.667 -51 -56c-8.66699 -28 -13 -55.333 -13 -82c0 -33.333 4.33301 -64 13 -92c12 -40 31 -60.667 57 -62c23.333 -1.33301 40.333 19.334 51 62.001
c6.66699 26.667 10 56.667 10 90z" />
    <glyph glyph-name="r" unicode="r" horiz-adv-x="538" 
d="M37 361h288.001c3.33301 0 5.66602 -2.66699 6.99902 -8s2.33301 -8.33301 3 -9c9.33301 -9.33301 24.666 -8 45.999 4c27.333 15.333 45.333 23 54 23c24 0.666992 44.333 -6.5 61 -21.5s25.334 -34.167 26.001 -57.5c0.666992 -25.333 -6.5 -45.333 -21.5 -60
s-35.167 -22 -60.5 -22c-38.667 0 -63.667 17 -75 51l-10 53c-8 2 -16 -13.333 -24 -46c-7.33301 -28.667 -11 -49 -11 -61l-1 -161c0 -12.667 11 -27.334 33 -44.001c-0.666992 -1.33301 -2.66699 -2 -6 -2h-305c-2.66699 0 -4 0.333008 -4 1
c0.666992 2 3.66699 4.66699 9 8l5 3c4.66699 2.66699 8.66699 5.33398 12 8.00098c10 8 15 17.333 15 28v260c0 10 -7.66699 20.333 -23 31l-28 20c0.666992 1.33301 4 2 10 2z" />
    <glyph glyph-name="s" unicode="s" horiz-adv-x="497" 
d="M69 94c28.667 -38.667 76.3359 -58.998 143.003 -60.998c15.333 -0.666992 28.666 2 39.999 8c14 7.33301 20.667 18 20 32c-1.33301 24.667 -19 41.667 -53 51l-70 9c-81.333 11.333 -122 45.666 -122 102.999c0 50 30.333 86.333 91 109c42.667 16 94 24 154 24
c20 0 50 -3.33301 90 -10s57 -10 51 -10c4.66699 0 13.167 6 25.5 18s18.833 18 19.5 18c2 0 3 -2.33301 3 -7v-128c0 -5.33301 -1 -8 -3 -8c-1.33301 0 -7.66602 7.66699 -18.999 23c-13.333 17.333 -20.333 26.666 -21 27.999c-24.667 27.333 -56.334 42 -95.001 44
c-14.667 0.666992 -28.334 -2.66602 -41.001 -9.99902s-19 -18 -19 -32c0 -22 18.333 -37.667 55 -47c62 -16 95.667 -25.333 101 -28c36.667 -16.667 54.667 -44.667 54 -84c-0.666992 -50 -30.667 -86.667 -90 -110c-40 -16 -90.667 -24.667 -152 -26
c-21.333 -0.666992 -53.5 3.66602 -96.5 12.999s-60.833 14 -53.5 14c-5.33301 0 -12.5 -5.5 -21.5 -16.5l-13.5 -16.5c-0.666992 0.666992 -1 2 -1 4v121c0 5.33301 0.666992 8 2 8s8.66602 -11 21.999 -33z" />
    <glyph glyph-name="t" unicode="t" horiz-adv-x="442" 
d="M351 308l-0.999023 -267c0 -7.33301 6.66699 -15.666 20 -24.999l20 -14c0 -1.33301 -2.33301 -2 -7 -2l-303 -1c-3.33301 0 -5 0.666992 -5 2c0 0.666992 7 7.66699 21 21c10 10.667 15 18 15 22v262h-80c-4 0 -6 1.33301 -6 4c0 4 4 11 12 21
c11.333 14.667 18.666 22 21.999 22h52v136c0 5.33301 -7.33301 13.666 -22 24.999l-23 16c0.666992 1.33301 2.33398 2 5.00098 2h283v-180h67c4 0 6 -1.66699 6 -5c0 -2 -2.33301 -7.33301 -7 -16c-8.66699 -15.333 -14.334 -23 -17.001 -23h-52z" />
    <glyph glyph-name="u" unicode="u" horiz-adv-x="739" 
d="M30 362h297.001c4.66699 0 7 -0.666992 7 -2c-4 -2 -10.333 -8.66699 -19 -20s-13 -19 -13 -23l5 -160c0.666992 -22.667 4.66699 -46 12 -70c10 -33.333 23.667 -50 41 -50c34.667 0 55.667 48.333 63 145l10 135c0.666992 13.333 -12 27.666 -38 42.999
c0.666992 1.33301 2.66699 2 6 2h296c4 0 6 -0.666992 6 -2l-22 -22c-8.66699 -8.66699 -13 -14.334 -13 -17.001v-272c0 -6 2.66699 -11.333 8 -16l16 -14c10.667 -9.33301 17.334 -14.666 20.001 -15.999c0 -1.33301 -3.33301 -2 -10 -2h-269c-2 0 -5.16699 2.5 -9.5 7.5
s-7.83301 7.83301 -10.5 8.5c-66.667 -19.333 -118.334 -28.666 -155.001 -27.999c-133.333 2.66699 -200 42.667 -200 120v212c0 4.66699 -3.33301 11 -10 19c-0.666992 0.666992 -4.83398 3.66699 -12.501 9s-11.5 9 -11.5 11c0.666992 1.33301 2.66699 2 6 2z" />
    <glyph glyph-name="v" unicode="v" horiz-adv-x="611" 
d="M539 325l-223.999 -313.003c-5.33301 -9.33301 -11 -14 -17 -14c-4.66699 0 -10 4.33301 -16 13l-212 320c-2 2.66699 -9.16699 7.83398 -21.5 15.501s-18.166 12.5 -17.499 14.5c0.666992 3.33301 8.66699 5 24 5h321c6 0 9.33301 -1 10 -3
c0 -1.33301 -2 -3.66602 -6 -6.99902c-17.333 -8.66699 -26 -17.667 -26 -27c0 -6 9.33301 -23.5 28 -52.5s29.667 -43.5 33 -43.5c5.33301 0 15.166 12.833 29.499 38.5s22.166 42.5 23.499 50.5c1.33301 10 -4 19 -16 27c-4 2 -10.667 6 -20 12
c-0.666992 0.666992 -1 1.33398 -1 2.00098c0 2 3 3 9 3h142c4.66699 0 7 -1.33301 7 -4c0 -4 -3.66699 -7 -11 -9l-14 -5c-10 -6 -18.333 -13.667 -25 -23z" />
    <glyph glyph-name="w" unicode="w" horiz-adv-x="967" 
d="M30 356c-1.33301 2.66699 6 3.99805 22 3.99805h666c7.33301 0 11 -1.33301 11 -4l-16 -12c-11.333 -8.66699 -17 -16.334 -17 -23.001c0 -7.33301 8.5 -26.5 25.5 -57.5s26.833 -46.5 29.5 -46.5c5.33301 0.666992 17.333 15.5 36 44.5s28 47.167 28 54.5
c0 10.667 -7.66699 21.334 -23 32.001c-4.66699 3.33301 -7 6 -7 8s3.33301 3 10 3h138c4.66699 0 7 -0.666992 7 -2c-0.666992 -1.33301 -3.33398 -3.66602 -8.00098 -6.99902c-19.333 -10.667 -33 -21.334 -41 -32.001l-242 -307
c-4 -5.33301 -8.66699 -10.666 -14 -15.999c-1.33301 0 -6.33301 4.33301 -15 13l-117 185c-4.66699 11.333 -11 17 -19 17c-4.66699 0 -11 -5.66699 -19 -17l-151 -173c-11.333 -13.333 -18.333 -19.666 -21 -18.999c-3.33301 0.666992 -8.66602 6.66699 -15.999 18
l-201 303c-10 14.667 -25.333 26 -46 34zM454 264.998c-9.33301 20 -20.667 38.3311 -34 54.998c-18 22.667 -34.667 34 -50 34c-6 0 -12.167 -2.5 -18.5 -7.5s-9.5 -10.5 -9.5 -16.5c0 -2.66699 0.666992 -5 2 -7c33.333 -67.333 57 -103.666 71 -108.999
c6 -2 14.333 2.83301 25 14.5s16 21.167 16 28.5c0 2.66699 -0.666992 5.33398 -2 8.00098z" />
    <glyph glyph-name="x" unicode="x" horiz-adv-x="635" 
d="M599 1l-337.999 -0.00195312c-6 0 -1.66699 3.33301 13 10c18 8 27 14 27 18c0 5.33301 -9.83301 21.166 -29.5 47.499s-31.834 39.833 -36.501 40.5c-3.33301 0.666992 -15.166 -12.166 -35.499 -38.499s-30.5 -42.5 -30.5 -48.5
c0 -3.33301 6.16699 -8.83301 18.5 -16.5s18.5 -11.834 18.5 -12.501s-1 -1 -3 -1l-144 -2c-8 0 -12 1 -12 3s6.33301 6.33301 19 13c20 10 31.667 16.333 35 19c9.33301 6.66699 29.333 27 60 61s46 54.333 46 61c0 8 -18.167 38.167 -54.5 90.5s-58.833 81.5 -67.5 87.5
c-2.66699 0.666992 -14 5.66699 -34 15c-17.333 8 -26 12.667 -26 14c0 2 5.66699 3 17 3h380c4.66699 0 7 -0.666992 7 -2c0 -2.66699 -7.16699 -8.33398 -21.5 -17.001s-21.5 -14.334 -21.5 -17.001c0.666992 -7.33301 9 -23.833 25 -49.5s25.667 -38.167 29 -37.5
c5.33301 0.666992 15.166 11.834 29.499 33.501s21.833 36.167 22.5 43.5c0.666992 4.66699 -4.33301 12.834 -15 24.501s-16 17.834 -16 18.501c0 2 1.66699 3 5 3h141c10.667 0 16 -1 16 -3c0 -0.666992 -8.33301 -5.66699 -25 -15s-26.334 -15.666 -29.001 -18.999
c-69.333 -72 -103.666 -113.333 -102.999 -124c0.666992 -5.33301 17.167 -34.666 49.5 -87.999s51.5 -83 57.5 -89c2 -2.66699 9.66699 -7 23 -13s20 -9.66699 20 -11s-5.66699 -2 -17 -2z" />
    <glyph glyph-name="y" unicode="y" horiz-adv-x="663" 
d="M256 -112c35.333 24 55.3311 50.3359 59.998 79.0029c2 12 -35.333 75.333 -112 190c-74 110 -116 169 -126 177c-1.33301 0.666992 -9.5 5.5 -24.5 14.5s-22.5 14.167 -22.5 15.5c0.666992 1.33301 2.66699 2 6 2h361c2.66699 0 4.33398 -0.333008 5.00098 -1l-17.5 -14
c-11.667 -9.33301 -18.167 -16 -19.5 -20c-2 -8.66699 8.33301 -34.5 31 -77.5s36.667 -64.5 42 -64.5c7.33301 0 30.666 44.667 69.999 134c0 5.33301 -7.33301 13.666 -22 24.999l-23 16c0.666992 1.33301 2.33398 2 5.00098 2h162c6 0 9.33301 -0.666992 10 -2
c0 -6.66699 -6 -12 -18 -16c-15.333 -4.66699 -24.666 -8.33398 -27.999 -11.001c-8 -7.33301 -40.667 -52.666 -98 -135.999c-62 -90 -96 -145.333 -102 -166c-21.333 -72.667 -32 -117.334 -32 -134.001c0 -6.66699 6 -14.334 18 -23.001l17 -12
c0 -1.33301 -3.66699 -2 -11 -2h-165c-3.33301 0 -5.33301 0.666992 -6 2c0 1.33301 6.33301 5 19 11s19.667 9.66699 21 11z" />
    <glyph glyph-name="z" unicode="z" horiz-adv-x="533" 
d="M505 375c10 0 15.666 -1.33105 16.999 -3.99805c2 -4 0.666992 -9.66699 -4 -17l-195 -295c-2 -3.33301 -3 -6 -3 -8c0 -11.333 29 -15 87 -11c39.333 2.66699 63.333 7.66699 72 15c1.33301 1.33301 7 7.83301 17 19.5s15.333 17.5 16 17.5
c1.33301 -0.666992 2 -2.33398 2 -5.00098v-118c0 -3.33301 -0.666992 -5 -2 -5c-0.666992 0 -6 6 -16 18s-17 18 -21 18h-433c-8 0 -12.333 0.666992 -13 2c-1.33301 2 0.333984 6.66699 5.00098 14l174 288c5.33301 9.33301 7 16.666 5 21.999
c-1.33301 2.66699 -7 4 -17 4h-108c-8 0 -17.333 -7.83301 -28 -23.5s-17 -23.5 -19 -23.5c-1.33301 0 -2 2 -2 6v116c0 4 1 6 3 6c4 0 10 -7.33301 18 -22c4.66699 -9.33301 11.667 -14 21 -14h424z" />
    <glyph glyph-name="braceleft" unicode="{" horiz-adv-x="614" 
d="M602 689c0.666992 -2 -9 -10.001 -29 -24.001c-60.667 -43.333 -100 -109.666 -118 -198.999l-151 -104l146 -106c12 -113.333 51 -186.333 117 -219c20 -10 29.667 -17 29 -21c-1.33301 -6 -12.666 -9 -33.999 -9c-68 0 -140 20.333 -216 61
c-100.667 54 -161.334 127.333 -182.001 220l-145 62v24l147 62c22.667 90 82.667 159.333 180 208c72 36 143.667 54 215 54c26 0 39.667 -3 41 -9z" />
    <glyph glyph-name="bar" unicode="|" horiz-adv-x="106" 
d="M14 544l74 -36v-534l-74 36v534z" />
    <glyph glyph-name="braceright" unicode="}" horiz-adv-x="614" 
d="M19 689c0 -2 9.66797 -9.99902 29.001 -23.999c62.667 -44.667 102 -111 118 -199l151 -104l-146 -106c-12 -114 -50.667 -187 -116 -219c-20.667 -10 -30.667 -17 -30 -21c1.33301 -6 12.666 -9 33.999 -9c68.667 0 141 20.333 217 61
c100 53.333 160.333 126.666 181 219.999l145 62v24l-147 62c-22 90 -81.667 159.333 -179 208c-72 36 -143.667 54 -215 54c-26 0 -40 -3 -42 -9z" />
    <glyph glyph-name="asciitilde" unicode="~" horiz-adv-x="627" 
d="M596 276c-18.667 -34.667 -41.332 -65 -67.999 -91c-36 -36 -70.333 -54 -103 -54c-29.333 0 -71 17.167 -125 51.5s-87.333 51.5 -100 51.5c-28.667 0 -56.334 -24.667 -83.001 -74l-86 86c18.667 36 41.334 66.333 68.001 91c32.667 30 66 45 100 45
c27.333 0 66.5 -17 117.5 -51s85.833 -51 104.5 -51c25.333 0 53.666 29.333 84.999 88z" />
    <glyph glyph-name="nonbreakingspace" unicode="&#xa0;" horiz-adv-x="282" 
 />
    <glyph glyph-name="exclamdown" unicode="&#xa1;" horiz-adv-x="285" 
d="M226 612c-0.666992 -22.667 -9.50098 -41.502 -26.501 -56.502s-36.833 -22.167 -59.5 -21.5s-41.5 9.5 -56.5 26.5s-22.167 36.833 -21.5 59.5c0.666992 23.333 9.33398 42.5 26.001 57.5s36.667 21.833 60 20.5s42.333 -10.166 57 -26.499s21.667 -36.166 21 -59.499z
M258.999 -0.00195312h-229l98 487h30z" />
    <glyph glyph-name="cent" unicode="&#xa2;" horiz-adv-x="432" 
d="M330 447c-32 0 -55.667 -17.3301 -71 -51.9971c-11.333 -25.333 -17.333 -56.333 -18 -93c-0.666992 -37.333 4.33301 -69 15 -95c14.667 -36 38.334 -54 71.001 -54c27.333 0 51.666 16.333 72.999 49c7.33301 10.667 11.333 16.334 12 17.001
c0.666992 -0.666992 1 -2.33398 1 -5.00098v-113c0 -2.66699 -0.333008 -4 -1 -4s-4.83398 5.66699 -12.501 17s-12.5 17.666 -14.5 18.999s-16.333 -1.33398 -43 -8.00098c-8 -2 -22.667 -4 -44 -6v-117c0 -2.66699 -1.33301 -4 -4 -4c-6.66699 0 -23.5 9.83301 -50.5 29.5
s-40.5 32.167 -40.5 37.5v61c-120 18.667 -179.333 78 -178 178c0.666992 96 62.667 153 186 171v94c0 3.33301 1.66699 5 5 5c12 0 39 -17 81 -51c9.33301 -7.33301 13.333 -17.666 12 -30.999c-0.666992 -10 -0.666992 -15.667 0 -17c6 0 18 -1 36 -3
c6.66699 -1.33301 15.334 -3.33301 26.001 -6c6.66699 -1.33301 11 -1 13 1c9.33301 15.333 19 30.333 29 45c0.666992 -0.666992 1 -2.33398 1 -5.00098v-145c0 -6.66699 -2.33301 -4.33398 -7 6.99902c-21.333 52 -47 78 -77 78z" />
    <glyph glyph-name="sterling" unicode="&#xa3;" horiz-adv-x="596" 
d="M360 500c52.667 0 106 -8.33105 160 -24.998c4.66699 -0.666992 10.834 2.33301 18.501 9s12.167 10 13.5 10c8.66699 0 13 -21.667 13 -65c0 -45.333 -4 -68.333 -12 -69c-6 -0.666992 -14 7.33301 -24 24c-14 22.667 -26 38.667 -36 48
c-19.333 17.333 -43 26.333 -71 27c-30.667 0.666992 -57.667 -8.33301 -81 -27s-34.666 -43 -33.999 -73c0.666992 -22.667 7 -44.334 19 -65.001c5.33301 -7.33301 16.333 -23.333 33 -48c2 -3.33301 20 -5 54 -5c20 0 40.333 0.333008 61 1c21.333 -2 32 -6 32 -12
c0 -10.667 -16.667 -16 -50 -16c3.33301 0 2.66602 0.333008 -2.00098 1h-20h-20c-12.667 0 -20.334 -0.666992 -23.001 -2c-6 -2.66699 -8 -9 -6 -19c2 -10.667 3 -19.334 3 -26.001c0 -19.333 -6 -39 -18 -59c-6.66699 -11.333 -10 -17.666 -10 -18.999
c0 -8.66699 16.667 -15.667 50 -21c26 -4 46.667 -5.66699 62 -5c38 2 66 21.667 84 59c6.66699 13.333 11.667 20.333 15 21c7.33301 1.33301 11 -10 11 -34c0 -13.333 -1.33301 -29.333 -4 -48c-4 -26 -8.66699 -40.333 -14 -43c-15.333 -7.33301 -36.666 -11 -63.999 -11
c-28.667 0 -71.334 6.66699 -128.001 20s-80.667 20 -72 20c7.33301 0 11.333 -0.666992 12 -2c0 -2 -16 -6.33301 -48 -13c-46.667 -10 -81 -15 -103 -15c-76.667 -0.666992 -115 15.333 -115 48c0 35.333 37 52.333 111 51c11.333 0 28.666 -2 51.999 -6s41 -6 53 -6
c7.33301 0 11 4.33301 11 13c0 18.667 -22 39.667 -66 63c-30 16 -60.333 28.333 -91 37c-9.33301 2.66699 -21.666 4 -36.999 4h-37c-10.667 0 -16 2.66699 -16 8c0 9.33301 19 15.333 57 18c-18.667 37.333 -27 66.666 -25 87.999c5.33301 64 47 109.667 125 137
c51.333 18 110.333 27 177 27zM151 46.002c51.333 0 78.001 4.66699 80.001 14c1.33301 8 -26.334 17.667 -83.001 29c-6.66699 1.33301 -12.667 2 -18 2c-31.333 0 -46.333 -8.33301 -45 -25c1.33301 -13.333 23.333 -20 66 -20z" />
    <glyph glyph-name="currency" unicode="&#xa4;" horiz-adv-x="772" 
d="M638 365c0 -50.667 -21.001 -105.001 -63.001 -163.001l61 -62l-22 -25l-62 61c-55.333 -40 -109.666 -60 -162.999 -60c-56.667 0 -112.334 20 -167.001 60l-62 -61l-24 25l61 62c-38 56.667 -57 110.334 -57 161.001c0 53.333 19.333 109.333 58 168l-62 62l24 25
l62 -61c61.333 36.667 117 55 167 55c50.667 0 103.334 -19.333 158.001 -58l63 63l23 -24l-54 -57c39.333 -65.333 59 -122.333 59 -171zM529.999 359.999c0 41.333 -13.1709 76.333 -39.5039 105s-60.166 43 -101.499 43s-75.166 -14.333 -101.499 -43
s-39.5 -63.667 -39.5 -105c0 -42.667 12.833 -76.667 38.5 -102s59.834 -38 102.501 -38s76.834 12.667 102.501 38s38.5 59.333 38.5 102z" />
    <glyph glyph-name="yen" unicode="&#xa5;" horiz-adv-x="647" 
d="M648 700c-86.667 -155.333 -132.667 -237 -138 -245h90v-91h-139l-40 -71v-6h179v-92h-179v-195h-175v195h-191v92h191l-6 17l-37 60h-148v91h93l-149 245h196l136 -257l129 257h188z" />
    <glyph glyph-name="brokenbar" unicode="&#xa6;" horiz-adv-x="260" 
d="M58 475v347h145v-347h-145zM58 -4v365h145v-365h-145z" />
    <glyph glyph-name="section" unicode="&#xa7;" horiz-adv-x="596" 
d="M566 307c0 -60.667 -28.334 -111.003 -85.001 -151.003c28.667 -32 43 -68.333 43 -109c0 -59.333 -23 -106.666 -69 -141.999c-42 -32 -93.667 -48 -155 -48s-116.666 19 -165.999 57c-44.667 34 -66.334 66.333 -65.001 97l115 38c6.66699 -17.333 22.167 -33 46.5 -47
s46.166 -21 65.499 -21c22 0 41.333 6.33301 58 19s25 29.334 25 50.001c0 18.667 -8.66699 34.334 -26 47.001c-9.33301 7.33301 -26 16.333 -50 27l-120 53c-50.667 23.333 -85.667 43.333 -105 60c-32 27.333 -48 62.666 -48 105.999c0 60 31 110 93 150
c-23.333 28.667 -35 60 -35 94c0 53.333 22.667 96 68 128c40.667 28.667 88.667 43 144 43c49.333 0 93.333 -9.33301 132 -28c46 -23.333 74 -56.333 84 -99l-115 -38c-11.333 35.333 -44.666 53 -99.999 53c-18 0 -33.667 -5.66699 -47 -17s-20 -26 -20 -44
c0 -17.333 8.33301 -32 25 -44c4.66699 -4 20.334 -12.333 47.001 -25l117 -54c45.333 -21.333 78 -40.666 98 -57.999c30 -26 45 -58.333 45 -97zM427.999 285.997c0 18.667 -16.333 35.998 -49 51.998l-179 87c-22.667 -18 -34 -40 -34 -66
c0 -21.333 18.667 -40.666 56 -57.999l173 -80c22 20.667 33 42.334 33 65.001z" />
    <glyph glyph-name="dieresis" unicode="&#xa8;" horiz-adv-x="512" 
d="M429 619c0 -18.667 -7.33301 -34.332 -22 -46.999s-31.667 -19 -51 -19c-20 0 -37.333 6.16699 -52 18.5s-22 28.166 -22 47.499s7.33301 35.166 22 47.499s32 18.5 52 18.5c19.333 0 36.333 -6.16699 51 -18.5s22 -28.166 22 -47.499zM226 619.002
c0 -18.667 -7.33301 -34.332 -22 -46.999s-31.667 -19 -51 -19c-20 0 -37.333 6.16699 -52 18.5s-22 28.166 -22 47.499s7.33301 35.166 22 47.499s32 18.5 52 18.5c19.333 0 36.333 -6.16699 51 -18.5s22 -28.166 22 -47.499z" />
    <glyph glyph-name="copyright" unicode="&#xa9;" horiz-adv-x="768" 
d="M720 371c0 -94 -32.333 -173.5 -97 -238.5s-144 -97.5 -238 -97.5s-173.333 32.5 -238 97.5s-97 144.5 -97 238.5s32.333 173.333 97 238s144 97 238 97s173.333 -32.333 238 -97s97 -144 97 -238zM385 657c-80 0 -147.833 -27.667 -203.5 -83s-83.5 -123 -83.5 -203
s27.833 -147.833 83.5 -203.5s123.5 -83.5 203.5 -83.5s147.833 27.833 203.5 83.5s83.5 123.5 83.5 203.5s-27.833 147.667 -83.5 203s-123.5 83 -203.5 83zM503 526l-0.000976562 -91.999c0 -6.66699 -2 -5.33398 -6 3.99902c-17.333 39.333 -38.666 59 -63.999 59
c-26.667 0 -47 -15.667 -61 -47c-10.667 -23.333 -16.334 -50.666 -17.001 -81.999c-1.33301 -36.667 3.33398 -67.334 14.001 -92.001c14.667 -34.667 38 -51.667 70 -51c28 0 47.333 22 58 66c2 8.66699 4 13.334 6 14.001c0.666992 -0.666992 1 -2.33398 1 -5.00098v-101
c0 -2.66699 -0.666992 -4 -2 -4c-0.666992 0 -3.5 3 -8.5 9s-8.83301 9 -11.5 9c-14.667 -3.33301 -38 -6 -70 -8c-126.667 6.66699 -189 61 -187 163c1.33301 51.333 22.333 90.333 63 117c35.333 22.667 80 34 134 34c15.333 0 29.333 -1.66699 42 -5l19 -5
c1.33301 0 4.5 3.33301 9.5 10s7.83301 10 8.5 10c1.33301 0 2 -1 2 -3z" />
    <glyph glyph-name="ordfeminine" unicode="&#xaa;" horiz-adv-x="425" 
d="M406 237h-383v91h383v-91zM93 510l0.00292969 86.001c0 7.33301 2 11 6 11l7.5 -11c5 -7.33301 8.5 -10.666 10.5 -9.99902c38.667 12.667 76 19 112 19c45.333 0 84.666 -10 117.999 -30c9.33301 -5.33301 18.666 -14 27.999 -26s14 -22.667 14 -32v-111
c16.667 -10.667 25 -17.334 25 -20.001c0 -0.666992 -0.333008 -1 -1 -1h-153c-1.33301 0 -2.83301 0.666992 -4.5 2s-2.83398 2 -3.50098 2c-4.66699 0 -10.667 -1.33301 -18 -4c-9.33301 -3.33301 -15.333 -5.33301 -18 -6c-20 -4 -38.333 -6 -55 -6
c-42.667 0 -74.667 10.667 -96 32c-9.33301 9.33301 -14 21.666 -14 36.999c0 21.333 14 44 42 68zM215.003 502.001c-18 -2.66699 -27 -17.001 -27 -43.001c0 -12 2.66699 -25.333 8 -40c8.66699 -11.333 18 -16.666 28 -15.999c9.33301 0 16.333 3 21 9
c3.33301 9.33301 5 19.333 5 30c0 14 -2.66699 26.667 -8 38c-6 16 -15 23.333 -27 22zM176.003 578c-26.667 0 -48 -13.333 -64 -40c-3.33301 -6 -5 -11 -5 -15s1.66699 -5.66699 5 -5c40.667 5.33301 68 8 82 8c10.667 -2 24.667 -2.33301 42 -1c1.33301 0 2 1 2 3
c0 12 -7.16699 23.333 -21.5 34s-27.833 16 -40.5 16z" />
    <glyph glyph-name="guillemotleft" unicode="&#xab;" horiz-adv-x="556" 
d="M460 446l-1 -88l-105 -81l105 -81v-89l-158 125v91zM255 196l-1 -89l-157 125v91l158 124l-1 -89l-104 -81z" />
    <glyph glyph-name="logicalnot" unicode="&#xac;" horiz-adv-x="584" 
d="M545 108h-75v209h-431v73h506v-282z" />
    <glyph glyph-name="minus" unicode="&#xad;" horiz-adv-x="584" 
d="M3 181v144h577v-144h-577z" />
    <glyph glyph-name="minus" unicode="&#x2212;" horiz-adv-x="584" 
d="M3 181v144h577v-144h-577z" />
    <glyph glyph-name="registered" unicode="&#xae;" horiz-adv-x="768" 
d="M720 371c0 -94 -32.333 -173.5 -97 -238.5s-144 -97.5 -238 -97.5s-173.333 32.5 -238 97.5s-97 144.5 -97 238.5s32.333 173.333 97 238s144 97 238 97s173.333 -32.333 238 -97s97 -144 97 -238zM385 657c-80 0 -147.833 -27.667 -203.5 -83s-83.5 -123 -83.5 -203
s27.833 -147.833 83.5 -203.5s123.5 -83.5 203.5 -83.5s147.833 27.833 203.5 83.5s83.5 123.5 83.5 203.5s-27.833 147.667 -83.5 203s-123.5 83 -203.5 83zM353 336c-2.66699 -1.33301 -4 -5.66797 -4 -13.001v-108l18 -11h-160l12 13v270
c0 6.66699 -9.66699 15.667 -29 27c-0.666992 2.66699 5 4 17 4h268c68 0 102.333 -27 103 -81c0.666992 -30 -9.33301 -51.667 -30 -65c-10 -6 -27.333 -11.667 -52 -17c-7.33301 -1.33301 -9.33301 -5 -6 -11l76 -126l22 -14h-171
c1.33301 0.666992 4.33301 3.33398 9 8.00098c2.66699 2.66699 2 7.33398 -2 14.001l-62 103c-3.33301 5.33301 -6.33301 7.66602 -9 6.99902zM353 499.998l-1 -126c4.66699 -2.66699 13 -4 25 -4c42.667 0 64 19.333 64 58c0 49.333 -29.333 73.333 -88 72z" />
    <glyph glyph-name="macron" unicode="&#xaf;" horiz-adv-x="512" 
d="M427 609h-334v76h334v-76z" />
    <glyph glyph-name="macron" unicode="&#x2c9;" horiz-adv-x="512" 
d="M427 609h-334v76h334v-76z" />
    <glyph glyph-name="degree" unicode="&#xb0;" horiz-adv-x="400" 
d="M347 557c0 -41.333 -14.1689 -76.167 -42.502 -104.5s-63.166 -42.5 -104.499 -42.5s-76.166 14 -104.499 42s-42.5 62.667 -42.5 104c0 42 14 77 42 105s63 42 105 42s77 -13.833 105 -41.5s42 -62.5 42 -104.5zM296.998 555.999c0 27.333 -9.5 51.332 -28.5 71.999
s-42.167 31 -69.5 31h-6c-24.667 0 -46 -10.667 -64 -32s-27 -44.666 -27 -69.999c0 -26 9.33301 -49.667 28 -71s41 -32 67 -32c28 0 51.667 10 71 30s29 44 29 72z" />
    <glyph glyph-name="plusminus" unicode="&#xb1;" horiz-adv-x="626" 
d="M385 345v-161h-145v161h-216v144h216v160h145v-160h215v-144h-215zM24 3v144h576v-144h-576z" />
    <glyph glyph-name="acute" unicode="&#xb4;" horiz-adv-x="387" 
d="M313 650l-164 -134l-66 44l131 154z" />
    <glyph glyph-name="mu" unicode="&#xb5;" horiz-adv-x="565" 
d="M528 187c0 -66.667 -24 -118 -72 -154c-43.333 -32.667 -99.333 -49 -168 -49c-26 0 -49.333 5.66699 -70 17v-227h-172v683h172v-249c0 -56.667 23.667 -85 71 -85c44 0 66 28.333 66 85v249h173v-270z" />
    <glyph glyph-name="mu" unicode="&#x3bc;" horiz-adv-x="565" 
d="M528 187c0 -66.667 -24 -118 -72 -154c-43.333 -32.667 -99.333 -49 -168 -49c-26 0 -49.333 5.66699 -70 17v-227h-172v683h172v-249c0 -56.667 23.667 -85 71 -85c44 0 66 28.333 66 85v249h173v-270z" />
    <glyph glyph-name="paragraph" unicode="&#xb6;" horiz-adv-x="537" 
d="M497 -172h-75v829h-116v-829h-75v516c-62 0 -112.333 16 -151 48c-42 34.667 -63 82 -63 142s22 106.667 66 140c39.333 29.333 90 44 152 44h262v-890z" />
    <glyph glyph-name="periodcentered" unicode="&#xb7;" horiz-adv-x="368" 
d="M287 372c0 -28.667 -9.99902 -53.167 -29.999 -73.5s-44.667 -30.5 -74 -30.5c-30 0 -55 9.83301 -75 29.5s-30 44.5 -30 74.5s10.167 55.333 30.5 76s45.166 31 74.499 31c30 0 54.833 -10.333 74.5 -31s29.5 -46 29.5 -76z" />
    <glyph glyph-name="periodcentered" unicode="&#x2219;" horiz-adv-x="368" 
d="M287 372c0 -28.667 -9.99902 -53.167 -29.999 -73.5s-44.667 -30.5 -74 -30.5c-30 0 -55 9.83301 -75 29.5s-30 44.5 -30 74.5s10.167 55.333 30.5 76s45.166 31 74.499 31c30 0 54.833 -10.333 74.5 -31s29.5 -46 29.5 -76z" />
    <glyph glyph-name="cedilla" unicode="&#xb8;" horiz-adv-x="372" 
d="M306 -53l-117 -144l-79 53l121 134z" />
    <glyph glyph-name="ordmasculine" unicode="&#xba;" horiz-adv-x="425" 
d="M406 237h-383v91h383v-91zM209 603c43.333 0 82.001 -8 116.001 -24c44 -20.667 66 -50 66 -88c-0.666992 -38.667 -22 -68 -64 -88c-32.667 -15.333 -70.334 -23 -113.001 -23c-45.333 0 -84.333 7.66699 -117 23c-44 20 -66 49.667 -66 89
c0 37.333 21.667 66.333 65 87c33.333 16 71 24 113 24zM211.001 584c-29.333 0.666992 -44 -29.333 -44 -90c0 -22 2.66699 -41.667 8 -59c8 -24.667 20.333 -37 37 -37s29 12.333 37 37c4.66699 17.333 7 37 7 59c-1.33301 58.667 -16.333 88.667 -45 90z" />
    <glyph glyph-name="guillemotright" unicode="&#xbb;" horiz-adv-x="556" 
d="M459 231l-158 -124v89l105 81l-105 81v89l158 -124v-92zM254 231l-158 -124v89l105 81l-105 81v89l158 -124v-92z" />
    <glyph glyph-name="questiondown" unicode="&#xbf;" horiz-adv-x="453" 
d="M238 4c-50 0.666992 -95.3311 12.333 -135.998 35c-48.667 27.333 -73.334 64 -74.001 110c-0.666992 40.667 13 79.334 41 116.001c4 5.33301 31 32.333 81 81c29.333 28.667 44 54.667 44 78c0 12.667 -4.33301 23.834 -13 33.501s-19.334 14.167 -32.001 13.5
c-21.333 -0.666992 -35 -11.667 -41 -33l-6 -35c-4.66699 0 -10.834 5.33301 -18.501 16s-11.5 18.667 -11.5 24c0 9.33301 12.333 21.666 37 36.999c30.667 19.333 65.334 28.666 104.001 27.999c39.333 -0.666992 71.333 -10.667 96 -30c27.333 -21.333 41 -51 41 -89
c0 -34.667 -20.667 -74.667 -62 -120c25.333 -7.33301 51 -14.333 77 -21c46 -19.333 68.667 -52.333 68 -99c-0.666992 -48.667 -22 -86 -64 -112c-36 -22.667 -79.667 -33.667 -131 -33zM319.002 612.999c0 -24 -8.33301 -44.333 -25 -61s-37 -25 -61 -25
c-23.333 0 -43.333 8.5 -60 25.5s-25 37.167 -25 60.5s8.33301 43.333 25 60s36.667 25 60 25c24 0 44.333 -8.16699 61 -24.5s25 -36.5 25 -60.5zM296.002 42.999c37.333 0 55.999 33 55.999 99c0 23.333 -4.33301 43.333 -13 60c-10.667 20.667 -26.667 31 -48 31
c-35.333 0 -53.333 -33.667 -54 -101c0 -22.667 4 -42 12 -58c10.667 -20.667 26.334 -31 47.001 -31z" />
    <glyph glyph-name="Agrave" unicode="&#xc0;" horiz-adv-x="915" 
d="M190 701l437.998 -0.999023c7.33301 0 11 -1 11 -3l-30 -29c-10.667 -10 -11.667 -25.667 -3 -47l217 -541c4 -9.33301 12 -22.333 24 -39c2 -2.66699 9.83301 -9.33398 23.5 -20.001s20.5 -16.334 20.5 -17.001c0 -1.33301 -1.66699 -2 -5 -2h-381
c-4.66699 0 -7 0.666992 -7 2l16.5 15c11 10 16.833 17.667 17.5 23c0 3.33301 -3 12 -9 26l-48 112c-8 19.333 -29.333 29 -64 29h-133c-17.333 0 -29 -1 -35 -3c-9.33301 -3.33301 -16.666 -11.333 -21.999 -24l-42 -106c-6 -14.667 -8.33301 -25.667 -7 -33
c0.666992 -6 8.83398 -13.667 24.501 -23s23.5 -14.333 23.5 -15c0 -2 -4.33301 -3 -13 -3h-162c-5.33301 0 -8 1 -8 3c0 0.666992 10.667 9.33398 32 26.001c5.33301 4 13.666 13.333 24.999 28l213 425c8.66699 17.333 13 27.666 13 30.999c0 6.66699 -3 15.334 -9 26.001
l-46 82c-9.33301 16.667 -21.666 30 -36.999 40c-32.667 21.333 -49 33 -49 35s3.66699 3 11 3zM280.998 248.001h127c15.333 0 24 1.66699 26 5c2 2.66699 0.666992 12 -4 28l-67 149c-5.33301 11.333 -11.333 17 -18 17c-7.33301 0 -13.333 -5.33301 -18 -16l-67 -151
c-7.33301 -16 -9 -26 -5 -30c1.33301 -1.33301 10 -2 26 -2zM481.998 772.001l-66 -43l-162 133l97 64z" />
    <glyph glyph-name="Aacute" unicode="&#xc1;" horiz-adv-x="919" 
d="M190 701l437.998 -0.999023c7.33301 0 11 -1 11 -3l-30 -29c-10.667 -10 -11.667 -25.667 -3 -47l217 -541c4 -9.33301 12 -22.333 24 -39c2 -2.66699 9.83301 -9.33398 23.5 -20.001s20.5 -16.334 20.5 -17.001c0 -1.33301 -1.66699 -2 -5 -2h-381
c-4.66699 0 -7 0.666992 -7 2l16.5 15c11 10 16.833 17.667 17.5 23c0 3.33301 -3 12 -9 26l-48 112c-8 19.333 -29.333 29 -64 29h-133c-17.333 0 -29 -1 -35 -3c-9.33301 -3.33301 -16.666 -11.333 -21.999 -24l-42 -106c-6 -14.667 -8.33301 -25.667 -7 -33
c0.666992 -6 8.83398 -13.667 24.501 -23s23.5 -14.333 23.5 -15c0 -2 -4.33301 -3 -13 -3h-162c-5.33301 0 -8 1 -8 3c0 0.666992 10.667 9.33398 32 26.001c5.33301 4 13.666 13.333 24.999 28l213 425c8.66699 17.333 13 27.666 13 30.999c0 6.66699 -3 15.334 -9 26.001
l-46 82c-9.33301 16.667 -21.666 30 -36.999 40c-32.667 21.333 -49 33 -49 35s3.66699 3 11 3zM280.998 248.001h127c15.333 0 24 1.66699 26 5c2 2.66699 0.666992 12 -4 28l-67 149c-5.33301 11.333 -11.333 17 -18 17c-7.33301 0 -13.333 -5.33301 -18 -16l-67 -151
c-7.33301 -16 -9 -26 -5 -30c1.33301 -1.33301 10 -2 26 -2zM571.998 862.001l-164 -134l-66 44l131 154z" />
    <glyph glyph-name="Acircumflex" unicode="&#xc2;" horiz-adv-x="919" 
d="M190 701l437.998 -0.999023c7.33301 0 11 -1 11 -3l-30 -29c-10.667 -10 -11.667 -25.667 -3 -47l217 -541c4 -9.33301 12 -22.333 24 -39c2 -2.66699 9.83301 -9.33398 23.5 -20.001s20.5 -16.334 20.5 -17.001c0 -1.33301 -1.66699 -2 -5 -2h-381
c-4.66699 0 -7 0.666992 -7 2l16.5 15c11 10 16.833 17.667 17.5 23c0 3.33301 -3 12 -9 26l-48 112c-8 19.333 -29.333 29 -64 29h-133c-17.333 0 -29 -1 -35 -3c-9.33301 -3.33301 -16.666 -11.333 -21.999 -24l-42 -106c-6 -14.667 -8.33301 -25.667 -7 -33
c0.666992 -6 8.83398 -13.667 24.501 -23s23.5 -14.333 23.5 -15c0 -2 -4.33301 -3 -13 -3h-162c-5.33301 0 -8 1 -8 3c0 0.666992 10.667 9.33398 32 26.001c5.33301 4 13.666 13.333 24.999 28l213 425c8.66699 17.333 13 27.666 13 30.999c0 6.66699 -3 15.334 -9 26.001
l-46 82c-9.33301 16.667 -21.666 30 -36.999 40c-32.667 21.333 -49 33 -49 35s3.66699 3 11 3zM280.998 248.001h127c15.333 0 24 1.66699 26 5c2 2.66699 0.666992 12 -4 28l-67 149c-5.33301 11.333 -11.333 17 -18 17c-7.33301 0 -13.333 -5.33301 -18 -16l-67 -151
c-7.33301 -16 -9 -26 -5 -30c1.33301 -1.33301 10 -2 26 -2zM604.998 800.001l-55 -70l-115 73l-116 -72l-54 70l171 114z" />
    <glyph glyph-name="Atilde" unicode="&#xc3;" horiz-adv-x="916" 
d="M190 701l437.998 -0.999023c7.33301 0 11 -1 11 -3l-30 -29c-10.667 -10 -11.667 -25.667 -3 -47l217 -541c4 -9.33301 12 -22.333 24 -39c2 -2.66699 9.83301 -9.33398 23.5 -20.001s20.5 -16.334 20.5 -17.001c0 -1.33301 -1.66699 -2 -5 -2h-381
c-4.66699 0 -7 0.666992 -7 2l16.5 15c11 10 16.833 17.667 17.5 23c0 3.33301 -3 12 -9 26l-48 112c-8 19.333 -29.333 29 -64 29h-133c-17.333 0 -29 -1 -35 -3c-9.33301 -3.33301 -16.666 -11.333 -21.999 -24l-42 -106c-6 -14.667 -8.33301 -25.667 -7 -33
c0.666992 -6 8.83398 -13.667 24.501 -23s23.5 -14.333 23.5 -15c0 -2 -4.33301 -3 -13 -3h-162c-5.33301 0 -8 1 -8 3c0 0.666992 10.667 9.33398 32 26.001c5.33301 4 13.666 13.333 24.999 28l213 425c8.66699 17.333 13 27.666 13 30.999c0 6.66699 -3 15.334 -9 26.001
l-46 82c-9.33301 16.667 -21.666 30 -36.999 40c-32.667 21.333 -49 33 -49 35s3.66699 3 11 3zM280.998 248.001h127c15.333 0 24 1.66699 26 5c2 2.66699 0.666992 12 -4 28l-67 149c-5.33301 11.333 -11.333 17 -18 17c-7.33301 0 -13.333 -5.33301 -18 -16l-67 -151
c-7.33301 -16 -9 -26 -5 -30c1.33301 -1.33301 10 -2 26 -2zM611.998 822.001c-32.667 -62.667 -73.332 -94 -121.999 -94c-18 0 -43 7.83301 -75 23.5s-53 23.5 -63 23.5c-19.333 0 -36.333 -14.667 -51 -44l-65 47c32 59.333 72.667 89 122 89
c19.333 0 43.666 -8 72.999 -24s49.333 -24 60 -24c18.667 0 37 15.667 55 47z" />
    <glyph glyph-name="Adieresis" unicode="&#xc4;" horiz-adv-x="916" 
d="M190 701l437.998 -0.999023c7.33301 0 11 -1 11 -3l-30 -29c-10.667 -10 -11.667 -25.667 -3 -47l217 -541c4 -9.33301 12 -22.333 24 -39c2 -2.66699 9.83301 -9.33398 23.5 -20.001s20.5 -16.334 20.5 -17.001c0 -1.33301 -1.66699 -2 -5 -2h-381
c-4.66699 0 -7 0.666992 -7 2l16.5 15c11 10 16.833 17.667 17.5 23c0 3.33301 -3 12 -9 26l-48 112c-8 19.333 -29.333 29 -64 29h-133c-17.333 0 -29 -1 -35 -3c-9.33301 -3.33301 -16.666 -11.333 -21.999 -24l-42 -106c-6 -14.667 -8.33301 -25.667 -7 -33
c0.666992 -6 8.83398 -13.667 24.501 -23s23.5 -14.333 23.5 -15c0 -2 -4.33301 -3 -13 -3h-162c-5.33301 0 -8 1 -8 3c0 0.666992 10.667 9.33398 32 26.001c5.33301 4 13.666 13.333 24.999 28l213 425c8.66699 17.333 13 27.666 13 30.999c0 6.66699 -3 15.334 -9 26.001
l-46 82c-9.33301 16.667 -21.666 30 -36.999 40c-32.667 21.333 -49 33 -49 35s3.66699 3 11 3zM280.998 248.001h127c15.333 0 24 1.66699 26 5c2 2.66699 0.666992 12 -4 28l-67 149c-5.33301 11.333 -11.333 17 -18 17c-7.33301 0 -13.333 -5.33301 -18 -16l-67 -151
c-7.33301 -16 -9 -26 -5 -30c1.33301 -1.33301 10 -2 26 -2zM596.998 800.001c0 -18.667 -7.33301 -34.332 -22 -46.999s-31.667 -19 -51 -19c-20 0 -37.333 6.16699 -52 18.5s-22 28.166 -22 47.499s7.33301 35.166 22 47.499s32 18.5 52 18.5
c19.333 0 36.333 -6.16699 51 -18.5s22 -28.166 22 -47.499zM393.998 800.003c0 -18.667 -7.33301 -34.332 -22 -46.999s-31.667 -19 -51 -19c-20 0 -37.333 6.16699 -52 18.5s-22 28.166 -22 47.499s7.33301 35.166 22 47.499s32 18.5 52 18.5
c19.333 0 36.333 -6.16699 51 -18.5s22 -28.166 22 -47.499z" />
    <glyph glyph-name="Aring" unicode="&#xc5;" horiz-adv-x="918" 
d="M190 701l437.998 -0.999023c7.33301 0 11 -1 11 -3l-30 -29c-10.667 -10 -11.667 -25.667 -3 -47l217 -541c4 -9.33301 12 -22.333 24 -39c2 -2.66699 9.83301 -9.33398 23.5 -20.001s20.5 -16.334 20.5 -17.001c0 -1.33301 -1.66699 -2 -5 -2h-381
c-4.66699 0 -7 0.666992 -7 2l16.5 15c11 10 16.833 17.667 17.5 23c0 3.33301 -3 12 -9 26l-48 112c-8 19.333 -29.333 29 -64 29h-133c-17.333 0 -29 -1 -35 -3c-9.33301 -3.33301 -16.666 -11.333 -21.999 -24l-42 -106c-6 -14.667 -8.33301 -25.667 -7 -33
c0.666992 -6 8.83398 -13.667 24.501 -23s23.5 -14.333 23.5 -15c0 -2 -4.33301 -3 -13 -3h-162c-5.33301 0 -8 1 -8 3c0 0.666992 10.667 9.33398 32 26.001c5.33301 4 13.666 13.333 24.999 28l213 425c8.66699 17.333 13 27.666 13 30.999c0 6.66699 -3 15.334 -9 26.001
l-46 82c-9.33301 16.667 -21.666 30 -36.999 40c-32.667 21.333 -49 33 -49 35s3.66699 3 11 3zM280.998 248.001h127c15.333 0 24 1.66699 26 5c2 2.66699 0.666992 12 -4 28l-67 149c-5.33301 11.333 -11.333 17 -18 17c-7.33301 0 -13.333 -5.33301 -18 -16l-67 -151
c-7.33301 -16 -9 -26 -5 -30c1.33301 -1.33301 10 -2 26 -2zM516.998 826.001c0 -30 -10.501 -53.5 -31.501 -70.5s-47.167 -25.5 -78.5 -25.5c-30 0 -55 8.33301 -75 25c-22 18 -33 41.667 -33 71c0 30 10.667 54.333 32 73c20 16.667 45.333 25 76 25
s56.334 -8.33301 77.001 -25c22 -18.667 33 -43 33 -73zM445.997 827.001c0 21.333 -13 32 -39 32c-25.333 0 -38 -10.667 -38 -32c0 -22 12.667 -33 38 -33c26 0 39 11 39 33z" />
    <glyph glyph-name="AE" unicode="&#xc6;" horiz-adv-x="990" 
d="M347 248l0.000976562 200c-0.666992 -0.666992 -1.33398 -1 -2.00098 -1c-7.33301 0 -13.333 -5.33301 -18 -16l-67 -151c-7.33301 -16 -9 -26 -5 -30c1.33301 -1.33301 10 -2 26 -2h66zM853.001 700c20 0 34.333 2 43 6c3.33301 1.33301 9.33301 7.83301 18 19.5
s13.667 17.5 15 17.5c1.33301 -0.666992 2 -3.33398 2 -8.00098v-143c0 -10 -1 -15 -3 -15c-0.666992 0 -6.83398 9.33301 -18.501 28s-19.5 29.667 -23.5 33c-18.667 14.667 -51.334 22 -98.001 22h-99c-22.667 0 -36.667 -2.5 -42 -7.5s-10.333 -18.667 -15 -41
s-7 -38.5 -7 -48.5v-189h181c29.333 0 50 3 62 9c5.33301 2.66699 13.666 10 24.999 22c2.66699 2.66699 8 9.66699 16 21c6.66699 9.33301 11.334 14 14.001 14c1.33301 -0.666992 2 -2.66699 2 -6v-165c0 -4 -1 -6 -3 -6c-2.66699 0 -9 6.33301 -19 19l-23 30
c-11.333 14.667 -55 22 -131 22h-124v-271c0 -13.333 6.66699 -20 20 -20h121c70.667 0 111.334 7.33301 122.001 22c4.66699 6.66699 12 19 22 37c7.33301 13.333 12 20 14 20c1.33301 -0.666992 2 -3 2 -7v-158c0 -6.66699 -1 -10 -3 -10c-2 2 -11 14.333 -27 37
c-8.66699 12 -28 18 -58 18h-534c-4.66699 0 -7.33398 0.666992 -8.00098 2c1.33301 2 7 5.66699 17 11l19 10c10 8 15 17 15 27v157h-69c-17.333 0 -29 -1 -35 -3c-9.33301 -3.33301 -16.666 -11.333 -21.999 -24l-42 -106c-6 -14.667 -8.33301 -25.667 -7 -33
c0.666992 -6 8.83398 -13.667 24.501 -23s23.5 -14.333 23.5 -15c0 -2 -4.33301 -3 -13 -3h-162c-5.33301 0 -8 1 -8 3c0 0.666992 10.667 9.33398 32 26.001c5.33301 4 13.666 13.333 24.999 28l213 425c8.66699 17.333 13 27.666 13 30.999c0 6.66699 -3 15.334 -9 26.001
l-46 82c-9.33301 16.667 -21.666 30 -36.999 40c-32.667 21.333 -49 33 -49 35s3.66699 3 11 3z" />
    <glyph glyph-name="Ccedilla" unicode="&#xc7;" horiz-adv-x="684" 
d="M652 711l-0.000976562 -203.995c0 -6.66699 -0.666992 -10.334 -2 -11.001l-19 39c-36 75.333 -80.667 112.666 -134 111.999c-60.667 -0.666992 -106.334 -35.667 -137.001 -105c-22 -49.333 -34 -110 -36 -182c-2.66699 -80.667 8 -149 32 -205
c32 -74.667 83.667 -111.667 155 -111c38.667 0 71 22 97 66c14.667 24 25.334 50.333 32.001 79c5.33301 20.667 9.33301 31 12 31c1.33301 -1.33301 2 -5 2 -11v-223c0 -6.66699 -1 -10 -3 -10c-0.666992 0 -7.16699 6.66699 -19.5 20s-21.166 20 -26.499 20
c-16 0 -42 -3.33301 -78 -10c-33.333 -6.66699 -59.333 -9.33398 -78 -8.00098c-20 1.33301 -39.333 3 -58 5l-51 -65c12.667 3.33301 23.334 5 32.001 5c24 0 43.833 -6.5 59.5 -19.5s23.5 -31.5 23.5 -55.5c0 -30.667 -13 -54.334 -39 -71.001
c-22 -14.667 -49 -22 -81 -22s-64 7.66699 -96 23l18 40c24.667 -10.667 46.667 -16 66 -16c36.667 0 55 13.667 55 41c0 12.667 -4.83301 22.5 -14.5 29.5s-20.834 10.5 -33.501 10.5h-12c-4 -0.666992 -13 -3.33398 -27 -8.00098l-18 20l72 95
c-210.667 39.333 -314 156.333 -310 351c2 116.667 53.333 205 154 265c79.333 47.333 173.666 71 282.999 71c30 0 75 -8 135 -24c2.66699 0 9.83398 7.66699 21.501 23s18.5 23 20.5 23s3 -2.66699 3 -8z" />
    <glyph glyph-name="Egrave" unicode="&#xc8;" horiz-adv-x="697" 
d="M37 700l556.002 0.000976562c20 0 34.333 2 43 6c3.33301 1.33301 9.33301 7.83301 18 19.5s13.667 17.5 15 17.5c1.33301 -0.666992 2 -3.33398 2 -8.00098v-143c0 -10 -1 -15 -3 -15c-0.666992 0 -6.83398 9.33301 -18.501 28s-19.5 29.667 -23.5 33
c-18.667 14.667 -51.334 22 -98.001 22h-99c-22.667 0 -36.667 -2.5 -42 -7.5s-10.333 -18.667 -15 -41s-7 -38.5 -7 -48.5v-189h181c29.333 0 50 3 62 9c5.33301 2.66699 13.666 10 24.999 22c2.66699 2.66699 8 9.66699 16 21c6.66699 9.33301 11.334 14 14.001 14
c1.33301 -0.666992 2 -2.66699 2 -6v-165c0 -4 -1 -6 -3 -6c-2.66699 0 -9 6.33301 -19 19l-23 30c-11.333 14.667 -55 22 -131 22h-124v-271c0 -13.333 6.66699 -20 20 -20h121c70.667 0 111.334 7.33301 122.001 22c4.66699 6.66699 12 19 22 37
c7.33301 13.333 12 20 14 20c1.33301 -0.666992 2 -3 2 -7v-158c0 -6.66699 -1 -10 -3 -10c-2 2 -11 14.333 -27 37c-8.66699 12 -28 18 -58 18h-534c-4.66699 0 -7.33398 0.666992 -8.00098 2c1.33301 2 7 5.66699 17 11l19 10c10 8 15 17 15 27v575
c0 14 -7.33301 27.667 -22 41c-20.667 19.333 -32 29.333 -34 30c0.666992 1.33301 2.66699 2 6 2zM481.002 773.001l-66 -43l-162 133l97 64z" />
    <glyph glyph-name="Eacute" unicode="&#xc9;" horiz-adv-x="700" 
d="M37 700l556.002 0.000976562c20 0 34.333 2 43 6c3.33301 1.33301 9.33301 7.83301 18 19.5s13.667 17.5 15 17.5c1.33301 -0.666992 2 -3.33398 2 -8.00098v-143c0 -10 -1 -15 -3 -15c-0.666992 0 -6.83398 9.33301 -18.501 28s-19.5 29.667 -23.5 33
c-18.667 14.667 -51.334 22 -98.001 22h-99c-22.667 0 -36.667 -2.5 -42 -7.5s-10.333 -18.667 -15 -41s-7 -38.5 -7 -48.5v-189h181c29.333 0 50 3 62 9c5.33301 2.66699 13.666 10 24.999 22c2.66699 2.66699 8 9.66699 16 21c6.66699 9.33301 11.334 14 14.001 14
c1.33301 -0.666992 2 -2.66699 2 -6v-165c0 -4 -1 -6 -3 -6c-2.66699 0 -9 6.33301 -19 19l-23 30c-11.333 14.667 -55 22 -131 22h-124v-271c0 -13.333 6.66699 -20 20 -20h121c70.667 0 111.334 7.33301 122.001 22c4.66699 6.66699 12 19 22 37
c7.33301 13.333 12 20 14 20c1.33301 -0.666992 2 -3 2 -7v-158c0 -6.66699 -1 -10 -3 -10c-2 2 -11 14.333 -27 37c-8.66699 12 -28 18 -58 18h-534c-4.66699 0 -7.33398 0.666992 -8.00098 2c1.33301 2 7 5.66699 17 11l19 10c10 8 15 17 15 27v575
c0 14 -7.33301 27.667 -22 41c-20.667 19.333 -32 29.333 -34 30c0.666992 1.33301 2.66699 2 6 2zM476.002 863.001l-164 -134l-66 44l131 154z" />
    <glyph glyph-name="Ecircumflex" unicode="&#xca;" horiz-adv-x="700" 
d="M37 700l556.002 0.000976562c20 0 34.333 2 43 6c3.33301 1.33301 9.33301 7.83301 18 19.5s13.667 17.5 15 17.5c1.33301 -0.666992 2 -3.33398 2 -8.00098v-143c0 -10 -1 -15 -3 -15c-0.666992 0 -6.83398 9.33301 -18.501 28s-19.5 29.667 -23.5 33
c-18.667 14.667 -51.334 22 -98.001 22h-99c-22.667 0 -36.667 -2.5 -42 -7.5s-10.333 -18.667 -15 -41s-7 -38.5 -7 -48.5v-189h181c29.333 0 50 3 62 9c5.33301 2.66699 13.666 10 24.999 22c2.66699 2.66699 8 9.66699 16 21c6.66699 9.33301 11.334 14 14.001 14
c1.33301 -0.666992 2 -2.66699 2 -6v-165c0 -4 -1 -6 -3 -6c-2.66699 0 -9 6.33301 -19 19l-23 30c-11.333 14.667 -55 22 -131 22h-124v-271c0 -13.333 6.66699 -20 20 -20h121c70.667 0 111.334 7.33301 122.001 22c4.66699 6.66699 12 19 22 37
c7.33301 13.333 12 20 14 20c1.33301 -0.666992 2 -3 2 -7v-158c0 -6.66699 -1 -10 -3 -10c-2 2 -11 14.333 -27 37c-8.66699 12 -28 18 -58 18h-534c-4.66699 0 -7.33398 0.666992 -8.00098 2c1.33301 2 7 5.66699 17 11l19 10c10 8 15 17 15 27v575
c0 14 -7.33301 27.667 -22 41c-20.667 19.333 -32 29.333 -34 30c0.666992 1.33301 2.66699 2 6 2zM537.002 798.001l-55 -70l-115 73l-116 -72l-54 70l171 114z" />
    <glyph glyph-name="Edieresis" unicode="&#xcb;" horiz-adv-x="701" 
d="M37 700l556.002 0.000976562c20 0 34.333 2 43 6c3.33301 1.33301 9.33301 7.83301 18 19.5s13.667 17.5 15 17.5c1.33301 -0.666992 2 -3.33398 2 -8.00098v-143c0 -10 -1 -15 -3 -15c-0.666992 0 -6.83398 9.33301 -18.501 28s-19.5 29.667 -23.5 33
c-18.667 14.667 -51.334 22 -98.001 22h-99c-22.667 0 -36.667 -2.5 -42 -7.5s-10.333 -18.667 -15 -41s-7 -38.5 -7 -48.5v-189h181c29.333 0 50 3 62 9c5.33301 2.66699 13.666 10 24.999 22c2.66699 2.66699 8 9.66699 16 21c6.66699 9.33301 11.334 14 14.001 14
c1.33301 -0.666992 2 -2.66699 2 -6v-165c0 -4 -1 -6 -3 -6c-2.66699 0 -9 6.33301 -19 19l-23 30c-11.333 14.667 -55 22 -131 22h-124v-271c0 -13.333 6.66699 -20 20 -20h121c70.667 0 111.334 7.33301 122.001 22c4.66699 6.66699 12 19 22 37
c7.33301 13.333 12 20 14 20c1.33301 -0.666992 2 -3 2 -7v-158c0 -6.66699 -1 -10 -3 -10c-2 2 -11 14.333 -27 37c-8.66699 12 -28 18 -58 18h-534c-4.66699 0 -7.33398 0.666992 -8.00098 2c1.33301 2 7 5.66699 17 11l19 10c10 8 15 17 15 27v575
c0 14 -7.33301 27.667 -22 41c-20.667 19.333 -32 29.333 -34 30c0.666992 1.33301 2.66699 2 6 2zM541.002 793.001c0 -18.667 -7.33301 -34.332 -22 -46.999s-31.667 -19 -51 -19c-20 0 -37.333 6.16699 -52 18.5s-22 28.166 -22 47.499s7.33301 35.166 22 47.499
s32 18.5 52 18.5c19.333 0 36.333 -6.16699 51 -18.5s22 -28.166 22 -47.499zM338.002 793.003c0 -18.667 -7.33301 -34.332 -22 -46.999s-31.667 -19 -51 -19c-20 0 -37.333 6.16699 -52 18.5s-22 28.166 -22 47.499s7.33301 35.166 22 47.499s32 18.5 52 18.5
c19.333 0 36.333 -6.16699 51 -18.5s22 -28.166 22 -47.499z" />
    <glyph glyph-name="Igrave" unicode="&#xcc;" horiz-adv-x="458" 
d="M53 702l375 0.000976562c4.66699 0 7 -1 7 -3c0 -1.33301 -6 -7.5 -18 -18.5s-18.667 -17.833 -20 -20.5c-4 -8 -6.33301 -18.667 -7 -32l-17 -570c0 -5.33301 3.66699 -13.333 11 -24c1.33301 -1.33301 7.5 -6.33301 18.5 -15s16.5 -13.334 16.5 -14.001
c0 -2 -2.66699 -3 -8 -3h-344c-4.66699 0 -7 1 -7 3l27 25.5c9.33301 9 14 18.167 14 27.5l-9 574c0 16 -6 28.667 -18 38c-22.667 18 -34.667 27.333 -36 28c0 2.66699 5 4 15 4zM342 772.001l-66 -43l-162 133l97 64z" />
    <glyph glyph-name="Iacute" unicode="&#xcd;" horiz-adv-x="465" 
d="M53 702l375 0.000976562c4.66699 0 7 -1 7 -3c0 -1.33301 -6 -7.5 -18 -18.5s-18.667 -17.833 -20 -20.5c-4 -8 -6.33301 -18.667 -7 -32l-17 -570c0 -5.33301 3.66699 -13.333 11 -24c1.33301 -1.33301 7.5 -6.33301 18.5 -15s16.5 -13.334 16.5 -14.001
c0 -2 -2.66699 -3 -8 -3h-344c-4.66699 0 -7 1 -7 3l27 25.5c9.33301 9 14 18.167 14 27.5l-9 574c0 16 -6 28.667 -18 38c-22.667 18 -34.667 27.333 -36 28c0 2.66699 5 4 15 4zM390 865.001l-164 -134l-66 44l131 154z" />
    <glyph glyph-name="Icircumflex" unicode="&#xce;" horiz-adv-x="469" 
d="M53 702l375 0.000976562c4.66699 0 7 -1 7 -3c0 -1.33301 -6 -7.5 -18 -18.5s-18.667 -17.833 -20 -20.5c-4 -8 -6.33301 -18.667 -7 -32l-17 -570c0 -5.33301 3.66699 -13.333 11 -24c1.33301 -1.33301 7.5 -6.33301 18.5 -15s16.5 -13.334 16.5 -14.001
c0 -2 -2.66699 -3 -8 -3h-344c-4.66699 0 -7 1 -7 3l27 25.5c9.33301 9 14 18.167 14 27.5l-9 574c0 16 -6 28.667 -18 38c-22.667 18 -34.667 27.333 -36 28c0 2.66699 5 4 15 4zM429 803.001l-55 -70l-115 73l-116 -72l-54 70l171 114z" />
    <glyph glyph-name="Idieresis" unicode="&#xcf;" horiz-adv-x="458" 
d="M53 702l375 0.000976562c4.66699 0 7 -1 7 -3c0 -1.33301 -6 -7.5 -18 -18.5s-18.667 -17.833 -20 -20.5c-4 -8 -6.33301 -18.667 -7 -32l-17 -570c0 -5.33301 3.66699 -13.333 11 -24c1.33301 -1.33301 7.5 -6.33301 18.5 -15s16.5 -13.334 16.5 -14.001
c0 -2 -2.66699 -3 -8 -3h-344c-4.66699 0 -7 1 -7 3l27 25.5c9.33301 9 14 18.167 14 27.5l-9 574c0 16 -6 28.667 -18 38c-22.667 18 -34.667 27.333 -36 28c0 2.66699 5 4 15 4zM434 797.001c0 -18.667 -7.33301 -34.332 -22 -46.999s-31.667 -19 -51 -19
c-20 0 -37.333 6.16699 -52 18.5s-22 28.166 -22 47.499s7.33301 35.166 22 47.499s32 18.5 52 18.5c19.333 0 36.333 -6.16699 51 -18.5s22 -28.166 22 -47.499zM231 797.003c0 -18.667 -7.33301 -34.332 -22 -46.999s-31.667 -19 -51 -19c-20 0 -37.333 6.16699 -52 18.5
s-22 28.166 -22 47.499s7.33301 35.166 22 47.499s32 18.5 52 18.5c19.333 0 36.333 -6.16699 51 -18.5s22 -28.166 22 -47.499z" />
    <glyph glyph-name="Eth" unicode="&#xd0;" horiz-adv-x="915" 
d="M38 699h430c120 0 217.667 -26 293 -78c88 -60 131.667 -147.333 131 -262c-0.666992 -126.667 -45 -221.334 -133 -284.001c-70.667 -50 -159 -75 -265 -75h-447c-4.66699 0 -7 1 -7 3c2 1.33301 9.66699 8.33301 23 21c9.33301 8.66699 14 17.667 14 27v233h-77v132h77
v221c0 6.66699 -7 17.334 -21 32.001c-19.333 20 -29 29 -29 27c0 2 3.66699 3 11 3zM584 359c-2 100.667 -26.333 177.333 -73 230c-35.333 39.333 -74.333 59 -117 59c-24.667 0 -37 -6 -37 -18v-568c0 -16.667 15 -25 45 -25c44.667 0 84 22 118 66
c44.667 58 66 143.333 64 256z" />
    <glyph glyph-name="Ntilde" unicode="&#xd1;" horiz-adv-x="793" 
d="M53 702l421.002 -0.00292969c3.33301 0 5 -0.666992 5 -2c-2.66699 -1.33301 -12.334 -8 -29.001 -20c-13.333 -6 -20 -14.333 -20 -25c0 -3.33301 1 -6.66602 3 -9.99902l198 -336c10 -17.333 18 -25 24 -23c8 2.66699 11.667 11.667 11 27l-10 328
c-0.666992 17.333 -13.667 35.333 -39 54c-3.33301 2 -6.33301 4 -9 6c0.666992 1.33301 3 2 7 2h156c2.66699 0 4.33398 -0.333008 5.00098 -1c0 -1.33301 -6.33301 -6 -19 -14c-14.667 -8.66699 -22.667 -13.667 -24 -15c-10.667 -10 -16.334 -23 -17.001 -39l-18 -574
c0 -9.33301 3.33301 -20.333 10 -33c2 -3.33301 8 -8 18 -14l14 -9c-0.666992 -1.33301 -3.33398 -2 -8.00098 -2h-277c-8 0 -12 0.666992 -12 2l12 10c7.33301 6 11.333 12.333 12 19c0.666992 6 -3.66602 16.667 -12.999 32l-264 435c-12 20 -20.667 28.333 -26 25
c-6 -4 -9 -15 -9 -33l6 -440c0 -11.333 5.66699 -21.333 17 -30c1.33301 -1.33301 7.33301 -4.66602 18 -9.99902s16 -8.33301 16 -9c-0.666992 -0.666992 -3 -1 -7 -1h-142c-6 0 -9 0.666992 -9 2c1.33301 1.33301 5.33301 3.66602 12 6.99902l13 6
c6.66699 4.66699 11 8.33398 13 11.001c3.33301 6 5.33301 15 6 27l22 516c0.666992 22.667 -7.33301 47.334 -24 74.001c-2.66699 4.66699 -14.334 12.667 -35.001 24c-17.333 10 -26 20 -26 30c0 2 6 3 18 3zM639.002 821.997c-32.667 -62.667 -73.332 -94 -121.999 -94
c-18 0 -43 7.83301 -75 23.5s-53 23.5 -63 23.5c-19.333 0 -36.333 -14.667 -51 -44l-65 47c32 59.333 72.667 89 122 89c19.333 0 43.666 -8 72.999 -24s49.333 -24 60 -24c18.667 0 37 15.667 55 47z" />
    <glyph glyph-name="Ograve" unicode="&#xd2;" horiz-adv-x="877" 
d="M33 356c1.33301 104 45.0029 189.001 131.003 255.001c79.333 60.667 172.333 91 279 91c107.333 0 200.333 -30.333 279 -91c85.333 -66 128.666 -151 129.999 -255c1.33301 -106.667 -41.334 -194.334 -128.001 -263.001c-80.667 -64 -175.667 -95.667 -285 -95
c-108 0.666992 -201.667 33 -281 97c-84.667 68.667 -126.334 155.667 -125.001 261zM440.003 51.001c39.333 0 68.667 37.665 88 112.998c14.667 56.667 22 122.667 22 198c0 58 -6 112 -18 162c-18 76 -47.667 114.333 -89 115c-34 0.666992 -61 -31 -81 -95
c-17.333 -55.333 -26 -116.666 -26 -183.999c0 -79.333 7 -146.666 21 -201.999c18 -71.333 45.667 -107 83 -107zM528.004 770.999l-66 -43l-162 133l97 64z" />
    <glyph glyph-name="Oacute" unicode="&#xd3;" horiz-adv-x="880" 
d="M33 356c1.33301 104 45.0029 189.001 131.003 255.001c79.333 60.667 172.333 91 279 91c107.333 0 200.333 -30.333 279 -91c85.333 -66 128.666 -151 129.999 -255c1.33301 -106.667 -41.334 -194.334 -128.001 -263.001c-80.667 -64 -175.667 -95.667 -285 -95
c-108 0.666992 -201.667 33 -281 97c-84.667 68.667 -126.334 155.667 -125.001 261zM440.003 51.001c39.333 0 68.667 37.665 88 112.998c14.667 56.667 22 122.667 22 198c0 58 -6 112 -18 162c-18 76 -47.667 114.333 -89 115c-34 0.666992 -61 -31 -81 -95
c-17.333 -55.333 -26 -116.666 -26 -183.999c0 -79.333 7 -146.666 21 -201.999c18 -71.333 45.667 -107 83 -107zM594.004 860.999l-164 -134l-66 44l131 154z" />
    <glyph glyph-name="Ocircumflex" unicode="&#xd4;" horiz-adv-x="885" 
d="M33 356c1.33301 104 45.0029 189.001 131.003 255.001c79.333 60.667 172.333 91 279 91c107.333 0 200.333 -30.333 279 -91c85.333 -66 128.666 -151 129.999 -255c1.33301 -106.667 -41.334 -194.334 -128.001 -263.001c-80.667 -64 -175.667 -95.667 -285 -95
c-108 0.666992 -201.667 33 -281 97c-84.667 68.667 -126.334 155.667 -125.001 261zM440.003 51.001c39.333 0 68.667 37.665 88 112.998c14.667 56.667 22 122.667 22 198c0 58 -6 112 -18 162c-18 76 -47.667 114.333 -89 115c-34 0.666992 -61 -31 -81 -95
c-17.333 -55.333 -26 -116.666 -26 -183.999c0 -79.333 7 -146.666 21 -201.999c18 -71.333 45.667 -107 83 -107zM637.004 799.999l-55 -70l-115 73l-116 -72l-54 70l171 114z" />
    <glyph glyph-name="Otilde" unicode="&#xd5;" horiz-adv-x="883" 
d="M33 356c1.33301 104 45.0029 189.001 131.003 255.001c79.333 60.667 172.333 91 279 91c107.333 0 200.333 -30.333 279 -91c85.333 -66 128.666 -151 129.999 -255c1.33301 -106.667 -41.334 -194.334 -128.001 -263.001c-80.667 -64 -175.667 -95.667 -285 -95
c-108 0.666992 -201.667 33 -281 97c-84.667 68.667 -126.334 155.667 -125.001 261zM440.003 51.001c39.333 0 68.667 37.665 88 112.998c14.667 56.667 22 122.667 22 198c0 58 -6 112 -18 162c-18 76 -47.667 114.333 -89 115c-34 0.666992 -61 -31 -81 -95
c-17.333 -55.333 -26 -116.666 -26 -183.999c0 -79.333 7 -146.666 21 -201.999c18 -71.333 45.667 -107 83 -107zM632.004 824.999c-32.667 -62.667 -73.332 -94 -121.999 -94c-18 0 -43 7.83301 -75 23.5s-53 23.5 -63 23.5c-19.333 0 -36.333 -14.667 -51 -44l-65 47
c32 59.333 72.667 89 122 89c19.333 0 43.666 -8 72.999 -24s49.333 -24 60 -24c18.667 0 37 15.667 55 47z" />
    <glyph glyph-name="Odieresis" unicode="&#xd6;" horiz-adv-x="886" 
d="M33 356c1.33301 104 45.0029 189.001 131.003 255.001c79.333 60.667 172.333 91 279 91c107.333 0 200.333 -30.333 279 -91c85.333 -66 128.666 -151 129.999 -255c1.33301 -106.667 -41.334 -194.334 -128.001 -263.001c-80.667 -64 -175.667 -95.667 -285 -95
c-108 0.666992 -201.667 33 -281 97c-84.667 68.667 -126.334 155.667 -125.001 261zM440.003 51.001c39.333 0 68.667 37.665 88 112.998c14.667 56.667 22 122.667 22 198c0 58 -6 112 -18 162c-18 76 -47.667 114.333 -89 115c-34 0.666992 -61 -31 -81 -95
c-17.333 -55.333 -26 -116.666 -26 -183.999c0 -79.333 7 -146.666 21 -201.999c18 -71.333 45.667 -107 83 -107zM614.004 789.999c0 -18.667 -7.33301 -34.332 -22 -46.999s-31.667 -19 -51 -19c-20 0 -37.333 6.16699 -52 18.5s-22 28.166 -22 47.499
s7.33301 35.166 22 47.499s32 18.5 52 18.5c19.333 0 36.333 -6.16699 51 -18.5s22 -28.166 22 -47.499zM411.004 790.001c0 -18.667 -7.33301 -34.332 -22 -46.999s-31.667 -19 -51 -19c-20 0 -37.333 6.16699 -52 18.5s-22 28.166 -22 47.499s7.33301 35.166 22 47.499
s32 18.5 52 18.5c19.333 0 36.333 -6.16699 51 -18.5s22 -28.166 22 -47.499z" />
    <glyph glyph-name="multiply" unicode="&#xd7;" horiz-adv-x="665" 
d="M534 -29l-202 201l-202 -203l-100 103l201 201l-203 202l103 100l201 -200l202 200l100 -100l-200 -202l200 -202z" />
    <glyph glyph-name="Oslash" unicode="&#xd8;" horiz-adv-x="875" 
d="M342 244c3.33301 -31.333 8.33398 -60.001 15.001 -86.001c18 -71.333 45.667 -107 83 -107c39.333 0 68.666 37.667 87.999 113c14.667 56.667 22 122.667 22 198c0 28.667 -1.33301 56.334 -4 83.001zM535.001 511.999l-3 11.999c-17.333 76 -47 114.333 -89 115
c-34 0.666992 -61 -31 -81 -95c-17.333 -55.333 -26 -116.666 -26 -183.999c0 -16 0.333008 -31.333 1 -46zM810.001 705.998l-92.999 -92l4 -3c86 -66 129.667 -151 131 -255c1.33301 -106.667 -41.334 -194.334 -128.001 -263.001c-80.667 -64 -175.667 -95.667 -285 -95
c-99.333 0.666992 -186.666 28.334 -261.999 83.001l-81 -80l-73 -1l114 114c-70.667 66 -105.334 146.667 -104.001 242c1.33301 104 45 189 131 255c79.333 60.667 172.333 91 279 91c84 0 159 -18.667 225 -56l60 60h82z" />
    <glyph glyph-name="Ugrave" unicode="&#xd9;" horiz-adv-x="815" 
d="M610 702l169 0.00195312c3.33301 0 5 -0.333008 5 -1c0 -6 -6 -12.333 -18 -19c-14 -6.66699 -21.667 -12 -23 -16c-6 -10.667 -11 -56.334 -15 -137.001c-3.33301 -64.667 -4.66602 -114 -3.99902 -148c0.666992 -84.667 -3.66602 -148.667 -12.999 -192
c-16 -72 -55 -123 -117 -153c-48 -23.333 -113.333 -35 -196 -35c-128 0 -215.333 37.667 -262 113c-34 54.667 -51.667 142 -53 262c0 32.667 -0.333008 91.334 -1 176.001c-0.666992 66.667 -5 104.667 -13 114c-2.66699 3.33301 -11.667 8.33301 -27 15
c-12 5.33301 -18 11.666 -18 18.999c0.666992 1.33301 3 2 7 2h378c5.33301 0 7.66602 -0.333008 6.99902 -1c-7.33301 -3.33301 -19.666 -13 -36.999 -29c-6.66699 -8.66699 -10.667 -31.334 -12 -68.001l-10 -308c-2 -66 7.33301 -119.333 28 -160
c25.333 -50 69.666 -75.333 132.999 -76c61.333 -0.666992 103.666 26.333 126.999 81c16.667 39.333 25 100 25 182c0 14.667 -0.333008 42 -1 82c-2.66699 160 -8 246 -16 258c-4.66699 6.66699 -13 15 -25 25zM561 773.002l-66 -43l-162 133l97 64z" />
    <glyph glyph-name="Uacute" unicode="&#xda;" horiz-adv-x="807" 
d="M610 702l169 0.00195312c3.33301 0 5 -0.333008 5 -1c0 -6 -6 -12.333 -18 -19c-14 -6.66699 -21.667 -12 -23 -16c-6 -10.667 -11 -56.334 -15 -137.001c-3.33301 -64.667 -4.66602 -114 -3.99902 -148c0.666992 -84.667 -3.66602 -148.667 -12.999 -192
c-16 -72 -55 -123 -117 -153c-48 -23.333 -113.333 -35 -196 -35c-128 0 -215.333 37.667 -262 113c-34 54.667 -51.667 142 -53 262c0 32.667 -0.333008 91.334 -1 176.001c-0.666992 66.667 -5 104.667 -13 114c-2.66699 3.33301 -11.667 8.33301 -27 15
c-12 5.33301 -18 11.666 -18 18.999c0.666992 1.33301 3 2 7 2h378c5.33301 0 7.66602 -0.333008 6.99902 -1c-7.33301 -3.33301 -19.666 -13 -36.999 -29c-6.66699 -8.66699 -10.667 -31.334 -12 -68.001l-10 -308c-2 -66 7.33301 -119.333 28 -160
c25.333 -50 69.666 -75.333 132.999 -76c61.333 -0.666992 103.666 26.333 126.999 81c16.667 39.333 25 100 25 182c0 14.667 -0.333008 42 -1 82c-2.66699 160 -8 246 -16 258c-4.66699 6.66699 -13 15 -25 25zM655 862.002l-164 -134l-66 44l131 154z" />
    <glyph glyph-name="Ucircumflex" unicode="&#xdb;" horiz-adv-x="809" 
d="M610 702l169 0.00195312c3.33301 0 5 -0.333008 5 -1c0 -6 -6 -12.333 -18 -19c-14 -6.66699 -21.667 -12 -23 -16c-6 -10.667 -11 -56.334 -15 -137.001c-3.33301 -64.667 -4.66602 -114 -3.99902 -148c0.666992 -84.667 -3.66602 -148.667 -12.999 -192
c-16 -72 -55 -123 -117 -153c-48 -23.333 -113.333 -35 -196 -35c-128 0 -215.333 37.667 -262 113c-34 54.667 -51.667 142 -53 262c0 32.667 -0.333008 91.334 -1 176.001c-0.666992 66.667 -5 104.667 -13 114c-2.66699 3.33301 -11.667 8.33301 -27 15
c-12 5.33301 -18 11.666 -18 18.999c0.666992 1.33301 3 2 7 2h378c5.33301 0 7.66602 -0.333008 6.99902 -1c-7.33301 -3.33301 -19.666 -13 -36.999 -29c-6.66699 -8.66699 -10.667 -31.334 -12 -68.001l-10 -308c-2 -66 7.33301 -119.333 28 -160
c25.333 -50 69.666 -75.333 132.999 -76c61.333 -0.666992 103.666 26.333 126.999 81c16.667 39.333 25 100 25 182c0 14.667 -0.333008 42 -1 82c-2.66699 160 -8 246 -16 258c-4.66699 6.66699 -13 15 -25 25zM659 800.002l-55 -70l-115 73l-116 -72l-54 70l171 114z" />
    <glyph glyph-name="Udieresis" unicode="&#xdc;" horiz-adv-x="813" 
d="M610 702l169 0.00195312c3.33301 0 5 -0.333008 5 -1c0 -6 -6 -12.333 -18 -19c-14 -6.66699 -21.667 -12 -23 -16c-6 -10.667 -11 -56.334 -15 -137.001c-3.33301 -64.667 -4.66602 -114 -3.99902 -148c0.666992 -84.667 -3.66602 -148.667 -12.999 -192
c-16 -72 -55 -123 -117 -153c-48 -23.333 -113.333 -35 -196 -35c-128 0 -215.333 37.667 -262 113c-34 54.667 -51.667 142 -53 262c0 32.667 -0.333008 91.334 -1 176.001c-0.666992 66.667 -5 104.667 -13 114c-2.66699 3.33301 -11.667 8.33301 -27 15
c-12 5.33301 -18 11.666 -18 18.999c0.666992 1.33301 3 2 7 2h378c5.33301 0 7.66602 -0.333008 6.99902 -1c-7.33301 -3.33301 -19.666 -13 -36.999 -29c-6.66699 -8.66699 -10.667 -31.334 -12 -68.001l-10 -308c-2 -66 7.33301 -119.333 28 -160
c25.333 -50 69.666 -75.333 132.999 -76c61.333 -0.666992 103.666 26.333 126.999 81c16.667 39.333 25 100 25 182c0 14.667 -0.333008 42 -1 82c-2.66699 160 -8 246 -16 258c-4.66699 6.66699 -13 15 -25 25zM661 800.002c0 -18.667 -7.33301 -34.332 -22 -46.999
s-31.667 -19 -51 -19c-20 0 -37.333 6.16699 -52 18.5s-22 28.166 -22 47.499s7.33301 35.166 22 47.499s32 18.5 52 18.5c19.333 0 36.333 -6.16699 51 -18.5s22 -28.166 22 -47.499zM458 800.004c0 -18.667 -7.33301 -34.332 -22 -46.999s-31.667 -19 -51 -19
c-20 0 -37.333 6.16699 -52 18.5s-22 28.166 -22 47.499s7.33301 35.166 22 47.499s32 18.5 52 18.5c19.333 0 36.333 -6.16699 51 -18.5s22 -28.166 22 -47.499z" />
    <glyph glyph-name="Yacute" unicode="&#xdd;" horiz-adv-x="934" 
d="M47 702h436.002c6 0 9 -1 9 -3c0 -2.66699 -6.83301 -8.33398 -20.5 -17.001s-20.5 -14.334 -20.5 -17.001c0 -17.333 23 -66.666 69 -147.999s72.333 -122 79 -122c48.667 0 88.667 32 120 96c22.667 46 34 91 34 135c0 12.667 -1 25.334 -3 38.001
c-0.666992 4 -8 10.5 -22 19.5s-21 14.167 -21 15.5c0 2 2.66699 3 8 3h197c2.66699 0 4 -0.333008 4 -1c0 -1.33301 -7.33301 -6 -22 -14l-27 -14c-16.667 -10.667 -33.334 -27.667 -50.001 -51l-205 -287v-304c0 -0.666992 6.33301 -5 19 -13l24 -15
c-0.666992 -1.33301 -2.33398 -2 -5.00098 -2h-368c-4 0 -6 0.333008 -6 1c0 2 4 4.66699 12 8s12.333 5.33301 13 6c14.667 9.33301 22 17 22 23v246c0 26.667 -10.333 55 -31 85l-179 257c-8 11.333 -22.333 25.666 -43 42.999l-21 14c-10 6.66699 -15 11.334 -15 14.001
s4.33301 4 13 4zM769.002 859l-164 -134l-66 44l131 154z" />
    <glyph glyph-name="Thorn" unicode="&#xde;" horiz-adv-x="869" 
d="M356 663l3.00098 -409c9.33301 -2 19.666 -3 30.999 -3c58.667 0 101 24.333 127 73c22 40 31.667 91 29 153c-4.66699 121.333 -68 183.333 -190 186zM82.001 742c0 16 -5.83301 28.666 -17.5 37.999l-36.5 28c0 2.66699 5 4 15 4h355c4.66699 0 7 -1 7 -3
c0 -1.33301 -6 -7.5 -18 -18.5s-18.667 -17.833 -20 -20.5c-4 -7.33301 -6.33301 -18 -7 -32l-2 -40h185c86 0 154 -18.667 204 -56c56 -41.333 85.333 -103.666 88 -186.999c2 -60.667 -16.333 -112.667 -55 -156c-52 -58.667 -132 -88 -240 -88h-185v-164
c0 -10.667 5 -20 15 -28c0.666992 -0.666992 6 -3.33398 16 -8.00098c7.33301 -4.66699 11.333 -7.66699 12 -9c-0.666992 -1.33301 -3 -2 -7 -2h-343c-3.33301 0 -5 0.666992 -5 2s4 4.83301 12 10.5s12.333 8.83398 13 9.50098c10 10 15 19.667 15 29v221
c-1.33301 2 -2 4 -2 6z" />
    <glyph glyph-name="germandbls" unicode="&#xdf;" horiz-adv-x="629" 
d="M609 256c0 -86.667 -29.333 -155.331 -88 -205.998c-57.333 -48 -129.666 -69.667 -216.999 -65v134c36 0 67 11.667 93 35s39 53 39 89s-12.833 64.667 -38.5 86s-56.834 31.333 -93.501 30v130c26 -0.666992 47.667 7.16602 65 23.499s26 37.5 26 63.5
c0 23.333 -8.33301 41.833 -25 55.5s-37 20.5 -61 20.5c-52 0 -78 -37 -78 -111v-541h-171v586c0 66.667 22 120 66 160c42 38 97 57 165 57c70 0 128.667 -15.333 176 -46c55.333 -36 83 -87 83 -153c0 -62.667 -24.667 -110.334 -74 -143.001
c40.667 -19.333 73 -47.333 97 -84s36 -77 36 -121z" />
    <glyph glyph-name="agrave" unicode="&#xe0;" horiz-adv-x="656" 
d="M94 209l-0.000976562 143c0 12 3.33301 18 10 18l12 -18.5c8 -12.333 14 -17.833 18 -16.5c64 21.333 126.333 32 187 32c76 0 141.667 -16.667 197 -50c15.333 -9.33301 30.333 -23.333 45 -42c16.667 -20.667 25 -38.667 25 -54v-186c27.333 -18 41 -29 41 -33
c0 -0.666992 -0.666992 -1 -2 -1h-254c-2.66699 0 -5.33398 1 -8.00098 3s-4.66699 3 -6 3c-8 0 -18 -2.33301 -30 -7c-15.333 -6 -25.333 -9.33301 -30 -10c-33.333 -6.66699 -63.666 -10 -90.999 -10c-71.333 0 -124.666 17.667 -159.999 53c-16 16 -24 37 -24 63
c0 35.333 23.333 73 70 113zM296.999 195c-14.667 -2 -26.001 -10.998 -34.001 -26.998c-6.66699 -12.667 -10 -27.334 -10 -44.001c0 -20 4.33301 -42.333 13 -67c14.667 -18.667 30.334 -27.667 47.001 -27c15.333 0.666992 27 6 35 16c4.66699 14.667 7 31 7 49
c0 23.333 -4 44.666 -12 63.999c-10.667 26.667 -26 38.667 -46 36zM232.998 322.002c-44.667 0 -80.667 -21.9971 -108 -65.9971c-4.66699 -10.667 -7 -19.334 -7 -26.001c0 -6 2.33301 -8.66699 7 -8c68.667 9.33301 114.667 13.666 138 12.999
c17.333 -2.66699 40.333 -3.33398 69 -2.00098c2 0.666992 3 2.66699 3 6c0 20 -12 39.333 -36 58c-22.667 16.667 -44.667 25 -66 25zM429.998 464.005l-66 -43l-162 133l97 64z" />
    <glyph glyph-name="aacute" unicode="&#xe1;" horiz-adv-x="662" 
d="M94 209l-0.000976562 143c0 12 3.33301 18 10 18l12 -18.5c8 -12.333 14 -17.833 18 -16.5c64 21.333 126.333 32 187 32c76 0 141.667 -16.667 197 -50c15.333 -9.33301 30.333 -23.333 45 -42c16.667 -20.667 25 -38.667 25 -54v-186c27.333 -18 41 -29 41 -33
c0 -0.666992 -0.666992 -1 -2 -1h-254c-2.66699 0 -5.33398 1 -8.00098 3s-4.66699 3 -6 3c-8 0 -18 -2.33301 -30 -7c-15.333 -6 -25.333 -9.33301 -30 -10c-33.333 -6.66699 -63.666 -10 -90.999 -10c-71.333 0 -124.666 17.667 -159.999 53c-16 16 -24 37 -24 63
c0 35.333 23.333 73 70 113zM296.999 195c-14.667 -2 -26.001 -10.998 -34.001 -26.998c-6.66699 -12.667 -10 -27.334 -10 -44.001c0 -20 4.33301 -42.333 13 -67c14.667 -18.667 30.334 -27.667 47.001 -27c15.333 0.666992 27 6 35 16c4.66699 14.667 7 31 7 49
c0 23.333 -4 44.666 -12 63.999c-10.667 26.667 -26 38.667 -46 36zM232.998 322.002c-44.667 0 -80.667 -21.9971 -108 -65.9971c-4.66699 -10.667 -7 -19.334 -7 -26.001c0 -6 2.33301 -8.66699 7 -8c68.667 9.33301 114.667 13.666 138 12.999
c17.333 -2.66699 40.333 -3.33398 69 -2.00098c2 0.666992 3 2.66699 3 6c0 20 -12 39.333 -36 58c-22.667 16.667 -44.667 25 -66 25zM462.998 560.005l-164 -134l-66 44l131 154z" />
    <glyph glyph-name="acircumflex" unicode="&#xe2;" horiz-adv-x="656" 
d="M94 209l-0.000976562 143c0 12 3.33301 18 10 18l12 -18.5c8 -12.333 14 -17.833 18 -16.5c64 21.333 126.333 32 187 32c76 0 141.667 -16.667 197 -50c15.333 -9.33301 30.333 -23.333 45 -42c16.667 -20.667 25 -38.667 25 -54v-186c27.333 -18 41 -29 41 -33
c0 -0.666992 -0.666992 -1 -2 -1h-254c-2.66699 0 -5.33398 1 -8.00098 3s-4.66699 3 -6 3c-8 0 -18 -2.33301 -30 -7c-15.333 -6 -25.333 -9.33301 -30 -10c-33.333 -6.66699 -63.666 -10 -90.999 -10c-71.333 0 -124.666 17.667 -159.999 53c-16 16 -24 37 -24 63
c0 35.333 23.333 73 70 113zM296.999 195c-14.667 -2 -26.001 -10.998 -34.001 -26.998c-6.66699 -12.667 -10 -27.334 -10 -44.001c0 -20 4.33301 -42.333 13 -67c14.667 -18.667 30.334 -27.667 47.001 -27c15.333 0.666992 27 6 35 16c4.66699 14.667 7 31 7 49
c0 23.333 -4 44.666 -12 63.999c-10.667 26.667 -26 38.667 -46 36zM232.998 322.002c-44.667 0 -80.667 -21.9971 -108 -65.9971c-4.66699 -10.667 -7 -19.334 -7 -26.001c0 -6 2.33301 -8.66699 7 -8c68.667 9.33301 114.667 13.666 138 12.999
c17.333 -2.66699 40.333 -3.33398 69 -2.00098c2 0.666992 3 2.66699 3 6c0 20 -12 39.333 -36 58c-22.667 16.667 -44.667 25 -66 25zM532.998 493.005l-55 -70l-115 73l-116 -72l-54 70l171 114z" />
    <glyph glyph-name="atilde" unicode="&#xe3;" horiz-adv-x="653" 
d="M94 209l-0.000976562 143c0 12 3.33301 18 10 18l12 -18.5c8 -12.333 14 -17.833 18 -16.5c64 21.333 126.333 32 187 32c76 0 141.667 -16.667 197 -50c15.333 -9.33301 30.333 -23.333 45 -42c16.667 -20.667 25 -38.667 25 -54v-186c27.333 -18 41 -29 41 -33
c0 -0.666992 -0.666992 -1 -2 -1h-254c-2.66699 0 -5.33398 1 -8.00098 3s-4.66699 3 -6 3c-8 0 -18 -2.33301 -30 -7c-15.333 -6 -25.333 -9.33301 -30 -10c-33.333 -6.66699 -63.666 -10 -90.999 -10c-71.333 0 -124.666 17.667 -159.999 53c-16 16 -24 37 -24 63
c0 35.333 23.333 73 70 113zM296.999 195c-14.667 -2 -26.001 -10.998 -34.001 -26.998c-6.66699 -12.667 -10 -27.334 -10 -44.001c0 -20 4.33301 -42.333 13 -67c14.667 -18.667 30.334 -27.667 47.001 -27c15.333 0.666992 27 6 35 16c4.66699 14.667 7 31 7 49
c0 23.333 -4 44.666 -12 63.999c-10.667 26.667 -26 38.667 -46 36zM232.998 322.002c-44.667 0 -80.667 -21.9971 -108 -65.9971c-4.66699 -10.667 -7 -19.334 -7 -26.001c0 -6 2.33301 -8.66699 7 -8c68.667 9.33301 114.667 13.666 138 12.999
c17.333 -2.66699 40.333 -3.33398 69 -2.00098c2 0.666992 3 2.66699 3 6c0 20 -12 39.333 -36 58c-22.667 16.667 -44.667 25 -66 25zM530.998 516.005c-32.667 -62.667 -73.332 -94 -121.999 -94c-18 0 -43 7.83301 -75 23.5s-53 23.5 -63 23.5
c-19.333 0 -36.333 -14.667 -51 -44l-65 47c32 59.333 72.667 89 122 89c19.333 0 43.666 -8 72.999 -24s49.333 -24 60 -24c18.667 0 37 15.667 55 47z" />
    <glyph glyph-name="adieresis" unicode="&#xe4;" horiz-adv-x="656" 
d="M94 209l-0.000976562 143c0 12 3.33301 18 10 18l12 -18.5c8 -12.333 14 -17.833 18 -16.5c64 21.333 126.333 32 187 32c76 0 141.667 -16.667 197 -50c15.333 -9.33301 30.333 -23.333 45 -42c16.667 -20.667 25 -38.667 25 -54v-186c27.333 -18 41 -29 41 -33
c0 -0.666992 -0.666992 -1 -2 -1h-254c-2.66699 0 -5.33398 1 -8.00098 3s-4.66699 3 -6 3c-8 0 -18 -2.33301 -30 -7c-15.333 -6 -25.333 -9.33301 -30 -10c-33.333 -6.66699 -63.666 -10 -90.999 -10c-71.333 0 -124.666 17.667 -159.999 53c-16 16 -24 37 -24 63
c0 35.333 23.333 73 70 113zM296.999 195c-14.667 -2 -26.001 -10.998 -34.001 -26.998c-6.66699 -12.667 -10 -27.334 -10 -44.001c0 -20 4.33301 -42.333 13 -67c14.667 -18.667 30.334 -27.667 47.001 -27c15.333 0.666992 27 6 35 16c4.66699 14.667 7 31 7 49
c0 23.333 -4 44.666 -12 63.999c-10.667 26.667 -26 38.667 -46 36zM232.998 322.002c-44.667 0 -80.667 -21.9971 -108 -65.9971c-4.66699 -10.667 -7 -19.334 -7 -26.001c0 -6 2.33301 -8.66699 7 -8c68.667 9.33301 114.667 13.666 138 12.999
c17.333 -2.66699 40.333 -3.33398 69 -2.00098c2 0.666992 3 2.66699 3 6c0 20 -12 39.333 -36 58c-22.667 16.667 -44.667 25 -66 25zM530.998 488.005c0 -18.667 -7.33301 -34.332 -22 -46.999s-31.667 -19 -51 -19c-20 0 -37.333 6.16699 -52 18.5s-22 28.166 -22 47.499
s7.33301 35.166 22 47.499s32 18.5 52 18.5c19.333 0 36.333 -6.16699 51 -18.5s22 -28.166 22 -47.499zM327.998 488.007c0 -18.667 -7.33301 -34.332 -22 -46.999s-31.667 -19 -51 -19c-20 0 -37.333 6.16699 -52 18.5s-22 28.166 -22 47.499s7.33301 35.166 22 47.499
s32 18.5 52 18.5c19.333 0 36.333 -6.16699 51 -18.5s22 -28.166 22 -47.499z" />
    <glyph glyph-name="aring" unicode="&#xe5;" horiz-adv-x="662" 
d="M94 209l-0.000976562 143c0 12 3.33301 18 10 18l12 -18.5c8 -12.333 14 -17.833 18 -16.5c64 21.333 126.333 32 187 32c76 0 141.667 -16.667 197 -50c15.333 -9.33301 30.333 -23.333 45 -42c16.667 -20.667 25 -38.667 25 -54v-186c27.333 -18 41 -29 41 -33
c0 -0.666992 -0.666992 -1 -2 -1h-254c-2.66699 0 -5.33398 1 -8.00098 3s-4.66699 3 -6 3c-8 0 -18 -2.33301 -30 -7c-15.333 -6 -25.333 -9.33301 -30 -10c-33.333 -6.66699 -63.666 -10 -90.999 -10c-71.333 0 -124.666 17.667 -159.999 53c-16 16 -24 37 -24 63
c0 35.333 23.333 73 70 113zM296.999 195c-14.667 -2 -26.001 -10.998 -34.001 -26.998c-6.66699 -12.667 -10 -27.334 -10 -44.001c0 -20 4.33301 -42.333 13 -67c14.667 -18.667 30.334 -27.667 47.001 -27c15.333 0.666992 27 6 35 16c4.66699 14.667 7 31 7 49
c0 23.333 -4 44.666 -12 63.999c-10.667 26.667 -26 38.667 -46 36zM232.998 322.002c-44.667 0 -80.667 -21.9971 -108 -65.9971c-4.66699 -10.667 -7 -19.334 -7 -26.001c0 -6 2.33301 -8.66699 7 -8c68.667 9.33301 114.667 13.666 138 12.999
c17.333 -2.66699 40.333 -3.33398 69 -2.00098c2 0.666992 3 2.66699 3 6c0 20 -12 39.333 -36 58c-22.667 16.667 -44.667 25 -66 25zM453.998 520.005c0 -30 -10.501 -53.5 -31.501 -70.5s-47.167 -25.5 -78.5 -25.5c-30 0 -55 8.33301 -75 25c-22 18 -33 41.667 -33 71
c0 30 10.667 54.333 32 73c20 16.667 45.333 25 76 25s56.334 -8.33301 77.001 -25c22 -18.667 33 -43 33 -73zM382.997 521.005c0 21.333 -13 32 -39 32c-25.333 0 -38 -10.667 -38 -32c0 -22 12.667 -33 38 -33c26 0 39 11 39 33z" />
    <glyph glyph-name="ae" unicode="&#xe6;" horiz-adv-x="926" 
d="M297 195c-14.667 -2 -26.001 -10.998 -34.001 -26.998c-6.66699 -12.667 -10 -27.334 -10 -44.001c0 -20 4.33301 -42.333 13 -67c14.667 -18.667 30.334 -27.667 47.001 -27c15.333 0.666992 27 6 35 16c4.66699 14.667 7 31 7 49c0 23.333 -4 44.666 -12 63.999
c-10.667 26.667 -26 38.667 -46 36zM232.999 322.002c-44.667 0 -80.667 -21.9971 -108 -65.9971c-4.66699 -10.667 -7 -19.334 -7 -26.001c0 -6 2.33301 -8.66699 7 -8c68.667 9.33301 114.667 13.666 138 12.999c17.333 -2.66699 40.333 -3.33398 69 -2.00098
c2 0.666992 3 2.66699 3 6c0 20 -12 39.333 -36 58c-22.667 16.667 -44.667 25 -66 25zM474.999 338.005c42.667 18.667 94.333 28.001 155 28.001c73.333 0 132.666 -14.667 177.999 -44c54.667 -34.667 83.334 -87 86.001 -157h-299c0 -46.667 23.333 -80.667 70 -102
c24.667 -11.333 47.667 -16 69 -14c55.333 5.33301 95.333 27 120 65c0.666992 0.666992 1.66699 1 3 1c3.33301 0 9 -2.33301 17 -7s11.667 -8.33398 11 -11.001c-4 -14 -23.333 -31 -58 -51c-50.667 -29.333 -115 -44 -193 -44h-5c0 -0.666992 -0.666992 -1 -2 -1h-254
c-2.66699 0 -5.33398 1 -8.00098 3s-4.66699 3 -6 3c-8 0 -18 -2.33301 -30 -7c-15.333 -6 -25.333 -9.33301 -30 -10c-33.333 -6.66699 -63.666 -10 -90.999 -10c-71.333 0 -124.666 17.667 -159.999 53c-16 16 -24 37 -24 63c0 35.333 23.333 73 70 113v143
c0 12 3.33301 18 10 18l12 -18.5c8 -12.333 14 -17.833 18 -16.5c64 21.333 126.333 32 187 32c57.333 0 108.666 -9.66699 153.999 -29zM627.998 327.006c-27.333 -10 -41 -40.334 -41 -91.001c0 -21.333 5.33301 -32.666 16 -33.999c4 0 10.667 -0.666992 20 -2
c37.333 -5.33301 57.333 -2.66602 60 8.00098c2 8 3 15.667 3 23c0 34 -9 62.667 -27 86c-8.66699 11.333 -19 14.666 -31 9.99902z" />
    <glyph glyph-name="ccedilla" unicode="&#xe7;" 
d="M427 2c-6 8.66699 -12.3301 12.002 -18.9971 10.002c-39.333 -13.333 -85 -18.666 -137 -15.999l-43 -58c14 3.33301 25.333 5 34 5c22.667 0 41.834 -6.83301 57.501 -20.5s23.5 -31.834 23.5 -54.501c0 -30.667 -12.333 -54.334 -37 -71.001
c-22 -14.667 -49 -22 -81 -22c-32.667 0 -65 7.66699 -97 23l18 40c24.667 -10.667 46.667 -16 66 -16c36 0 54 13.667 54 41c0 11.333 -4.33301 20.833 -13 28.5s-18.667 11.5 -30 11.5c-8 0 -18.667 -1.66699 -32 -5l-12 -3l-16 20l64 86
c-60.667 9.33301 -112 33.333 -154 72c-31.333 28.667 -47 64.334 -47 107.001c0 57.333 25.333 103 76 137c40.667 27.333 92.334 44 155.001 50c48 4.66699 99.333 1.66699 154 -9c10.667 1.33301 22 15.666 34 42.999c1.33301 2.66699 3.66602 3.66699 6.99902 3
c3.33301 -1.33301 5 -3.33301 5 -6v-146c0 -4.66699 -1.66699 -7.33398 -5 -8.00098c-3.33301 -1.33301 -6 0.333984 -8 5.00098c-4.66699 10.667 -11.667 25.334 -21 44.001c-16 25.333 -37 38 -63 38c-18.667 0 -33.334 -5 -44.001 -15
c-33.333 -30.667 -50 -73.334 -50 -128.001c0 -27.333 4.33301 -58.333 13 -93c3.33301 -14.667 12.666 -28 27.999 -40s30.333 -18 45 -18c19.333 0 37.666 6 54.999 18s29.666 27.333 36.999 46c1.33301 4 3 5.33301 5 4c2 -0.666992 3 -2.33398 3 -5.00098v-119
c0 -3.33301 -1.33301 -5.33301 -4 -6c-5.33301 0 -12.333 9 -21 27z" />
    <glyph glyph-name="egrave" unicode="&#xe8;" horiz-adv-x="589" 
d="M25 184c0 30.667 10.999 60.001 32.999 88.001c48.667 62.667 129.334 94 242.001 94c73.333 0 132.666 -14.667 177.999 -44c54.667 -34.667 83.334 -87 86.001 -157h-299c0 -46.667 23.333 -80.667 70 -102c24.667 -11.333 47.667 -16 69 -14
c55.333 5.33301 95.333 27 120 65c0.666992 0.666992 1.66699 1 3 1c3.33301 0 9 -2.33301 17 -7s11.667 -8.33398 11 -11.001c-4 -14 -23.333 -31 -58 -51c-52 -30 -116.333 -44.667 -193 -44c-64 0.666992 -122.333 14.667 -175 42c-69.333 36 -104 82.667 -104 140z
M297.999 327.001c-27.333 -10 -41 -40.334 -41 -91.001c0 -21.333 5.33301 -32.666 16 -33.999c4 0 10.667 -0.666992 20 -2c37.333 -5.33301 57.333 -2.66602 60 8.00098c2 8 3 15.667 3 23c0 34 -9 62.667 -27 86c-8.66699 11.333 -19 14.666 -31 9.99902zM398.999 464
l-66 -43l-162 133l97 64z" />
    <glyph glyph-name="eacute" unicode="&#xe9;" horiz-adv-x="595" 
d="M25 184c0 30.667 10.999 60.001 32.999 88.001c48.667 62.667 129.334 94 242.001 94c73.333 0 132.666 -14.667 177.999 -44c54.667 -34.667 83.334 -87 86.001 -157h-299c0 -46.667 23.333 -80.667 70 -102c24.667 -11.333 47.667 -16 69 -14
c55.333 5.33301 95.333 27 120 65c0.666992 0.666992 1.66699 1 3 1c3.33301 0 9 -2.33301 17 -7s11.667 -8.33398 11 -11.001c-4 -14 -23.333 -31 -58 -51c-52 -30 -116.333 -44.667 -193 -44c-64 0.666992 -122.333 14.667 -175 42c-69.333 36 -104 82.667 -104 140z
M297.999 327.001c-27.333 -10 -41 -40.334 -41 -91.001c0 -21.333 5.33301 -32.666 16 -33.999c4 0 10.667 -0.666992 20 -2c37.333 -5.33301 57.333 -2.66602 60 8.00098c2 8 3 15.667 3 23c0 34 -9 62.667 -27 86c-8.66699 11.333 -19 14.666 -31 9.99902zM425.999 554
l-164 -134l-66 44l131 154z" />
    <glyph glyph-name="ecircumflex" unicode="&#xea;" horiz-adv-x="586" 
d="M25 184c0 30.667 10.999 60.001 32.999 88.001c48.667 62.667 129.334 94 242.001 94c73.333 0 132.666 -14.667 177.999 -44c54.667 -34.667 83.334 -87 86.001 -157h-299c0 -46.667 23.333 -80.667 70 -102c24.667 -11.333 47.667 -16 69 -14
c55.333 5.33301 95.333 27 120 65c0.666992 0.666992 1.66699 1 3 1c3.33301 0 9 -2.33301 17 -7s11.667 -8.33398 11 -11.001c-4 -14 -23.333 -31 -58 -51c-52 -30 -116.333 -44.667 -193 -44c-64 0.666992 -122.333 14.667 -175 42c-69.333 36 -104 82.667 -104 140z
M297.999 327.001c-27.333 -10 -41 -40.334 -41 -91.001c0 -21.333 5.33301 -32.666 16 -33.999c4 0 10.667 -0.666992 20 -2c37.333 -5.33301 57.333 -2.66602 60 8.00098c2 8 3 15.667 3 23c0 34 -9 62.667 -27 86c-8.66699 11.333 -19 14.666 -31 9.99902zM463.999 493
l-55 -70l-115 73l-116 -72l-54 70l171 114z" />
    <glyph glyph-name="edieresis" unicode="&#xeb;" horiz-adv-x="592" 
d="M25 184c0 30.667 10.999 60.001 32.999 88.001c48.667 62.667 129.334 94 242.001 94c73.333 0 132.666 -14.667 177.999 -44c54.667 -34.667 83.334 -87 86.001 -157h-299c0 -46.667 23.333 -80.667 70 -102c24.667 -11.333 47.667 -16 69 -14
c55.333 5.33301 95.333 27 120 65c0.666992 0.666992 1.66699 1 3 1c3.33301 0 9 -2.33301 17 -7s11.667 -8.33398 11 -11.001c-4 -14 -23.333 -31 -58 -51c-52 -30 -116.333 -44.667 -193 -44c-64 0.666992 -122.333 14.667 -175 42c-69.333 36 -104 82.667 -104 140z
M297.999 327.001c-27.333 -10 -41 -40.334 -41 -91.001c0 -21.333 5.33301 -32.666 16 -33.999c4 0 10.667 -0.666992 20 -2c37.333 -5.33301 57.333 -2.66602 60 8.00098c2 8 3 15.667 3 23c0 34 -9 62.667 -27 86c-8.66699 11.333 -19 14.666 -31 9.99902zM467.999 488
c0 -18.667 -7.33301 -34.332 -22 -46.999s-31.667 -19 -51 -19c-20 0 -37.333 6.16699 -52 18.5s-22 28.166 -22 47.499s7.33301 35.166 22 47.499s32 18.5 52 18.5c19.333 0 36.333 -6.16699 51 -18.5s22 -28.166 22 -47.499zM264.999 488.002
c0 -18.667 -7.33301 -34.332 -22 -46.999s-31.667 -19 -51 -19c-20 0 -37.333 6.16699 -52 18.5s-22 28.166 -22 47.499s7.33301 35.166 22 47.499s32 18.5 52 18.5c19.333 0 36.333 -6.16699 51 -18.5s22 -28.166 22 -47.499z" />
    <glyph glyph-name="igrave" unicode="&#xec;" horiz-adv-x="366" 
d="M44 366h272v-307c0 -20 2.33301 -32 7 -36c14.667 -12.667 22.667 -20.334 24 -23.001c0 -1.33301 -4 -2 -12 -2h-296c-6 0 -9 0.666992 -9 2c2 1.33301 9.33301 8.33301 22 21c8 8 12 17.333 12 28v267c0 8.66699 -6 17.334 -18 26.001
c-15.333 11.333 -23 18.333 -23 21c0 2 7 3 21 3zM297 466l-66 -43l-162 133l97 64z" />
    <glyph glyph-name="iacute" unicode="&#xed;" horiz-adv-x="364" 
d="M44 366h272v-307c0 -20 2.33301 -32 7 -36c14.667 -12.667 22.667 -20.334 24 -23.001c0 -1.33301 -4 -2 -12 -2h-296c-6 0 -9 0.666992 -9 2c2 1.33301 9.33301 8.33301 22 21c8 8 12 17.333 12 28v267c0 8.66699 -6 17.334 -18 26.001
c-15.333 11.333 -23 18.333 -23 21c0 2 7 3 21 3zM313 556l-164 -134l-66 44l131 154z" />
    <glyph glyph-name="icircumflex" unicode="&#xee;" horiz-adv-x="371" 
d="M44 366h272v-307c0 -20 2.33301 -32 7 -36c14.667 -12.667 22.667 -20.334 24 -23.001c0 -1.33301 -4 -2 -12 -2h-296c-6 0 -9 0.666992 -9 2c2 1.33301 9.33301 8.33301 22 21c8 8 12 17.333 12 28v267c0 8.66699 -6 17.334 -18 26.001
c-15.333 11.333 -23 18.333 -23 21c0 2 7 3 21 3zM355 491l-55 -70l-115 73l-116 -72l-54 70l171 114z" />
    <glyph glyph-name="idieresis" unicode="&#xef;" horiz-adv-x="373" 
d="M44 366h272v-307c0 -20 2.33301 -32 7 -36c14.667 -12.667 22.667 -20.334 24 -23.001c0 -1.33301 -4 -2 -12 -2h-296c-6 0 -9 0.666992 -9 2c2 1.33301 9.33301 8.33301 22 21c8 8 12 17.333 12 28v267c0 8.66699 -6 17.334 -18 26.001
c-15.333 11.333 -23 18.333 -23 21c0 2 7 3 21 3zM368 489c0 -18.667 -7.33301 -34.332 -22 -46.999s-31.667 -19 -51 -19c-20 0 -37.333 6.16699 -52 18.5s-22 28.166 -22 47.499s7.33301 35.166 22 47.499s32 18.5 52 18.5c19.333 0 36.333 -6.16699 51 -18.5
s22 -28.166 22 -47.499zM165 489.002c0 -18.667 -7.33301 -34.332 -22 -46.999s-31.667 -19 -51 -19c-20 0 -37.333 6.16699 -52 18.5s-22 28.166 -22 47.499s7.33301 35.166 22 47.499s32 18.5 52 18.5c19.333 0 36.333 -6.16699 51 -18.5s22 -28.166 22 -47.499z" />
    <glyph glyph-name="eth" unicode="&#xf0;" horiz-adv-x="593" 
d="M344 571l-55.001 63l-126 -63l-80 81l111 53c-3.33301 2.66699 -16.666 9.66699 -39.999 21l-56 28l132 63c42.667 -18.667 73.667 -35 93 -49l107 51l90 -75l-110 -53c56 -58 97.333 -121 124 -189c22 -55.333 33 -115.333 33 -180c0 -94 -20.333 -170.333 -61 -229
c-46.667 -68.667 -115 -103 -205 -103c-82 0 -148.333 28.667 -199 86c-48 55.333 -72 124.333 -72 207c0 82 22.333 150.667 67 206c48 59.333 111.333 89 190 89c20 0 39 -2.33301 57 -7zM387.999 409c-22 28.667 -52 43.001 -90 43.001c-42 0 -74.333 -18 -97 -54
c-19.333 -30.667 -29 -68.334 -29 -113.001c0 -46.667 9.33301 -85 28 -115c22.667 -36 55.667 -54 99 -54c41.333 0 73.333 18.333 96 55c19.333 31.333 29 69 29 113c0 52 -12 93.667 -36 125z" />
    <glyph glyph-name="ntilde" unicode="&#xf1;" horiz-adv-x="731" 
d="M698 0l-292 0.000976562c-4 0 -6.33301 0.666992 -7 2c0 -2.66699 6 3 18 17c9.33301 10.667 14 18.667 14 24l-5 157c-0.666992 22 -4.66699 44.667 -12 68c-10 32 -23 48 -39 48c-36 0 -57 -47 -63 -141l-8 -132c-0.666992 -11.333 5.16602 -22 17.499 -32
s18.5 -13 18.5 -9c-0.666992 -1.33301 -2.66699 -2 -6 -2h-290c-4 0 -6 0.333008 -6 1c22.667 20.667 34 33.334 34 38.001v267c0 5.33301 -7.66699 14.666 -23 27.999l-20 17c1.33301 1.33301 5 2 11 2h263c2 0 5 -2.5 9 -7.5s7.33301 -7.83301 10 -8.5
c66 19.333 116.667 28.666 152 27.999c50.667 -1.33301 92.667 -9.33301 126 -24c46.667 -20.667 70 -52.334 70 -95.001v-207c0 -5.33301 1.33301 -9 4 -11l6 -7c0.666992 -0.666992 4.83398 -3.66699 12.501 -9s11.5 -8.66602 11.5 -9.99902
c-0.666992 -1.33301 -2.66699 -2 -6 -2zM556 516.001c-32.667 -62.667 -73.332 -94 -121.999 -94c-18 0 -43 7.83301 -75 23.5s-53 23.5 -63 23.5c-19.333 0 -36.333 -14.667 -51 -44l-65 47c32 59.333 72.667 89 122 89c19.333 0 43.666 -8 72.999 -24s49.333 -24 60 -24
c18.667 0 37 15.667 55 47z" />
    <glyph glyph-name="ograve" unicode="&#xf2;" horiz-adv-x="653" 
d="M326 369c79.333 0 147.333 -15.001 204 -45.001c66.667 -35.333 99.667 -82.666 99 -141.999c-0.666992 -64 -36 -112.333 -106 -145c-55.333 -26 -118.333 -39 -189 -39c-74.667 0 -139.667 12.667 -195 38c-72.667 33.333 -109 83 -109 149c0 62 35.667 110 107 144
c56 26.667 119 40 189 40zM329 336.999c-27.333 0.666992 -47.332 -18.666 -59.999 -57.999c-8.66699 -26.667 -13 -57.334 -13 -92.001c0 -35.333 4.66699 -67.666 14 -96.999c13.333 -42 33.666 -63 60.999 -63c28 0 48.333 21 61 63
c8.66699 29.333 12.667 61.666 12 96.999c-2 98.667 -27 148.667 -75 150zM423.001 465.999l-66 -43l-162 133l97 64z" />
    <glyph glyph-name="oacute" unicode="&#xf3;" horiz-adv-x="656" 
d="M326 369c79.333 0 147.333 -15.001 204 -45.001c66.667 -35.333 99.667 -82.666 99 -141.999c-0.666992 -64 -36 -112.333 -106 -145c-55.333 -26 -118.333 -39 -189 -39c-74.667 0 -139.667 12.667 -195 38c-72.667 33.333 -109 83 -109 149c0 62 35.667 110 107 144
c56 26.667 119 40 189 40zM329 336.999c-27.333 0.666992 -47.332 -18.666 -59.999 -57.999c-8.66699 -26.667 -13 -57.334 -13 -92.001c0 -35.333 4.66699 -67.666 14 -96.999c13.333 -42 33.666 -63 60.999 -63c28 0 48.333 21 61 63
c8.66699 29.333 12.667 61.666 12 96.999c-2 98.667 -27 148.667 -75 150zM448.001 558.999l-164 -134l-66 44l131 154z" />
    <glyph glyph-name="ocircumflex" unicode="&#xf4;" horiz-adv-x="653" 
d="M326 369c79.333 0 147.333 -15.001 204 -45.001c66.667 -35.333 99.667 -82.666 99 -141.999c-0.666992 -64 -36 -112.333 -106 -145c-55.333 -26 -118.333 -39 -189 -39c-74.667 0 -139.667 12.667 -195 38c-72.667 33.333 -109 83 -109 149c0 62 35.667 110 107 144
c56 26.667 119 40 189 40zM329 336.999c-27.333 0.666992 -47.332 -18.666 -59.999 -57.999c-8.66699 -26.667 -13 -57.334 -13 -92.001c0 -35.333 4.66699 -67.666 14 -96.999c13.333 -42 33.666 -63 60.999 -63c28 0 48.333 21 61 63
c8.66699 29.333 12.667 61.666 12 96.999c-2 98.667 -27 148.667 -75 150zM498.001 491.999l-55 -70l-115 73l-116 -72l-54 70l171 114z" />
    <glyph glyph-name="otilde" unicode="&#xf5;" horiz-adv-x="650" 
d="M326 369c79.333 0 147.333 -15.001 204 -45.001c66.667 -35.333 99.667 -82.666 99 -141.999c-0.666992 -64 -36 -112.333 -106 -145c-55.333 -26 -118.333 -39 -189 -39c-74.667 0 -139.667 12.667 -195 38c-72.667 33.333 -109 83 -109 149c0 62 35.667 110 107 144
c56 26.667 119 40 189 40zM329 336.999c-27.333 0.666992 -47.332 -18.666 -59.999 -57.999c-8.66699 -26.667 -13 -57.334 -13 -92.001c0 -35.333 4.66699 -67.666 14 -96.999c13.333 -42 33.666 -63 60.999 -63c28 0 48.333 21 61 63
c8.66699 29.333 12.667 61.666 12 96.999c-2 98.667 -27 148.667 -75 150zM520.001 515.999c-32.667 -62.667 -73.332 -94 -121.999 -94c-18 0 -43 7.83301 -75 23.5s-53 23.5 -63 23.5c-19.333 0 -36.333 -14.667 -51 -44l-65 47c32 59.333 72.667 89 122 89
c19.333 0 43.666 -8 72.999 -24s49.333 -24 60 -24c18.667 0 37 15.667 55 47z" />
    <glyph glyph-name="odieresis" unicode="&#xf6;" horiz-adv-x="650" 
d="M326 369c79.333 0 147.333 -15.001 204 -45.001c66.667 -35.333 99.667 -82.666 99 -141.999c-0.666992 -64 -36 -112.333 -106 -145c-55.333 -26 -118.333 -39 -189 -39c-74.667 0 -139.667 12.667 -195 38c-72.667 33.333 -109 83 -109 149c0 62 35.667 110 107 144
c56 26.667 119 40 189 40zM329 336.999c-27.333 0.666992 -47.332 -18.666 -59.999 -57.999c-8.66699 -26.667 -13 -57.334 -13 -92.001c0 -35.333 4.66699 -67.666 14 -96.999c13.333 -42 33.666 -63 60.999 -63c28 0 48.333 21 61 63
c8.66699 29.333 12.667 61.666 12 96.999c-2 98.667 -27 148.667 -75 150zM505.001 487.999c0 -18.667 -7.33301 -34.332 -22 -46.999s-31.667 -19 -51 -19c-20 0 -37.333 6.16699 -52 18.5s-22 28.166 -22 47.499s7.33301 35.166 22 47.499s32 18.5 52 18.5
c19.333 0 36.333 -6.16699 51 -18.5s22 -28.166 22 -47.499zM302.001 488.001c0 -18.667 -7.33301 -34.332 -22 -46.999s-31.667 -19 -51 -19c-20 0 -37.333 6.16699 -52 18.5s-22 28.166 -22 47.499s7.33301 35.166 22 47.499s32 18.5 52 18.5
c19.333 0 36.333 -6.16699 51 -18.5s22 -28.166 22 -47.499z" />
    <glyph glyph-name="divide" unicode="&#xf7;" horiz-adv-x="458" 
d="M435 296l-62 -82h-347l62 82h347zM183 399c0 13.333 4.83301 24.833 14.5 34.5s21.167 14.5 34.5 14.5s24.833 -4.83301 34.5 -14.5s14.5 -21.167 14.5 -34.5s-4.83301 -24.833 -14.5 -34.5s-21.167 -14.5 -34.5 -14.5s-24.833 4.83301 -34.5 14.5
s-14.5 21.167 -14.5 34.5zM183 109c0 13.333 4.83301 24.833 14.5 34.5s21.167 14.5 34.5 14.5s24.833 -4.83301 34.5 -14.5s14.5 -21.167 14.5 -34.5s-4.83301 -24.833 -14.5 -34.5s-21.167 -14.5 -34.5 -14.5s-24.833 4.83301 -34.5 14.5s-14.5 21.167 -14.5 34.5z" />
    <glyph glyph-name="oslash" unicode="&#xf8;" horiz-adv-x="460" 
d="M178 126c7.33301 -66.667 24.333 -100 51 -100c22 0 37.667 22.667 47 68c6.66699 28 10 59 10 93c0 15.333 -1 30 -3 44zM278 266l-2 5.99902c-8.66699 39.333 -24 59 -46 59c-20 0.666992 -35 -19.333 -45 -60c-6.66699 -27.333 -10 -55.666 -10 -84.999v-23z
M421 365.999l-49.002 -48.002l2 -1c44.667 -34 67.334 -78.333 68.001 -133c0.666992 -55.333 -21.333 -100.666 -66 -135.999c-42 -33.333 -91.333 -49.666 -148 -48.999c-51.333 0 -96.666 14.333 -135.999 43l-42 -42h-38l59 59c-36.667 34 -54.667 75.667 -54 125
c0.666992 54 23.334 98.333 68.001 133c41.333 31.333 89.666 47 144.999 47c43.333 0 82.333 -9.66699 117 -29l31 31h43z" />
    <glyph glyph-name="ugrave" unicode="&#xf9;" horiz-adv-x="743" 
d="M30 362h297.001c4.66699 0 7 -0.666992 7 -2c-4 -2 -10.333 -8.66699 -19 -20s-13 -19 -13 -23l5 -160c0.666992 -22.667 4.66699 -46 12 -70c10 -33.333 23.667 -50 41 -50c34.667 0 55.667 48.333 63 145l10 135c0.666992 13.333 -12 27.666 -38 42.999
c0.666992 1.33301 2.66699 2 6 2h296c4 0 6 -0.666992 6 -2l-22 -22c-8.66699 -8.66699 -13 -14.334 -13 -17.001v-272c0 -6 2.66699 -11.333 8 -16l16 -14c10.667 -9.33301 17.334 -14.666 20.001 -15.999c0 -1.33301 -3.33301 -2 -10 -2h-269c-2 0 -5.16699 2.5 -9.5 7.5
s-7.83301 7.83301 -10.5 8.5c-66.667 -19.333 -118.334 -28.666 -155.001 -27.999c-133.333 2.66699 -200 42.667 -200 120v212c0 4.66699 -3.33301 11 -10 19c-0.666992 0.666992 -4.83398 3.66699 -12.501 9s-11.5 9 -11.5 11c0.666992 1.33301 2.66699 2 6 2z
M469.001 465l-66 -43l-162 133l97 64z" />
    <glyph glyph-name="uacute" unicode="&#xfa;" horiz-adv-x="737" 
d="M30 362h297.001c4.66699 0 7 -0.666992 7 -2c-4 -2 -10.333 -8.66699 -19 -20s-13 -19 -13 -23l5 -160c0.666992 -22.667 4.66699 -46 12 -70c10 -33.333 23.667 -50 41 -50c34.667 0 55.667 48.333 63 145l10 135c0.666992 13.333 -12 27.666 -38 42.999
c0.666992 1.33301 2.66699 2 6 2h296c4 0 6 -0.666992 6 -2l-22 -22c-8.66699 -8.66699 -13 -14.334 -13 -17.001v-272c0 -6 2.66699 -11.333 8 -16l16 -14c10.667 -9.33301 17.334 -14.666 20.001 -15.999c0 -1.33301 -3.33301 -2 -10 -2h-269c-2 0 -5.16699 2.5 -9.5 7.5
s-7.83301 7.83301 -10.5 8.5c-66.667 -19.333 -118.334 -28.666 -155.001 -27.999c-133.333 2.66699 -200 42.667 -200 120v212c0 4.66699 -3.33301 11 -10 19c-0.666992 0.666992 -4.83398 3.66699 -12.501 9s-11.5 9 -11.5 11c0.666992 1.33301 2.66699 2 6 2z
M498.001 555l-164 -134l-66 44l131 154z" />
    <glyph glyph-name="ucircumflex" unicode="&#xfb;" horiz-adv-x="740" 
d="M30 362h297.001c4.66699 0 7 -0.666992 7 -2c-4 -2 -10.333 -8.66699 -19 -20s-13 -19 -13 -23l5 -160c0.666992 -22.667 4.66699 -46 12 -70c10 -33.333 23.667 -50 41 -50c34.667 0 55.667 48.333 63 145l10 135c0.666992 13.333 -12 27.666 -38 42.999
c0.666992 1.33301 2.66699 2 6 2h296c4 0 6 -0.666992 6 -2l-22 -22c-8.66699 -8.66699 -13 -14.334 -13 -17.001v-272c0 -6 2.66699 -11.333 8 -16l16 -14c10.667 -9.33301 17.334 -14.666 20.001 -15.999c0 -1.33301 -3.33301 -2 -10 -2h-269c-2 0 -5.16699 2.5 -9.5 7.5
s-7.83301 7.83301 -10.5 8.5c-66.667 -19.333 -118.334 -28.666 -155.001 -27.999c-133.333 2.66699 -200 42.667 -200 120v212c0 4.66699 -3.33301 11 -10 19c-0.666992 0.666992 -4.83398 3.66699 -12.501 9s-11.5 9 -11.5 11c0.666992 1.33301 2.66699 2 6 2z
M555.001 491l-55 -70l-115 73l-116 -72l-54 70l171 114z" />
    <glyph glyph-name="udieresis" unicode="&#xfc;" horiz-adv-x="740" 
d="M30 362h297.001c4.66699 0 7 -0.666992 7 -2c-4 -2 -10.333 -8.66699 -19 -20s-13 -19 -13 -23l5 -160c0.666992 -22.667 4.66699 -46 12 -70c10 -33.333 23.667 -50 41 -50c34.667 0 55.667 48.333 63 145l10 135c0.666992 13.333 -12 27.666 -38 42.999
c0.666992 1.33301 2.66699 2 6 2h296c4 0 6 -0.666992 6 -2l-22 -22c-8.66699 -8.66699 -13 -14.334 -13 -17.001v-272c0 -6 2.66699 -11.333 8 -16l16 -14c10.667 -9.33301 17.334 -14.666 20.001 -15.999c0 -1.33301 -3.33301 -2 -10 -2h-269c-2 0 -5.16699 2.5 -9.5 7.5
s-7.83301 7.83301 -10.5 8.5c-66.667 -19.333 -118.334 -28.666 -155.001 -27.999c-133.333 2.66699 -200 42.667 -200 120v212c0 4.66699 -3.33301 11 -10 19c-0.666992 0.666992 -4.83398 3.66699 -12.501 9s-11.5 9 -11.5 11c0.666992 1.33301 2.66699 2 6 2z
M565.001 487c0 -18.667 -7.33301 -34.332 -22 -46.999s-31.667 -19 -51 -19c-20 0 -37.333 6.16699 -52 18.5s-22 28.166 -22 47.499s7.33301 35.166 22 47.499s32 18.5 52 18.5c19.333 0 36.333 -6.16699 51 -18.5s22 -28.166 22 -47.499zM362.001 487.002
c0 -18.667 -7.33301 -34.332 -22 -46.999s-31.667 -19 -51 -19c-20 0 -37.333 6.16699 -52 18.5s-22 28.166 -22 47.499s7.33301 35.166 22 47.499s32 18.5 52 18.5c19.333 0 36.333 -6.16699 51 -18.5s22 -28.166 22 -47.499z" />
    <glyph glyph-name="yacute" unicode="&#xfd;" horiz-adv-x="638" 
d="M256 -112c35.333 24 55.3311 50.3359 59.998 79.0029c2 12 -35.333 75.333 -112 190c-74 110 -116 169 -126 177c-1.33301 0.666992 -9.5 5.5 -24.5 14.5s-22.5 14.167 -22.5 15.5c0.666992 1.33301 2.66699 2 6 2h361c2.66699 0 4.33398 -0.333008 5.00098 -1l-17.5 -14
c-11.667 -9.33301 -18.167 -16 -19.5 -20c-2 -8.66699 8.33301 -34.5 31 -77.5s36.667 -64.5 42 -64.5c7.33301 0 30.666 44.667 69.999 134c0 5.33301 -7.33301 13.666 -22 24.999l-23 16c0.666992 1.33301 2.33398 2 5.00098 2h162c6 0 9.33301 -0.666992 10 -2
c0 -6.66699 -6 -12 -18 -16c-15.333 -4.66699 -24.666 -8.33398 -27.999 -11.001c-8 -7.33301 -40.667 -52.666 -98 -135.999c-62 -90 -96 -145.333 -102 -166c-21.333 -72.667 -32 -117.334 -32 -134.001c0 -6.66699 6 -14.334 18 -23.001l17 -12
c0 -1.33301 -3.66699 -2 -11 -2h-165c-3.33301 0 -5.33301 0.666992 -6 2c0 1.33301 6.33301 5 19 11s19.667 9.66699 21 11zM526.998 559.003l-164 -134l-66 44l131 154z" />
    <glyph glyph-name="thorn" unicode="&#xfe;" horiz-adv-x="674" 
d="M78 364l-1.99902 87.999c-0.666992 18.667 -7.33398 33 -20.001 43l-21 16c0 2.66699 9 4 27 4h246c16 0 24 -0.666992 24 -2l-20 -13c-13.333 -8.66699 -20 -18.667 -20 -30v-106h18c2.66699 0 6 -2.83301 10 -8.5s7 -8.16699 9 -7.5c44.667 12 84 18 118 18
c40.667 0 80.334 -11 119.001 -33c58.667 -33.333 88.667 -84.666 90 -153.999c0.666992 -37.333 -10 -72 -32 -104c-22.667 -34 -51.5 -55.333 -86.5 -64s-66.833 -13 -95.5 -13s-73.334 8.33301 -134.001 25c-10.667 0 -16 -6.33301 -16 -19v-105
c0 -11.333 6.66699 -21.333 20 -30l20 -13c0 -1.33301 -8 -2 -24 -2h-246c-18 0 -27 1.33301 -27 4l21 16c13.333 10 20 24.333 20 43l1 447h1zM376.001 36.999c26 1.33301 45.001 22.001 57.001 62.001c8.66699 28 13 58.667 13 92c0 26.667 -4.33301 54 -13 82
c-11.333 37.333 -28.333 56 -51 56c-22 0 -39.667 -19 -53 -57c-9.33301 -27.333 -14.333 -55 -15 -83c-0.666992 -31.333 2.66602 -61.333 9.99902 -90c10.667 -42.667 28 -63.334 52 -62.001z" />
    <glyph glyph-name="ydieresis" unicode="&#xff;" horiz-adv-x="669" 
d="M256 -112c35.333 24 55.3311 50.3359 59.998 79.0029c2 12 -35.333 75.333 -112 190c-74 110 -116 169 -126 177c-1.33301 0.666992 -9.5 5.5 -24.5 14.5s-22.5 14.167 -22.5 15.5c0.666992 1.33301 2.66699 2 6 2h361c2.66699 0 4.33398 -0.333008 5.00098 -1l-17.5 -14
c-11.667 -9.33301 -18.167 -16 -19.5 -20c-2 -8.66699 8.33301 -34.5 31 -77.5s36.667 -64.5 42 -64.5c7.33301 0 30.666 44.667 69.999 134c0 5.33301 -7.33301 13.666 -22 24.999l-23 16c0.666992 1.33301 2.33398 2 5.00098 2h162c6 0 9.33301 -0.666992 10 -2
c0 -6.66699 -6 -12 -18 -16c-15.333 -4.66699 -24.666 -8.33398 -27.999 -11.001c-8 -7.33301 -40.667 -52.666 -98 -135.999c-62 -90 -96 -145.333 -102 -166c-21.333 -72.667 -32 -117.334 -32 -134.001c0 -6.66699 6 -14.334 18 -23.001l17 -12
c0 -1.33301 -3.66699 -2 -11 -2h-165c-3.33301 0 -5.33301 0.666992 -6 2c0 1.33301 6.33301 5 19 11s19.667 9.66699 21 11zM580.998 490.003c0 -18.667 -7.33301 -34.332 -22 -46.999s-31.667 -19 -51 -19c-20 0 -37.333 6.16699 -52 18.5s-22 28.166 -22 47.499
s7.33301 35.166 22 47.499s32 18.5 52 18.5c19.333 0 36.333 -6.16699 51 -18.5s22 -28.166 22 -47.499zM377.998 490.005c0 -18.667 -7.33301 -34.332 -22 -46.999s-31.667 -19 -51 -19c-20 0 -37.333 6.16699 -52 18.5s-22 28.166 -22 47.499s7.33301 35.166 22 47.499
s32 18.5 52 18.5c19.333 0 36.333 -6.16699 51 -18.5s22 -28.166 22 -47.499z" />
    <glyph glyph-name="dotlessi" unicode="&#x131;" horiz-adv-x="366" 
d="M44 366h272v-307c0 -20 2.33301 -32 7 -36c14.667 -12.667 22.667 -20.334 24 -23.001c0 -1.33301 -4 -2 -12 -2h-296c-6 0 -9 0.666992 -9 2c2 1.33301 9.33301 8.33301 22 21c8 8 12 17.333 12 28v267c0 8.66699 -6 17.334 -18 26.001
c-15.333 11.333 -23 18.333 -23 21c0 2 7 3 21 3z" />
    <glyph glyph-name="Lslash" unicode="&#x141;" horiz-adv-x="705" 
d="M386 670c-9.33301 -11.333 -14.001 -28.001 -14.001 -50.001v-132l108 46v-49l-108 -46v-375c0 -13.333 6.66699 -20 20 -20h121c71.333 0 112 7 122 21c4.66699 6.66699 12 19 22 37c7.33301 13.333 12 20 14 20c1.33301 -0.666992 2 -3 2 -7v-157
c0 -6.66699 -1 -10 -3 -10c-2 2 -11 14.333 -27 37c-8.66699 12 -28 18 -58 18h-534c-4.66699 0 -7 0.666992 -7 2c1.33301 2 6.33301 5.33301 15 10l21 11c9.33301 8 14 17 14 27v267l-104 -44v48l104 45v259c0 14.667 -7.33301 28.334 -22 41.001l-34 30
c0.666992 1.33301 2.66699 2 6 2h365c3.33301 0 5 -0.666992 5 -2c-1.33301 -2 -5.66602 -6.66699 -12.999 -14z" />
    <glyph glyph-name="lslash" unicode="&#x142;" horiz-adv-x="417" 
d="M362 701l-7 -216.998l59 26v-49l-61 -26l-12 -391c-0.666992 -10.667 4 -19.334 14 -26.001l24 -16c-0.666992 -0.666992 -3 -1 -7 -1h-307c-2.66699 0 -4 0.666992 -4 2c0.666992 2 3.66699 4.83301 9 8.5l17 12c6 4.33301 8.66699 16.166 8 35.499l-5 261l-100 -44v48
l99 44l-5 269c0 16.667 -10.333 31.667 -31 45l-27 18c0.666992 0.666992 2 1 4 1h332z" />
    <glyph glyph-name="OE" unicode="&#x152;" horiz-adv-x="1129" 
d="M440 51c39.333 0 68.667 37.665 88 112.998c14.667 56.667 22 122.667 22 198c0 58 -6 112 -18 162c-18 76 -47.667 114.333 -89 115c-34 0.666992 -61 -31 -81 -95c-17.333 -55.333 -26 -116.666 -26 -183.999c0 -79.333 7 -146.666 21 -201.999
c18 -71.333 45.667 -107 83 -107zM490.001 699.998l543.002 0.000976562c20 0 34.333 2 43 6c3.33301 1.33301 9.33301 7.83301 18 19.5s13.667 17.5 15 17.5c1.33301 -0.666992 2 -3.33398 2 -8.00098v-143c0 -10 -1 -15 -3 -15c-0.666992 0 -6.83398 9.33301 -18.501 28
s-19.5 29.667 -23.5 33c-18.667 14.667 -51.334 22 -98.001 22h-99c-22.667 0 -36.667 -2.5 -42 -7.5s-10.333 -18.667 -15 -41s-7 -38.5 -7 -48.5v-189h181c29.333 0 50 3 62 9c5.33301 2.66699 13.666 10 24.999 22c2.66699 2.66699 8 9.66699 16 21
c6.66699 9.33301 11.334 14 14.001 14c1.33301 -0.666992 2 -2.66699 2 -6v-165c0 -4 -1 -6 -3 -6c-2.66699 0 -9 6.33301 -19 19l-23 30c-11.333 14.667 -55 22 -131 22h-124v-271c0 -13.333 6.66699 -20 20 -20h121c70.667 0 111.334 7.33301 122.001 22
c4.66699 6.66699 12 19 22 37c7.33301 13.333 12 20 14 20c1.33301 -0.666992 2 -3 2 -7v-158c0 -6.66699 -1 -10 -3 -10c-2 2 -11 14.333 -27 37c-8.66699 12 -28 18 -58 18h-511c-22 -2.66699 -44.667 -4 -68 -4c-108 0.666992 -201.667 33 -281 97
c-84.667 68.667 -126.334 155.667 -125.001 261c1.33301 104 45 189 131 255c79.333 60.667 172.333 91 279 91c16 0 31.667 -0.666992 47 -2z" />
    <glyph glyph-name="oe" unicode="&#x153;" horiz-adv-x="981" 
d="M329 337c-27.333 0.666992 -47.332 -18.666 -59.999 -57.999c-8.66699 -26.667 -13 -57.334 -13 -92.001c0 -35.333 4.66699 -67.666 14 -96.999c13.333 -42 33.666 -63 60.999 -63c28 0 48.333 21 61 63c8.66699 29.333 12.667 61.666 12 96.999
c-2 98.667 -27 148.667 -75 150zM518.001 330c45.333 24 102.667 36.001 172 36.001c73.333 0 132.666 -14.667 177.999 -44c54.667 -34.667 83.334 -87 86.001 -157h-299c0 -46.667 23.333 -80.667 70 -102c24.667 -11.333 47.667 -16 69 -14
c55.333 5.33301 95.333 27 120 65c0.666992 0.666992 1.66699 1 3 1c3.33301 0 9 -2.33301 17 -7s11.667 -8.33398 11 -11.001c-4 -14 -23.333 -31 -58 -51c-52 -30 -116.333 -44.667 -193 -44c-60.667 0.666992 -116 13 -166 37l-5 -2c-54 -26 -117 -39 -189 -39
c-74.667 0 -139.667 12.667 -195 38c-72.667 33.333 -109 83 -109 149c0 62 35.667 110 107 144c56 26.667 119 40 189 40c74 0 138 -13 192 -39zM688.002 327.001c-27.333 -10 -41 -40.334 -41 -91.001c0 -21.333 5.33301 -32.666 16 -33.999c4 0 10.667 -0.666992 20 -2
c37.333 -5.33301 57.333 -2.66602 60 8.00098c2 8 3 15.667 3 23c0 34 -9 62.667 -27 86c-8.66699 11.333 -19 14.666 -31 9.99902z" />
    <glyph glyph-name="Scaron" unicode="&#x160;" horiz-adv-x="693" 
d="M659 698l0.00585938 -177.999c0 -8 -1.66699 -12 -5 -12c-2.66699 0 -5.33398 2.33301 -8.00098 7c-42 94 -109.667 142.667 -203 146c-32 1.33301 -60.333 -8.33398 -85 -29.001c-26.667 -22 -38.334 -48.667 -35.001 -80c3.33301 -32.667 11.333 -56.334 24 -71.001
c19.333 -22.667 56.333 -40.667 111 -54c140.667 -34 211 -100.667 211 -200c0 -82.667 -39.333 -144 -118 -184c-61.333 -31.333 -137.333 -46.666 -228 -45.999c-31.333 0 -77.5 5 -138.5 15s-87.167 15 -78.5 15c-6.66699 0 -15.834 -8 -27.501 -24l-17.5 -24
c-1.33301 0 -2 3.33301 -2 10v191c0 6 0.333008 9.33301 1 10c1.33301 -4.66699 7.66602 -18 18.999 -40c39.333 -76 99.666 -116.667 180.999 -122c28.667 -2 55.5 5.66699 80.5 23s37.167 40 36.5 68c-2 51.333 -24.667 87.333 -68 108
c-24 6.66699 -66.333 20.334 -127 41.001c-97.333 35.333 -146.333 105.666 -147 210.999c-0.666992 74 41.333 131.667 126 173c68 33.333 143.333 49.333 226 48c64.667 -0.666992 121.667 -7.66699 171 -21c43.333 -11.333 63 -17.333 59 -18
c5.33301 0.666992 13.166 8.66699 23.499 24l15.5 23c2 0 3 -3.33301 3 -10zM548.006 844.001l-171 -112l-170 113l52 68l118 -69l120 69z" />
    <glyph glyph-name="scaron" unicode="&#x161;" 
d="M69 94c28.667 -38.667 76.3359 -58.998 143.003 -60.998c15.333 -0.666992 28.666 2 39.999 8c14 7.33301 20.667 18 20 32c-1.33301 24.667 -19 41.667 -53 51l-70 9c-81.333 11.333 -122 45.666 -122 102.999c0 50 30.333 86.333 91 109c42.667 16 94 24 154 24
c20 0 50 -3.33301 90 -10s57 -10 51 -10c4.66699 0 13.167 6 25.5 18s18.833 18 19.5 18c2 0 3 -2.33301 3 -7v-128c0 -5.33301 -1 -8 -3 -8c-1.33301 0 -7.66602 7.66699 -18.999 23c-13.333 17.333 -20.333 26.666 -21 27.999c-24.667 27.333 -56.334 42 -95.001 44
c-14.667 0.666992 -28.334 -2.66602 -41.001 -9.99902s-19 -18 -19 -32c0 -22 18.333 -37.667 55 -47c62 -16 95.667 -25.333 101 -28c36.667 -16.667 54.667 -44.667 54 -84c-0.666992 -50 -30.667 -86.667 -90 -110c-40 -16 -90.667 -24.667 -152 -26
c-21.333 -0.666992 -53.5 3.66602 -96.5 12.999s-60.833 14 -53.5 14c-5.33301 0 -12.5 -5.5 -21.5 -16.5l-13.5 -16.5c-0.666992 0.666992 -1 2 -1 4v121c0 5.33301 0.666992 8 2 8s8.66602 -11 21.999 -33zM423.002 539.002l-171 -112l-170 113l52 68l118 -69l120 69z" />
    <glyph glyph-name="Ydieresis" unicode="&#x178;" horiz-adv-x="946" 
d="M47 702h436.002c6 0 9 -1 9 -3c0 -2.66699 -6.83301 -8.33398 -20.5 -17.001s-20.5 -14.334 -20.5 -17.001c0 -17.333 23 -66.666 69 -147.999s72.333 -122 79 -122c48.667 0 88.667 32 120 96c22.667 46 34 91 34 135c0 12.667 -1 25.334 -3 38.001
c-0.666992 4 -8 10.5 -22 19.5s-21 14.167 -21 15.5c0 2 2.66699 3 8 3h197c2.66699 0 4 -0.333008 4 -1c0 -1.33301 -7.33301 -6 -22 -14l-27 -14c-16.667 -10.667 -33.334 -27.667 -50.001 -51l-205 -287v-304c0 -0.666992 6.33301 -5 19 -13l24 -15
c-0.666992 -1.33301 -2.33398 -2 -5.00098 -2h-368c-4 0 -6 0.333008 -6 1c0 2 4 4.66699 12 8s12.333 5.33301 13 6c14.667 9.33301 22 17 22 23v246c0 26.667 -10.333 55 -31 85l-179 257c-8 11.333 -22.333 25.666 -43 42.999l-21 14c-10 6.66699 -15 11.334 -15 14.001
s4.33301 4 13 4zM786.002 797c0 -18.667 -7.33301 -34.332 -22 -46.999s-31.667 -19 -51 -19c-20 0 -37.333 6.16699 -52 18.5s-22 28.166 -22 47.499s7.33301 35.166 22 47.499s32 18.5 52 18.5c19.333 0 36.333 -6.16699 51 -18.5s22 -28.166 22 -47.499zM583.002 797.002
c0 -18.667 -7.33301 -34.332 -22 -46.999s-31.667 -19 -51 -19c-20 0 -37.333 6.16699 -52 18.5s-22 28.166 -22 47.499s7.33301 35.166 22 47.499s32 18.5 52 18.5c19.333 0 36.333 -6.16699 51 -18.5s22 -28.166 22 -47.499z" />
    <glyph glyph-name="Zcaron" unicode="&#x17d;" horiz-adv-x="738" 
d="M81 699l607 0.00195312c11.333 0 17 -1 17 -3c0 -2.66699 -2 -6.66699 -6 -12l-358 -621c-6 -10.667 -4.66699 -19.334 4 -26.001c3.33301 -2.66699 15.333 -4 36 -4c32.667 0 76.667 3 132 9c66 7.33301 107.333 15 124 23c7.33301 3.33301 16.5 18.5 27.5 45.5
s17.167 40.5 18.5 40.5c1.33301 -1.33301 2 -5 2 -11v-180c0 -8 -1 -12 -3 -12l-16 19.5c-10.667 13 -18.667 20.5 -24 22.5c-17.333 7.33301 -108 11 -272 11h-308c-17.333 0 -26.333 0.333008 -27 1s2.33301 7.66699 9 21l297 596c6.66699 18.667 9 29.334 7 32.001
c-2.66699 3.33301 -14.334 4.66602 -35.001 3.99902c-27.333 3.33301 -65 1.66602 -113 -5.00098c-53.333 -6.66699 -88 -16.667 -104 -30c-18 -14.667 -35.667 -42.667 -53 -84c-4 0 -6 6.33301 -6 19v142c0 14.667 2.33301 22.667 7 24l14 -11
c8.66699 -7.33301 16.334 -11 23.001 -11zM558 839.002l-171 -112l-170 113l52 68l118 -69l120 69z" />
    <glyph glyph-name="zcaron" unicode="&#x17e;" horiz-adv-x="545" 
d="M505 375c10 0 15.666 -1.33105 16.999 -3.99805c2 -4 0.666992 -9.66699 -4 -17l-195 -295c-2 -3.33301 -3 -6 -3 -8c0 -11.333 29 -15 87 -11c39.333 2.66699 63.333 7.66699 72 15c1.33301 1.33301 7 7.83301 17 19.5s15.333 17.5 16 17.5
c1.33301 -0.666992 2 -2.33398 2 -5.00098v-118c0 -3.33301 -0.666992 -5 -2 -5c-0.666992 0 -6 6 -16 18s-17 18 -21 18h-433c-8 0 -12.333 0.666992 -13 2c-1.33301 2 0.333984 6.66699 5.00098 14l174 288c5.33301 9.33301 7 16.666 5 21.999
c-1.33301 2.66699 -7 4 -17 4h-108c-8 0 -17.333 -7.83301 -28 -23.5s-17 -23.5 -19 -23.5c-1.33301 0 -2 2 -2 6v116c0 4 1 6 3 6c4 0 10 -7.33301 18 -22c4.66699 -9.33301 11.667 -14 21 -14h424zM472.999 535.002l-171 -112l-170 113l52 68l118 -69l120 69z" />
    <glyph glyph-name="florin" unicode="&#x192;" horiz-adv-x="556" 
d="M501 721l-15.001 -78c-26 11.333 -46 17 -60 17c-20 0 -36.5 -8.83301 -49.5 -26.5s-22.5 -41.834 -28.5 -72.501l-20 -99h114v-71h-127l-64 -351c-14 -75.333 -37.333 -135.333 -70 -180s-76.667 -67 -132 -67c-25.333 0 -45.666 4.33301 -60.999 13l16 81
c17.333 -9.33301 35 -14 53 -14c30.667 0 54.667 18.333 72 55c8.66699 19.333 17 51 25 95l68 368h-109v71h123l3 12l26 114c10 36.667 24 66.334 42 89.001c31.333 40 72 60 122 60c22.667 0 46.667 -5.33301 72 -16z" />
    <glyph glyph-name="circumflex" unicode="&#x2c6;" horiz-adv-x="492" 
d="M434 589l-55 -70l-115 73l-116 -72l-54 70l171 114z" />
    <glyph glyph-name="caron" unicode="&#x2c7;" horiz-adv-x="462" 
d="M396 635l-171 -112l-170 113l52 68l118 -69l120 69z" />
    <glyph glyph-name="breve" unicode="&#x2d8;" horiz-adv-x="512" 
d="M423 685c-5.33301 -42.667 -23.5 -76.5 -54.5 -101.5s-68.5 -37.5 -112.5 -37.5c-43.333 0 -80.333 12.5 -111 37.5s-49.334 58.833 -56.001 101.5h79c14.667 -35.333 44 -53 88 -53c44.667 0 74.334 17.667 89.001 53h78z" />
    <glyph glyph-name="dotaccent" unicode="&#x2d9;" horiz-adv-x="392" 
d="M299 619c0 -19.333 -7.16699 -35.166 -21.5 -47.499s-31.5 -18.5 -51.5 -18.5s-37.333 6.16699 -52 18.5s-22 28.166 -22 47.499s7.33301 34.833 22 46.5s32 17.5 52 17.5c19.333 0 36.333 -5.83301 51 -17.5s22 -27.167 22 -46.5z" />
    <glyph glyph-name="ring" unicode="&#x2da;" horiz-adv-x="477" 
d="M340 609c0 -30 -10.501 -53.5 -31.501 -70.5s-47.167 -25.5 -78.5 -25.5c-30 0 -55 8.33301 -75 25c-22 18 -33 41.667 -33 71c0 30 10.667 54.333 32 73c20 16.667 45.333 25 76 25s56.334 -8.33301 77.001 -25c22 -18.667 33 -43 33 -73zM268.999 610
c0 21.333 -13 32 -39 32c-25.333 0 -38 -10.667 -38 -32c0 -22 12.667 -33 38 -33c26 0 39 11 39 33z" />
    <glyph glyph-name="ogonek" unicode="&#x2db;" horiz-adv-x="311" 
d="M235 -123l-17.001 -59c-20.667 -13.333 -44 -20 -70 -20c-26.667 0 -50 6.66699 -70 20c-23.333 15.333 -35 35.666 -35 60.999c0 22.667 9.33301 46 28 70c16.667 22 36.334 39 59.001 51h65v-11c-13.333 -7.33301 -26 -19 -38 -35c-14 -17.333 -21 -32.666 -21 -45.999
c0 -22 14.667 -33 44 -33c16 0 33 7 51 21z" />
    <glyph glyph-name="tilde" unicode="&#x2dc;" horiz-adv-x="515" 
d="M444 643c-32.667 -62.667 -73.332 -94 -121.999 -94c-18 0 -43 7.83301 -75 23.5s-53 23.5 -63 23.5c-19.333 0 -36.333 -14.667 -51 -44l-65 47c32 59.333 72.667 89 122 89c19.333 0 43.666 -8 72.999 -24s49.333 -24 60 -24c18.667 0 37 15.667 55 47z" />
    <glyph glyph-name="hungarumlaut" unicode="&#x2dd;" horiz-adv-x="522" 
d="M469 679l-112 -161l-79 13l77 169zM292 684l-109 -158l-79 13l73 165z" />
    <glyph glyph-name="Delta" unicode="&#x394;" horiz-adv-x="636" 
d="M632 0h-626l333 717zM502 52l-200 484l-226 -484h426z" />
    <glyph glyph-name="Delta" unicode="&#x2206;" horiz-adv-x="636" 
d="M632 0h-626l333 717zM502 52l-200 484l-226 -484h426z" />
    <glyph glyph-name="Omega" unicode="&#x3a9;" horiz-adv-x="799" 
d="M765 0l-306.003 0.00195312l16 158c34.667 14 60.667 30 78 48c46 46.667 69 117 69 211c0 79.333 -17 141.666 -51 186.999c-38.667 52 -96 78 -172 78c-74 0 -130.333 -26.333 -169 -79c-34.667 -46.667 -52 -108.334 -52 -185.001c0 -94.667 24 -166 72 -214
c18 -18 43.667 -33.333 77 -46l16 -158h-308v168h18c4 -16 7.33301 -26.667 10 -32c5.33301 -13.333 12.333 -21.333 21 -24c17.333 -6.66699 53.333 -9.33398 108 -8.00098l92 2l-2 28c-59.333 18 -103 39.667 -131 65c-63.333 56.667 -95 128.334 -95 215.001
c0 93.333 35 168 105 224c64.667 52 144.667 78 240 78c94.667 0 174.334 -26 239.001 -78c70 -56 105 -130.333 105 -223c0 -48.667 -11.333 -95 -34 -139c-24 -46 -56.333 -80.333 -97 -103c-26.667 -14.667 -58 -27.667 -94 -39l-2 -28
c10.667 0 26.334 -0.333008 47.001 -1s36.334 -1 47.001 -1c58 0 93 2.33301 105 7c14 9.33301 23.667 24.333 29 45l3 12h16v-168z" />
    <glyph glyph-name="Omega" unicode="&#x2126;" horiz-adv-x="799" 
d="M765 0l-306.003 0.00195312l16 158c34.667 14 60.667 30 78 48c46 46.667 69 117 69 211c0 79.333 -17 141.666 -51 186.999c-38.667 52 -96 78 -172 78c-74 0 -130.333 -26.333 -169 -79c-34.667 -46.667 -52 -108.334 -52 -185.001c0 -94.667 24 -166 72 -214
c18 -18 43.667 -33.333 77 -46l16 -158h-308v168h18c4 -16 7.33301 -26.667 10 -32c5.33301 -13.333 12.333 -21.333 21 -24c17.333 -6.66699 53.333 -9.33398 108 -8.00098l92 2l-2 28c-59.333 18 -103 39.667 -131 65c-63.333 56.667 -95 128.334 -95 215.001
c0 93.333 35 168 105 224c64.667 52 144.667 78 240 78c94.667 0 174.334 -26 239.001 -78c70 -56 105 -130.333 105 -223c0 -48.667 -11.333 -95 -34 -139c-24 -46 -56.333 -80.333 -97 -103c-26.667 -14.667 -58 -27.667 -94 -39l-2 -28
c10.667 0 26.334 -0.333008 47.001 -1s36.334 -1 47.001 -1c58 0 93 2.33301 105 7c14 9.33301 23.667 24.333 29 45l3 12h16v-168z" />
    <glyph glyph-name="pi" unicode="&#x3c0;" horiz-adv-x="571" 
d="M551 158c0 -43.333 -9.33105 -81.334 -27.998 -114.001c-23.333 -40 -55 -60 -95 -60c-31.333 0 -56 16.333 -74 49c-20 36.667 -29 81.334 -27 134.001l3 77l18 173h-116l-1 -16c-4 -65.333 -13 -145.333 -27 -240c-10 -68 -19.333 -113.667 -28 -137
c-10.667 -29.333 -31 -44 -61 -44c-16.667 0 -30.334 5.66699 -41.001 17s-16 25.666 -16 42.999c0 8.66699 2.66699 15.667 8 21l50 67c11.333 11.333 18.333 27.333 21 48l30 241h-23c-31.333 0 -54.333 -4.33301 -69 -13c-12 -8 -27.333 -26 -46 -54h-19
c10 30 17.667 51 23 63c9.33301 20.667 21.666 39.334 36.999 56.001c22 24.667 48.667 37 80 37h393v-89h-130l-1 -13c-8 -104 -12 -173 -12 -207v-8c0 -72.667 21.667 -109 65 -109c36.667 0 57.667 26 63 78h23z" />
    <glyph glyph-name="endash" unicode="&#x2013;" horiz-adv-x="696" 
d="M75 276v148h546v-148h-546z" />
    <glyph glyph-name="emdash" unicode="&#x2014;" horiz-adv-x="417" 
d="M17 70v176h383v-176h-383z" />
    <glyph glyph-name="quoteleft" unicode="&#x2018;" horiz-adv-x="174" 
d="M161 541c-0.666992 -20 -8.33203 -36.167 -22.999 -48.5s-32 -18.166 -52 -17.499c-18 0.666992 -33.833 7.33398 -47.5 20.001s-20.167 27.667 -19.5 45c1.33301 28.667 24 73 68 133c15.333 20.667 27.333 30 36 28c2 -0.666992 3 -2.33398 3 -5.00098
c0 -6 -6.33301 -21.833 -19 -47.5s-18 -39.834 -16 -42.501c47.333 -1.33301 70.666 -23 69.999 -65z" />
    <glyph glyph-name="quoteright" unicode="&#x2019;" horiz-adv-x="174" 
d="M19 635c0.666992 20 8.33203 36.168 22.999 48.501s32 18.166 52 17.499c18 -0.666992 33.833 -7.33398 47.5 -20.001s20.167 -27.667 19.5 -45c-1.33301 -28.667 -24 -73 -68 -133c-15.333 -20.667 -27.333 -30 -36 -28c-2 0.666992 -3 2.33398 -3 5.00098
c0 6 6.16699 22 18.5 48s17.833 40 16.5 42c-47.333 1.33301 -70.666 23 -69.999 65z" />
    <glyph glyph-name="quotesinglbase" unicode="&#x201a;" horiz-adv-x="272" 
d="M212 84c0 -90 -34.333 -157.333 -103 -202l-56 58c42.667 36.667 64 68.667 64 96c0 10 -0.333008 16.333 -1 19c-2 5.33301 -7.33301 8 -16 8h-40v147h152v-126z" />
    <glyph glyph-name="quotedblleft" unicode="&#x201c;" horiz-adv-x="400" 
d="M384 511c-0.666992 -22 -9.00195 -39.8311 -25.002 -53.498s-35 -20.5 -57 -20.5c-19.333 0 -36.666 7 -51.999 21s-22.666 30.667 -21.999 50c0.666992 26.667 15.334 60.334 44.001 101.001c22 31.333 35.333 49.666 40 54.999c14.667 16.667 26.667 24 36 22
c2 -0.666992 3 -2.33398 3 -5.00098c0 -4.66699 -7.66699 -22.334 -23 -53.001c-15.333 -28 -22 -43.333 -20 -46c51.333 -1.33301 76.666 -25 75.999 -71zM178.998 511.002c-0.666992 -22 -9.00098 -39.832 -25.001 -53.499s-35 -20.5 -57 -20.5
c-19.333 0 -36.666 7 -51.999 21s-22.666 30.667 -21.999 50c1.33301 28 15.666 61.667 42.999 101c7.33301 10 18 25.333 32 46c16.667 22.667 29.667 33 39 31c2 -0.666992 3 -2.33398 3 -5.00098c0 -6.66699 -6.83301 -24.167 -20.5 -52.5s-19.5 -43.833 -17.5 -46.5
c52 -1.33301 77.667 -25 77 -71z" />
    <glyph glyph-name="quotedblright" unicode="&#x201d;" horiz-adv-x="375" 
d="M23 635c0.666992 20 8.16699 36.168 22.5 48.501s31.5 18.166 51.5 17.499c18 -0.666992 33.833 -7.33398 47.5 -20.001s20.167 -27.667 19.5 -45c-1.33301 -28.667 -24 -73 -68 -133c-15.333 -20.667 -27.333 -30 -36 -28c-2 0.666992 -3 2.33398 -3 5.00098
c0 6 6.16699 22 18.5 48s17.833 40 16.5 42c-46.667 1.33301 -69.667 23 -69 65zM217 635.001c0.666992 20 8.33203 36.168 22.999 48.501s32 18.166 52 17.499c18 -0.666992 33.833 -7.33398 47.5 -20.001s20.167 -27.667 19.5 -45c-1.33301 -28.667 -24 -73 -68 -133
c-15.333 -20.667 -27.333 -30 -36 -28c-2 0.666992 -3 2.33398 -3 5.00098c0 6 6.16699 22 18.5 48s17.833 40 16.5 42c-47.333 1.33301 -70.666 23 -69.999 65z" />
    <glyph glyph-name="quotedblbase" unicode="&#x201e;" horiz-adv-x="482" 
d="M424 84c0 -90 -34.333 -157.333 -103 -202l-56 58c42.667 36 64 68 64 96c0 10 -0.666992 16.333 -2 19c-2 5.33301 -7 8 -15 8h-40v147h152v-126zM212 84c0 -90 -34.333 -157.333 -103 -202l-56 58c42.667 36.667 64 68.667 64 96c0 10 -0.333008 16.333 -1 19
c-2 5.33301 -7.33301 8 -16 8h-40v147h152v-126z" />
    <glyph glyph-name="dagger" unicode="&#x2020;" horiz-adv-x="578" 
d="M371 395v-589h-165v589h-188v147h188v211h165v-211h188v-147h-188z" />
    <glyph glyph-name="daggerdbl" unicode="&#x2021;" horiz-adv-x="590" 
d="M371 8v-202h-165v202h-188v147h188v248h-188v147h188v203h165v-203h188v-147h-188v-248h188v-147h-188z" />
    <glyph glyph-name="bullet" unicode="&#x2022;" horiz-adv-x="336" 
d="M28 350c0 38.667 13.667 71.667 41 99s60.333 41 99 41s71.667 -13.667 99 -41s41 -60.333 41 -99s-13.667 -71.667 -41 -99s-60.333 -41 -99 -41s-71.667 13.667 -99 41s-41 60.333 -41 99z" />
    <glyph glyph-name="ellipsis" unicode="&#x2026;" horiz-adv-x="1080" 
d="M1001 93c0 -29.333 -10 -54 -30 -74s-44.667 -30 -74 -30c-30 0 -55 9.83301 -75 29.5s-30 44.5 -30 74.5s10 55.333 30 76s45 31 75 31s54.833 -10.333 74.5 -31s29.5 -46 29.5 -76zM641 93c0 -29.333 -10.001 -54 -30.001 -74s-44.667 -30 -74 -30
s-54.166 9.83301 -74.499 29.5s-30.5 44.5 -30.5 74.5s10 55.333 30 76s45 31 75 31s54.833 -10.333 74.5 -31s29.5 -46 29.5 -76zM280.999 93c0 -29.333 -10.001 -54 -30.001 -74s-44.667 -30 -74 -30s-54.166 9.83301 -74.499 29.5s-30.5 44.5 -30.5 74.5s10 55.333 30 76
s45 31 75 31s54.833 -10.333 74.5 -31s29.5 -46 29.5 -76z" />
    <glyph glyph-name="perthousand" unicode="&#x2030;" horiz-adv-x="1129" 
d="M352 380c-0.666992 -46 -16.8311 -82.4971 -48.498 -109.497s-70.834 -40.5 -117.501 -40.5c-48.667 0 -88.334 13.667 -119.001 41s-45.667 65 -45 113c0.666992 49.333 16.667 86.666 48 111.999c29.333 24 69 36 119 36c47.333 0 83.666 -10.333 108.999 -31
c3.33301 -2.66699 15.333 -13.667 36 -33c14.667 -4 45 -1.66699 91 7c12 2 33.833 11.667 65.5 29s49.167 26 52.5 26c15.333 0 23 -5.66699 23 -17c0 -4 -3.66699 -11.667 -11 -23l-353 -560c-4 -6.66699 -15.667 -10 -35 -10c-14 0 -21 2.33301 -21 7
c0 1.33301 0.333008 2.66602 1 3.99902l300 471c9.33301 14.667 14 25 14 31s-4.33301 9 -13 9c-5.33301 0 -13 -1.33301 -23 -4l-24 -5c-9.33301 -1.33301 -26.666 -2.33301 -51.999 -3c2 -24.667 3 -41.334 3 -50.001zM584.003 296.003
c105.333 0 158.333 -49.667 159 -149c0.666992 -100 -53 -150 -161 -150c-106.667 0 -160 50.333 -160 151c0 98.667 54 148 162 148zM154.003 388.003c-0.666992 -85.333 10.333 -128 33 -128c16.667 0 27 14.667 31 44c0.666992 4.66699 1 32 1 82
c0 42 -0.666992 67.667 -2 77c-4 27.333 -13.667 41 -29 41c-16.667 0 -27 -13.667 -31 -41c-1.33301 -11.333 -2.33301 -36.333 -3 -75zM553.003 150.003c0 -50 0.333008 -78 1 -84c3.33301 -30 13 -44.667 29 -44c16.667 0.666992 26 16 28 46
c0 10.667 0.333008 38.667 1 84c0.666992 49.333 0.666992 76.333 0 81c-3.33301 24.667 -13 36.667 -29 36s-25.667 -14.667 -29 -42c-0.666992 -5.33301 -1 -31 -1 -77zM934.003 296.003c105.333 0 158.333 -49.667 159 -149c0.666992 -100 -53 -150 -161 -150
c-106.667 0 -160 50.333 -160 151c0 98.667 54 148 162 148zM903.003 150.003c0 -50 0.333008 -78 1 -84c3.33301 -30 13 -44.667 29 -44c16.667 0.666992 26 16 28 46c0 10.667 0.333008 38.667 1 84c0.666992 49.333 0.666992 76.333 0 81
c-3.33301 24.667 -13 36.667 -29 36s-25.667 -14.667 -29 -42c-0.666992 -5.33301 -1 -31 -1 -77z" />
    <glyph glyph-name="guilsinglleft" unicode="&#x2039;" horiz-adv-x="333" 
d="M246 107l-158 125v91l157 123l1 -88l-105 -81l104 -81z" />
    <glyph glyph-name="guilsinglright" unicode="&#x203a;" horiz-adv-x="333" 
d="M246 231l-158 -124v89l105 81l-105 81v89l158 -124v-92z" />
    <glyph glyph-name="fraction" unicode="&#x2044;" horiz-adv-x="494" 
d="M507 700l-450 -700h-90l452 700h88z" />
    <glyph glyph-name="trademark" unicode="&#x2122;" horiz-adv-x="750" 
d="M20 714c0 2 0.332031 3 0.999023 3s1.33398 -0.333008 2.00098 -1c7.33301 -10 15.333 -15 24 -15h231c13.333 0 23 3.33301 29 10c2.66699 4 4 4.33301 4 1v-57c0 -1.33301 -0.333008 -2 -1 -2c-1.33301 0 -4.33301 2.33301 -9 7c-14.667 14.667 -35 22 -61 22
c-12 0 -18 -0.666992 -18 -2l-6 -244l20 -14h-150l21 14l-5 244c0 2 -9 2.66699 -27 2c-15.333 -0.666992 -25 -1.66699 -29 -3c-8 -2.66699 -14.667 -9 -20 -19c-4 -5.33301 -6 -7 -6 -5v59zM327.999 701l162.004 -0.00195312c2.66699 0 4 -0.333008 4 -1
s-2.5 -2.5 -7.5 -5.5s-7.5 -5.5 -7.5 -7.5c-0.666992 -4 0 -7.66699 2 -11l39 -91c2 -4.66699 5.33301 -9 10 -13c4 -0.666992 6.66699 3 8 11l34 87c3.33301 8 3.66602 13.667 0.999023 17c-4 2.66699 -8 5 -12 7c-6.66699 4.66699 -8.66699 7 -6 7h164
c2.66699 0 4 -0.333008 4 -1s-0.666992 -1.33398 -2 -2.00098c-6 -3.33301 -10 -5.66602 -12 -6.99902s-4.33301 -5.66602 -7 -12.999l-6 -229c0 -9.33301 4.33301 -16.666 13 -21.999l7 -4c1.33301 -0.666992 -0.333984 -1 -5.00098 -1h-137l7.5 5.5
c5 3.66699 7.5 8.16699 7.5 13.5v171c0 7.33301 -2 11 -6 11s-7.66699 -4 -11 -12l-84 -184c-0.666992 -3.33301 -2.33398 -5 -5.00098 -5s-4.66699 1.66699 -6 5l-94 185c-2.66699 6 -5.33398 8.33301 -8.00098 7c-1.33301 0 -2 -5.66699 -2 -17l3 -156
c0 -5.33301 2.33301 -10 7 -14c1.33301 -0.666992 5.33301 -3 12 -7c3.33301 -1.33301 3.33301 -2 0 -2h-60c-4 0 -5.66699 0.333008 -5 1c6 0 11.333 4 16 12c2 2.66699 3 6 3 10l8 210c0 6 -4 15 -12 27l-23 17c1.33301 0.666992 3.33301 1 6 1z" />
    <glyph glyph-name="partialdiff" unicode="&#x2202;" horiz-adv-x="514" 
d="M480 417c0 -107.333 -16.335 -200 -49.002 -278c-44 -106.667 -112.333 -160 -205 -160c-56.667 0 -104 19.5 -142 58.5s-57 86.833 -57 143.5c0 62 18.333 116 55 162c39.333 50 89.333 75 150 75c46.667 0 95.667 -20.667 147 -62l10 -8c7.33301 48 11 85 11 111
c0 46.667 -6.33301 91.667 -19 135c-16.667 55.333 -40.667 92.333 -72 111c-26 15.333 -55 23 -87 23c-17.333 0 -33.666 -2.66699 -48.999 -8l-46 -19l-19 -8l-40 53l12 4l23 8l12 3l22 5c26.667 6 47.334 9 62.001 9c92 0 163.333 -38 214 -114
c44.667 -66 67 -147.333 67 -244zM379.998 311c-35.333 43.333 -71.668 65.001 -109.001 65.001c-50 0 -89.333 -26 -118 -78c-23.333 -42.667 -35 -91.334 -35 -146.001c0 -37.333 6 -68.333 18 -93c16 -32.667 40.667 -49 74 -49c61.333 0 107.333 48 138 144
c16.667 52.667 27.334 105 32.001 157z" />
    <glyph glyph-name="product" unicode="&#x220f;" horiz-adv-x="856" 
d="M835 -105h-319v25c66.667 0 100 25 100 75v728h-371v-733c0 -46.667 33.333 -70 100 -70v-25h-319v25c66.667 0 100 23.333 100 70v676c0 28 -8.66699 50 -26 66s-40 24 -68 24h-4v25h804v-25h-4c-62.667 0 -94 -33.667 -94 -101v-660c0 -50 33.667 -75 101 -75v-25z" />
    <glyph glyph-name="summation" unicode="&#x2211;" horiz-adv-x="742" 
d="M723 121l-3 -14l-17 -72l-18 -89l-7 -58l-75 11l-588 -3l363 414l-361 471l83 -6h542l7 -167h-23l-3 13c-9.33301 39.333 -25 67.666 -47 84.999c-19.333 14 -50 21 -92 21h-287l281 -371l-304 -352h404c32 0 58 12.333 78 37c14 16.667 27.667 43.334 41 80.001h26z" />
    <glyph glyph-name="radical" unicode="&#x221a;" horiz-adv-x="571" 
d="M536 947l-155 -989l-254 524l-100 -49l-18 35l154 75l204 -417l131 827z" />
    <glyph glyph-name="infinity" unicode="&#x221e;" horiz-adv-x="742" 
d="M716 276c0 -38 -13.667 -72.168 -41 -102.501s-60 -45.5 -98 -45.5c-38.667 0 -77.667 12 -117 36c-17.333 10.667 -33 22.334 -47 35.001c-6.66699 6 -20.667 19.667 -42 41c-14.667 -15.333 -37.334 -36.333 -68.001 -63c-44 -32 -89.667 -48 -137 -48
c-38.667 0 -71.5 15 -98.5 45s-40.5 64.333 -40.5 103c0 40.667 14.5 74.667 43.5 102s63.833 41 104.5 41c44.667 0 98.667 -26.667 162 -80l35 -30l10 8c16.667 15.333 42.334 37 77.001 65c36 24.667 73 37 111 37c40 0 74.333 -14 103 -42s43 -62 43 -102zM662 269.999
c0 25.333 -9 47.667 -27 67s-39.667 29 -65 29c-34.667 0 -77 -20.333 -127 -61l-27 -22l-9 -8l10 -11c26 -28.667 54.333 -51.667 85 -69c18.667 -10.667 40.667 -16 66 -16c26 0 48.167 8.66699 66.5 26s27.5 39 27.5 65zM337 275l-9 8
c-31.333 28 -60.666 49.333 -87.999 64c-22.667 12 -44.334 18 -65.001 18c-26 0 -48.333 -9 -67 -27s-28 -40 -28 -66s9.5 -48 28.5 -66s41.5 -27 67.5 -27c43.333 0 90.333 25.333 141 76z" />
    <glyph glyph-name="integral" unicode="&#x222b;" horiz-adv-x="285" 
d="M303 894c0 -31.333 -19.332 -47 -57.999 -47c-4 0 -8.66699 1.33301 -14 4l-22 17c-2.66699 0.666992 -6 2.33398 -10 5.00098c-15.333 0 -22.333 -11.333 -21 -34l1 -22l15 -187c3.33301 -41.333 5 -119 5 -233c0 -105.333 -1.66699 -179.666 -5 -222.999
c-8.66699 -116.667 -26.334 -199.334 -53.001 -248.001c-13.333 -24 -40 -36 -80 -36c-16.667 0 -30.667 6.66699 -42 20s-17 28.333 -17 45c0 13.333 7.66699 24.666 23 33.999c10 6 18.333 9 25 9c8 0 24 -10.667 48 -32c24.667 2 36 33 34 93l-8 261l1 285
c0 88.667 3.66699 155 11 199c16 98 49 147 99 147c18.667 0 34.667 -5 48 -15s20 -24 20 -42z" />
    <glyph glyph-name="approxequal" unicode="&#x2248;" horiz-adv-x="571" 
d="M548 385c-34.667 -56 -84.333 -84 -149 -84l-18 3l-179 50c-12 3.33301 -24.667 5 -38 5c-39.333 0 -74 -21 -104 -63l-45 30c44.667 54.667 95.667 82 153 82l33 -3l174 -48l25 -4c41.333 0 78 19 110 57zM548.001 228c-35.333 -56 -84.334 -84 -147.001 -84
c-6.66699 0 -13.667 1 -21 3l-178 50c-12 3.33301 -25.333 5 -40 5c-37.333 0 -71.333 -20.667 -102 -62l-46 28c42.667 55.333 94 83 154 83c10.667 0 22.334 -1.66699 35.001 -5l172 -46l24 -4c41.333 0 78 19.333 110 58z" />
    <glyph glyph-name="approxequal" unicode="&#x22f2;" horiz-adv-x="571" 
d="M548 385c-34.667 -56 -84.333 -84 -149 -84l-18 3l-179 50c-12 3.33301 -24.667 5 -38 5c-39.333 0 -74 -21 -104 -63l-45 30c44.667 54.667 95.667 82 153 82l33 -3l174 -48l25 -4c41.333 0 78 19 110 57zM548.001 228c-35.333 -56 -84.334 -84 -147.001 -84
c-6.66699 0 -13.667 1 -21 3l-178 50c-12 3.33301 -25.333 5 -40 5c-37.333 0 -71.333 -20.667 -102 -62l-46 28c42.667 55.333 94 83 154 83c10.667 0 22.334 -1.66699 35.001 -5l172 -46l24 -4c41.333 0 78 19.333 110 58z" />
    <glyph glyph-name="notequal" unicode="&#x2260;" horiz-adv-x="671" 
d="M318 106l-101 -180l-112 63l64 117h-138v129h209l40 72h-249v128h321l101 184l113 -63l-66 -121h147v-128h-218l-40 -72h258v-129h-329z" />
    <glyph glyph-name="lessequal" unicode="&#x2264;" horiz-adv-x="669" 
d="M44 449v108l588 273v-142l-400 -185l400 -185v-141zM44 5v128h588v-128h-588z" />
    <glyph glyph-name="greaterequal" unicode="&#x2265;" horiz-adv-x="669" 
d="M632 449v108l-588 273v-142l400 -185l-400 -185v-141zM632 5v128h-588v-128h588z" />
    <glyph glyph-name="lozenge" unicode="&#x25ca;" horiz-adv-x="514" 
d="M485 392l-201 -392h-64l-201 392l200 383h65zM421 392l-169 325l-170 -325l170 -334z" />
    <glyph glyph-name="apple" unicode="&#xf000;" horiz-adv-x="822" 
d="M555 708c0 -43.333 -15 -82.334 -45 -117.001s-66.333 -52 -109 -52c0 50 13.333 90.833 40 122.5s64.667 50.834 114 57.501v-11zM724 175.999c-54.667 -136 -113.333 -204 -176 -204c-14 0 -28 3 -42 9l-42 18c-6 2.66699 -17 4 -33 4c-24.667 0 -43 -1.66699 -55 -5
l-44 -19c-12.667 -5.33301 -26 -8 -40 -8c-38.667 0 -77 28.333 -115 85c-58.667 87.333 -88 174.666 -88 261.999c0 63.333 16.333 116.333 49 159c36 46.667 84.667 70 146 70c22 0 49 -6.33301 81 -19c20.667 -8 37 -12 49 -12s27 3.33301 45 10
c42 15.333 73.667 23 95 23c64 0 114 -24.667 150 -74c-55.333 -43.333 -83 -91.666 -83 -144.999c0 -74.667 34.333 -126 103 -154z" />
    <glyph glyph-name="fi" unicode="&#xf001;" horiz-adv-x="715" 
d="M352 369h303.003v-307c0 -20 2.33301 -32 7 -36c14.667 -12.667 22.667 -20.334 24 -23.001c0 -1.33301 -4 -2 -12 -2h-296c-6 0 -9 0.666992 -9 2c2 1.33301 9.33301 8.33301 22 21c8 8 12 17.333 12 28v267c-0.666992 1.33301 -2.33398 2.33301 -5.00098 3h-22
c-20.667 0.666992 -31 -1 -31 -5l-22 -408c-0.666992 -8.66699 8.66602 -18.167 27.999 -28.5s29 -16.166 29 -17.499c-0.666992 -1.33301 -1.33398 -2.33301 -2.00098 -3c-3.33301 -2.66699 -17.333 -4 -42 -4l-253 1c-6 0 -12 -0.333008 -18 -1
c-6.66699 0.666992 -10.334 2.33398 -11.001 5.00098c-0.666992 2 6.33301 8.66699 21 20s22 21 22 29v403c0 8.66699 -11 14.167 -33 16.5s-33 4.83301 -33 7.5c10.667 6.66699 25.334 19 44.001 37c10 14 16.333 41.667 19 83c3.33301 57.333 5.66602 89 6.99902 95
c10.667 55.333 40.667 100.333 90 135c46.667 33.333 99 50 157 50c40.667 0 77.334 -6.66699 110.001 -20c44.667 -18 67 -44.333 67 -79c0 -58 -28.333 -87.667 -85 -89c-20 -0.666992 -38 5.16602 -54 17.499s-24 28.166 -24 47.499c0 8.66699 2.5 21.334 7.5 38.001
s7.5 28 7.5 34c0 4.66699 -3.33301 7 -10 7c-18.667 0 -31 -16.667 -37 -50c-2 -11.333 -3 -20.333 -3 -27s3 -16.167 9 -28.5s9 -21.833 9 -28.5v-172c0 -7.33301 2.33301 -13.333 7 -18z" />
    <glyph glyph-name="fl" unicode="&#xf002;" horiz-adv-x="842" 
d="M792 701l-20.999 -657.001c-0.666992 -10.667 4 -19.334 14 -26.001l24 -16c-0.666992 -0.666992 -3 -1 -7 -1h-307c-2.66699 0 -4 0.666992 -4 2c0.666992 2 3.66699 4.83301 9 8.5l17 12c6 4.33301 8.66699 16.166 8 35.499l-10 533
c-14 -27.333 -39 -41.666 -75 -42.999c-20 -0.666992 -38 5.16602 -54 17.499s-24 28.166 -24 47.499c0 8.66699 2.5 21.334 7.5 38.001s7.5 28 7.5 34c0 4.66699 -3.33301 7 -10 7c-18.667 0 -31 -16.667 -37 -50c-2 -11.333 -3 -20.333 -3 -27s3 -16.167 9 -28.5
s9 -21.833 9 -28.5v-172c0 -14 8 -23 24 -27h32c15.333 0 24 -3.33301 26 -10c4.66699 -9.33301 2 -17.333 -8 -24c-5.33301 -3.33301 -19.666 -4.66602 -42.999 -3.99902c-20.667 0.666992 -31 -1 -31 -5l-22 -408c-0.666992 -8.66699 8.66602 -18.167 27.999 -28.5
s29 -16.166 29 -17.499c-0.666992 -1.33301 -1.33398 -2.33301 -2.00098 -3c-3.33301 -2.66699 -17.333 -4 -42 -4l-253 1c-6 0 -12 -0.333008 -18 -1c-6.66699 0.666992 -10.334 2.33398 -11.001 5.00098c-0.666992 2 6.33301 8.66699 21 20s22 21 22 29v403
c0 8.66699 -11 14.167 -33 16.5s-33 4.83301 -33 7.5c10.667 6.66699 25.334 19 44.001 37c10 14 16.333 41.667 19 83c3.33301 57.333 5.66602 89 6.99902 95c10.667 55.333 40.667 100.333 90 135c46.667 33.333 99 50 157 50c58.667 0 105.334 -12 140.001 -36h304z" />
    <glyph glyph-name=".null" horiz-adv-x="0" 
 />
    <glyph glyph-name="glyph2" horiz-adv-x="421" 
 />
    <glyph glyph-name="HT" horiz-adv-x="278" 
 />
    <glyph glyph-name="nonmarkingreturn" horiz-adv-x="278" 
 />
    <glyph glyph-name="glyph105" horiz-adv-x="280" 
 />
    <glyph glyph-name="glyph244" horiz-adv-x="421" 
 />
    <glyph glyph-name="glyph245" horiz-adv-x="421" 
 />
  </font>
</defs>
</svg>
