<svg display="none" xmlns="http://www.w3.org/2000/svg">
  <symbol  id="icon-1" viewBox="0 0 34 34" >
    <g>
     <path d="M17 0C7.61148 0 0 7.61113 0 17C0 26.3889 7.61148 34 17 34C26.3885 34 34 26.3889 34 17C34 7.61113 26.3885 0 17 0ZM25.6233 18.8386C26.4157 19.6125 27.2539 20.3409 27.9652 21.1948C28.2803 21.5725 28.5774 21.9631 28.8035 22.4024C29.1263 23.0289 28.8348 23.7158 28.2741 23.753L24.7913 23.7523C23.8918 23.8268 23.176 23.464 22.5725 22.849C22.0908 22.359 21.6438 21.8355 21.1798 21.3287C20.9903 21.1207 20.7906 20.9249 20.5527 20.7708C20.0779 20.4619 19.6654 20.5565 19.3934 21.0525C19.1162 21.5572 19.0529 22.1165 19.0264 22.6783C18.9885 23.4995 18.7409 23.7141 17.9169 23.7527C16.1562 23.8351 14.4856 23.568 12.9329 22.6803C11.5631 21.8974 10.503 20.7923 9.57913 19.5412C7.78017 17.1023 6.40243 14.4254 5.16452 11.6717C4.88591 11.0515 5.08974 10.7197 5.77391 10.7068C6.91061 10.6849 8.0473 10.6877 9.184 10.7057C9.64661 10.713 9.9527 10.9777 10.1304 11.4143C10.7447 12.9256 11.4977 14.3635 12.4414 15.697C12.6929 16.0522 12.9496 16.4063 13.3151 16.657C13.7186 16.9339 14.0261 16.8424 14.2163 16.392C14.3381 16.1057 14.3906 15.7997 14.417 15.4929C14.5075 14.4421 14.5183 13.3917 14.3617 12.345C14.2643 11.6901 13.896 11.2671 13.2431 11.1433C12.9106 11.0803 12.9593 10.9572 13.121 10.7673C13.4017 10.439 13.6647 10.2358 14.1903 10.2358L18.1252 10.2351C18.7454 10.3569 18.8845 10.6351 18.9687 11.2598L18.9722 15.6327C18.9649 15.8744 19.0936 16.591 19.5277 16.7492C19.8755 16.864 20.105 16.585 20.313 16.3649C21.2567 15.3635 21.929 14.1816 22.5311 12.9583C22.7969 12.4188 23.0261 11.8605 23.2487 11.3012C23.4143 10.8877 23.6717 10.6842 24.1384 10.6911L27.9277 10.6957C28.0393 10.6957 28.1527 10.6967 28.2633 10.7158C28.9019 10.825 29.0769 11.0998 28.8793 11.7228C28.5683 12.7016 27.9642 13.5169 27.3736 14.3343C26.7405 15.2094 26.0654 16.0539 25.4386 16.9329C24.8626 17.7363 24.9082 18.1409 25.6233 18.8386Z" fill="#C0C0C0"/>
    </g>
  </symbol>
  <symbol id="icon-2" viewBox="0 0 34 34">
    <g>
     <path d="M34 16.9993C34 7.60942 26.3898 -0.000732422 17 -0.000732422C7.61016 -0.000732422 0 7.60942 0 16.9993C0 26.3891 7.61016 33.9993 17 33.9993C17.0996 33.9993 17.1992 33.9993 17.2988 33.9926V20.7645H13.6465V16.5079H17.2988V13.3735C17.2988 9.74106 19.5168 7.76216 22.7574 7.76216C24.3113 7.76216 25.6461 7.87505 26.0312 7.92817V11.7266H23.8C22.0402 11.7266 21.6949 12.5633 21.6949 13.7918V16.5012H25.9117L25.3605 20.7579H21.6949V33.3418C28.8004 31.3032 34 24.7622 34 16.9993Z" fill="#C0C0C0"/>
    </g>
  </symbol>
  
   <symbol id="icon-3" viewBox="0 0 34 34" >
    <g>
	<path d="M20.2539 16.9993C20.2539 18.7964 18.7971 20.2532 17 20.2532C15.2029 20.2532 13.7461 18.7964 13.7461 16.9993C13.7461 15.2021 15.2029 13.7454 17 13.7454C18.7971 13.7454 20.2539 15.2021 20.2539 16.9993Z" fill="#C0C0C0"/>
<path d="M24.6097 11.2421C24.4533 10.8183 24.2038 10.4346 23.8795 10.1197C23.5646 9.79547 23.1812 9.54593 22.7571 9.38951C22.4131 9.25592 21.8964 9.09691 20.9447 9.05359C19.9151 9.00664 19.6064 8.99652 17 8.99652C14.3933 8.99652 14.0846 9.00638 13.0553 9.05333C12.1036 9.09691 11.5866 9.25592 11.2429 9.38951C10.8188 9.54593 10.4351 9.79547 10.1205 10.1197C9.79622 10.4346 9.54668 10.818 9.39 11.2421C9.25641 11.5861 9.0974 12.1031 9.05408 13.0548C9.00713 14.0841 8.99701 14.3928 8.99701 16.9995C8.99701 19.606 9.00713 19.9146 9.05408 20.9442C9.0974 21.8959 9.25641 22.4127 9.39 22.7566C9.54668 23.1807 9.79596 23.5641 10.1202 23.879C10.4351 24.2033 10.8185 24.4528 11.2426 24.6093C11.5866 24.7431 12.1036 24.9021 13.0553 24.9454C14.0846 24.9924 14.393 25.0022 16.9997 25.0022C19.6067 25.0022 19.9154 24.9924 20.9444 24.9454C21.8962 24.9021 22.4131 24.7431 22.7571 24.6093C23.6085 24.2809 24.2813 23.608 24.6097 22.7566C24.7433 22.4127 24.9023 21.8959 24.9459 20.9442C24.9929 19.9146 25.0027 19.606 25.0027 16.9995C25.0027 14.3928 24.9929 14.0841 24.9459 13.0548C24.9026 12.1031 24.7436 11.5861 24.6097 11.2421ZM17 22.0119C14.2314 22.0119 11.9871 19.7678 11.9871 16.9993C11.9871 14.2307 14.2314 11.9866 17 11.9866C19.7683 11.9866 22.0126 14.2307 22.0126 16.9993C22.0126 19.7678 19.7683 22.0119 17 22.0119ZM22.2108 12.9599C21.5639 12.9599 21.0394 12.4354 21.0394 11.7884C21.0394 11.1415 21.5639 10.617 22.2108 10.617C22.8578 10.617 23.3823 11.1415 23.3823 11.7884C23.382 12.4354 22.8578 12.9599 22.2108 12.9599Z" fill="#C0C0C0"/>
<path d="M17 -0.000732422C7.61259 -0.000732422 0 7.61186 0 16.9993C0 26.3867 7.61259 33.9993 17 33.9993C26.3874 33.9993 34 26.3867 34 16.9993C34 7.61186 26.3874 -0.000732422 17 -0.000732422ZM26.7028 21.0238C26.6556 22.063 26.4904 22.7725 26.2491 23.3935C25.742 24.7047 24.7055 25.7413 23.3942 26.2484C22.7735 26.4897 22.0637 26.6546 21.0248 26.7021C19.9839 26.7496 19.6513 26.761 17.0003 26.761C14.3489 26.761 14.0166 26.7496 12.9754 26.7021C11.9365 26.6546 11.2268 26.4897 10.6061 26.2484C9.95445 26.0033 9.36458 25.6191 8.87691 25.1224C8.38042 24.6349 7.99625 24.0448 7.75111 23.3935C7.50987 22.7727 7.34464 22.063 7.29742 21.0241C7.24944 19.9829 7.23828 19.6503 7.23828 16.9993C7.23828 14.3482 7.24944 14.0157 7.29716 12.9747C7.34438 11.9355 7.50935 11.2261 7.7506 10.6051C7.99573 9.95372 8.38016 9.36359 8.87691 8.87617C9.36432 8.37943 9.95445 7.99525 10.6058 7.75012C11.2268 7.50888 11.9363 7.3439 12.9754 7.29643C14.0164 7.24896 14.3489 7.23755 17 7.23755C19.6511 7.23755 19.9836 7.24896 21.0246 7.29669C22.0637 7.3439 22.7732 7.50888 23.3942 7.74986C24.0455 7.995 24.6357 8.37943 25.1234 8.87617C25.6198 9.36385 26.0043 9.95372 26.2491 10.6051C26.4906 11.2261 26.6556 11.9355 26.7031 12.9747C26.7506 14.0157 26.7617 14.3482 26.7617 16.9993C26.7617 19.6503 26.7506 19.9829 26.7028 21.0238Z" fill="#C0C0C0"/> 
  </g>
    </symbol>
</svg>